<svg xmlns="http://www.w3.org/2000/svg" width="14" height="14" version="1.1">
 <g id="active-center">
  <g transform="scale(0.875)">
   <path style="fill:#aa4400" d="M 8.0000702,16 C 12.418274,16 16,12.418286 16,8 16,3.5817144 12.418274,2e-7 8.0000702,2e-7 3.5817358,2e-7 0,3.5817144 0,8 c 0,4.418286 3.5817358,8 8.0000702,8"/>
   <path style="fill:#d45500" d="m 8.0000702,15.428571 c 4.1026068,0 7.4284938,-3.18946 7.4284938,-7.1235978 0,-3.9342482 -3.325887,-7.123489 -7.4284938,-7.123489 -4.1027586,0 -7.42864878,3.1892408 -7.42864878,7.123489 0,3.9341378 3.32589018,7.1235978 7.42864878,7.1235978"/>
  </g>
 </g>
 <g id="hover-center" transform="translate(14)">
  <g transform="scale(0.875)">
   <path style="fill:#aa4400" d="M 8.0000702,16 C 12.418274,16 16,12.418286 16,8 16,3.5817144 12.418274,2e-7 8.0000702,2e-7 3.5817358,2e-7 0,3.5817144 0,8 c 0,4.418286 3.5817358,8 8.0000702,8"/>
   <path style="fill:#d45500" d="m 8.0000702,15.428571 c 4.1026068,0 7.4284938,-3.18946 7.4284938,-7.1235978 0,-3.9342482 -3.325887,-7.123489 -7.4284938,-7.123489 -4.1027586,0 -7.42864878,3.1892408 -7.42864878,7.123489 0,3.9341378 3.32589018,7.1235978 7.42864878,7.1235978"/>
   <path style="opacity:0.5" d="m 4.8940582,4.894067 c -0.4301729,0.4301325 -0.4301729,1.1227146 0,1.5529564 l 1.5529704,1.5529563 -1.5529704,1.552955 c -0.4301729,0.4302412 -0.4301729,1.1228233 0,1.5529553 0.4301727,0.430242 1.1227976,0.430242 1.5529704,0 L 7.9999998,9.5529347 9.5529711,11.10589 c 0.4301731,0.430242 1.1227979,0.430242 1.5529709,0 0.430173,-0.430132 0.430173,-1.1227141 0,-1.5529553 L 9.5529711,7.9999798 11.105942,6.4470234 c 0.430173,-0.4302418 0.430173,-1.1228239 0,-1.5529564 -0.430173,-0.4302413 -1.1227978,-0.4302413 -1.5529709,0 L 7.9999998,6.4470234 6.4470286,4.894067 c -0.4301728,-0.4302413 -1.1227977,-0.4302413 -1.5529704,0 z"/>
  </g>
 </g>
 <g id="pressed-center" transform="translate(28)">
  <g transform="scale(0.875)">
   <path style="fill:#aa4400" d="M 8.0000702,16 C 12.418274,16 16,12.418286 16,8 16,3.5817144 12.418274,2e-7 8.0000702,2e-7 3.5817358,2e-7 0,3.5817144 0,8 c 0,4.418286 3.5817358,8 8.0000702,8"/>
   <path style="fill:#d45500" d="m 8.0000702,15.428571 c 4.1026068,0 7.4284938,-3.18946 7.4284938,-7.1235978 0,-3.9342482 -3.325887,-7.123489 -7.4284938,-7.123489 -4.1027586,0 -7.42864878,3.1892408 -7.42864878,7.123489 0,3.9341378 3.32589018,7.1235978 7.42864878,7.1235978"/>
   <path style="opacity:0.5" d="m 4.8940582,4.894067 c -0.4301729,0.4301325 -0.4301729,1.1227146 0,1.5529564 l 1.5529704,1.5529563 -1.5529704,1.552955 c -0.4301729,0.4302412 -0.4301729,1.1228233 0,1.5529553 0.4301727,0.430242 1.1227976,0.430242 1.5529704,0 L 7.9999998,9.5529347 9.5529711,11.10589 c 0.4301731,0.430242 1.1227979,0.430242 1.5529709,0 0.430173,-0.430132 0.430173,-1.1227141 0,-1.5529553 L 9.5529711,7.9999798 11.105942,6.4470234 c 0.430173,-0.4302418 0.430173,-1.1228239 0,-1.5529564 -0.430173,-0.4302413 -1.1227978,-0.4302413 -1.5529709,0 L 7.9999998,6.4470234 6.4470286,4.894067 c -0.4301728,-0.4302413 -1.1227977,-0.4302413 -1.5529704,0 z"/>
  </g>
 </g>
 <g id="inactive-center" transform="translate(42)">
  <g>
   <g transform="scale(0.875)">
    <path style="fill:#333333" d="M 8.0000702,16 C 12.418274,16 16,12.418286 16,8 16,3.5817144 12.418274,2e-7 8.0000702,2e-7 3.5817358,2e-7 0,3.5817144 0,8 c 0,4.418286 3.5817358,8 8.0000702,8"/>
    <path style="fill:#4d4d4d" d="m 8.0000702,15.428571 c 4.1026068,0 7.4284938,-3.143927 7.4284938,-7.0219023 0,-3.8780832 -3.325887,-7.0217948 -7.4284938,-7.0217948 -4.1027583,0 -7.42864855,3.1437116 -7.42864855,7.0217948 0,3.8779753 3.32589025,7.0219023 7.42864855,7.0219023"/>
   </g>
  </g>
 </g>
 <g id="deactivated-center" transform="translate(56)">
  <g>
   <g transform="scale(0.875)">
    <path style="fill:#333333" d="M 8.0000702,16 C 12.418274,16 16,12.418286 16,8 16,3.5817144 12.418274,2e-7 8.0000702,2e-7 3.5817358,2e-7 0,3.5817144 0,8 c 0,4.418286 3.5817358,8 8.0000702,8"/>
    <path style="fill:#4d4d4d" d="m 8.0000702,15.428571 c 4.1026068,0 7.4284938,-3.143927 7.4284938,-7.0219023 0,-3.8780832 -3.325887,-7.0217948 -7.4284938,-7.0217948 -4.1027583,0 -7.42864855,3.1437116 -7.42864855,7.0217948 0,3.8779753 3.32589025,7.0219023 7.42864855,7.0219023"/>
   </g>
  </g>
 </g>
</svg>
