<svg xmlns="http://www.w3.org/2000/svg" width="14" height="14" version="1.1">
 <g id="active-center" style="enable-background:new">
  <g  transform="scale(0.875)">
   <path  style="fill:#aa4400" d="M 8.0000702,16 C 12.418274,16 16,12.418286 16,8 16,3.5817144 12.418274,2e-7 8.0000702,2e-7 3.5817358,2e-7 0,3.5817144 0,8 c 0,4.418286 3.5817358,8 8.0000702,8"/>
   <path  style="fill:#d45500" d="m 8.0000702,15.428571 c 4.1026068,0 7.4284938,-3.18946 7.4284938,-7.1235978 0,-3.9342482 -3.325887,-7.123489 -7.4284938,-7.123489 -4.1027586,0 -7.42864878,3.1892408 -7.42864878,7.123489 0,3.9341378 3.32589018,7.1235978 7.42864878,7.1235978"/>
  </g>
 </g>
 <g id="hover-center" style="enable-background:new" transform="translate(14)">
  <g  transform="scale(0.875)">
   <path style="fill:#aa4400" d="M 8.0000702,16 C 12.418274,16 16,12.418286 16,8 16,3.5817144 12.418274,2e-7 8.0000702,2e-7 3.5817358,2e-7 0,3.5817144 0,8 c 0,4.418286 3.5817358,8 8.0000702,8"/>
   <path style="fill:#d45500" d="m 8.0000702,15.428571 c 4.1026068,0 7.4284938,-3.18946 7.4284938,-7.1235978 0,-3.9342482 -3.325887,-7.123489 -7.4284938,-7.123489 -4.1027586,0 -7.42864878,3.1892408 -7.42864878,7.123489 0,3.9341378 3.32589018,7.1235978 7.42864878,7.1235978"/>
   <path style="opacity:0.5" d="m 4.865345,4.8024024 c -0.4391321,0.4390909 -0.4391321,1.1460973 0,1.5852998 L 6.450659,7.9730018 4.865345,9.5583001 c -0.4391321,0.4392022 -0.4391321,1.1462079 0,1.5852989 0.4391319,0.439202 1.146182,0.439202 1.585314,0 L 8.0359738,9.5583001 9.6212887,11.143599 c 0.4391323,0.439202 1.1461823,0.439202 1.5853143,0 0.439132,-0.439091 0.439132,-1.1460967 0,-1.5852989 L 9.6212887,7.9730019 11.206603,6.3877022 c 0.439132,-0.4392025 0.439132,-1.1462089 0,-1.5852998 -0.439132,-0.4392019 -1.146182,-0.4392019 -1.5853143,0 L 8.0359738,6.3877022 6.450659,4.8024024 c -0.439132,-0.4392019 -1.1461821,-0.4392019 -1.585314,0 z"/>
  </g>
 </g>
 <g id="pressed-center" style="enable-background:new" transform="translate(28)">
  <g  transform="scale(0.875)">
   <path  style="fill:#aa4400" d="M 8.0000702,16 C 12.418274,16 16,12.418286 16,8 16,3.5817144 12.418274,2e-7 8.0000702,2e-7 3.5817358,2e-7 0,3.5817144 0,8 c 0,4.418286 3.5817358,8 8.0000702,8"/>
   <path  style="fill:#d45500" d="m 8.0000702,15.428571 c 4.1026068,0 7.4284938,-3.18946 7.4284938,-7.1235978 0,-3.9342482 -3.325887,-7.123489 -7.4284938,-7.123489 -4.1027586,0 -7.42864878,3.1892408 -7.42864878,7.123489 0,3.9341378 3.32589018,7.1235978 7.42864878,7.1235978"/>
   <path  style="opacity:0.5" d="m 4.865345,4.8024024 c -0.4391321,0.4390909 -0.4391321,1.1460973 0,1.5852998 L 6.450659,7.9730018 4.865345,9.5583001 c -0.4391321,0.4392022 -0.4391321,1.1462079 0,1.5852989 0.4391319,0.439202 1.146182,0.439202 1.585314,0 L 8.0359738,9.5583001 9.6212887,11.143599 c 0.4391323,0.439202 1.1461823,0.439202 1.5853143,0 0.439132,-0.439091 0.439132,-1.1460967 0,-1.5852989 L 9.6212887,7.9730019 11.206603,6.3877022 c 0.439132,-0.4392025 0.439132,-1.1462089 0,-1.5852998 -0.439132,-0.4392019 -1.146182,-0.4392019 -1.5853143,0 L 8.0359738,6.3877022 6.450659,4.8024024 c -0.439132,-0.4392019 -1.1461821,-0.4392019 -1.585314,0 z"/>
  </g>
 </g>
 <g id="inactive-center" style="enable-background:new" transform="translate(42)">
  <g>
   <g transform="scale(0.875)">
    <path style="fill:#333333" d="M 8.0000702,16 C 12.418274,16 16,12.418286 16,8 16,3.5817144 12.418274,2e-7 8.0000702,2e-7 3.5817358,2e-7 0,3.5817144 0,8 c 0,4.418286 3.5817358,8 8.0000702,8"/>
    <path style="fill:#4d4d4d" d="m 8.0000702,15.428571 c 4.1026068,0 7.4284938,-3.143927 7.4284938,-7.0219023 0,-3.8780832 -3.325887,-7.0217948 -7.4284938,-7.0217948 -4.1027583,0 -7.42864855,3.1437116 -7.42864855,7.0217948 0,3.8779753 3.32589025,7.0219023 7.42864855,7.0219023"/>
   </g>
  </g>
 </g>
 <g id="deactivated-center" style="enable-background:new" transform="translate(56)">
  <g >
   <g  transform="scale(0.875)">
    <path  style="fill:#333333" d="M 8.0000702,16 C 12.418274,16 16,12.418286 16,8 16,3.5817144 12.418274,2e-7 8.0000702,2e-7 3.5817358,2e-7 0,3.5817144 0,8 c 0,4.418286 3.5817358,8 8.0000702,8"/>
    <path  style="fill:#4d4d4d" d="m 8.0000702,15.428571 c 4.1026068,0 7.4284938,-3.143927 7.4284938,-7.0219023 0,-3.8780832 -3.325887,-7.0217948 -7.4284938,-7.0217948 -4.1027583,0 -7.42864855,3.1437116 -7.42864855,7.0217948 0,3.8779753 3.32589025,7.0219023 7.42864855,7.0219023"/>
   </g>
  </g>
 </g>
</svg>
