<?xml version="1.0" encoding="UTF-8" standalone="no"?>
<svg
   xmlns:dc="http://purl.org/dc/elements/1.1/"
   xmlns:cc="http://creativecommons.org/ns#"
   xmlns:rdf="http://www.w3.org/1999/02/22-rdf-syntax-ns#"
   xmlns:svg="http://www.w3.org/2000/svg"
   xmlns="http://www.w3.org/2000/svg"
   xmlns:xlink="http://www.w3.org/1999/xlink"
   xmlns:sodipodi="http://sodipodi.sourceforge.net/DTD/sodipodi-0.dtd"
   xmlns:inkscape="http://www.inkscape.org/namespaces/inkscape"
   width="300"
   height="300"
   version="1.1"
   id="svg92"
   sodipodi:docname="decoration.svg"
   inkscape:version="0.92.5 (2060ec1f9f, 2020-04-08)">
  <metadata
     id="metadata96">
    <rdf:RDF>
      <cc:Work
         rdf:about="">
        <dc:format>image/svg+xml</dc:format>
        <dc:type
           rdf:resource="http://purl.org/dc/dcmitype/StillImage" />
      </cc:Work>
    </rdf:RDF>
  </metadata>
  <sodipodi:namedview
     pagecolor="#ffffff"
     bordercolor="#666666"
     borderopacity="1"
     objecttolerance="10"
     gridtolerance="10"
     guidetolerance="10"
     inkscape:pageopacity="0"
     inkscape:pageshadow="2"
     inkscape:window-width="1920"
     inkscape:window-height="1027"
     id="namedview94"
     showgrid="true"
     showguides="false"
     inkscape:zoom="3.6"
     inkscape:cx="192.93827"
     inkscape:cy="171.45533"
     inkscape:window-x="0"
     inkscape:window-y="30"
     inkscape:window-maximized="1"
     inkscape:current-layer="svg92">
    <inkscape:grid
       type="xygrid"
       id="grid903" />
  </sodipodi:namedview>
  <defs
     id="defs4200">
    <linearGradient
       id="linearGradient895">
      <stop
         style="stop-color:#636363;stop-opacity:1"
         offset="0"
         id="stop2" />
      <stop
         style="stop-color:#6b6b6b;stop-opacity:1"
         offset="1"
         id="stop4" />
    </linearGradient>
    <linearGradient
       id="linearGradient988">
      <stop
         style="stop-color:#000000;stop-opacity:1"
         offset="0"
         id="stop7" />
      <stop
         style="stop-color:#000000;stop-opacity:0"
         offset="1"
         id="stop9" />
    </linearGradient>
    <linearGradient
       id="linearGradient1054"
       x1="155"
       x2="155"
       y1="956.36218"
       y2="968.36218"
       gradientUnits="userSpaceOnUse"
       xlink:href="#linearGradient988" />
    <radialGradient
       id="radialGradient1070"
       cx="105.50006"
       cy="945.73615"
       r="12.5"
       fx="105.50006"
       fy="945.73615"
       gradientTransform="matrix(-1.0400001,-1.120317e-7,1.034135e-7,-0.95999651,201.71997,1111.9034)"
       gradientUnits="userSpaceOnUse"
       xlink:href="#linearGradient988" />
    <linearGradient
       id="linearGradient1078"
       x1="92"
       x2="79"
       y1="892.362"
       y2="892.362"
       gradientUnits="userSpaceOnUse"
       xlink:href="#linearGradient988" />
    <radialGradient
       id="radialGradient1094"
       cx="108.63889"
       cy="851.36218"
       r="12.5"
       fx="108.63889"
       fy="851.36218"
       gradientTransform="matrix(0,-0.56000049,1.0399944,0,-793.41201,150.83784)"
       gradientUnits="userSpaceOnUse"
       xlink:href="#linearGradient988" />
    <linearGradient
       id="linearGradient897"
       x1="165"
       x2="165"
       y1="205"
       y2="83"
       gradientUnits="userSpaceOnUse"
       xlink:href="#linearGradient895"
       gradientTransform="translate(-8.999995,-11)" />
    <linearGradient
       id="linearGradient907"
       x1="119"
       x2="119"
       y1="957.362"
       y2="835.362"
       gradientUnits="userSpaceOnUse"
       xlink:href="#linearGradient895" />
    <linearGradient
       id="linearGradient909"
       x1="97"
       x2="97"
       y1="957.362"
       y2="835.362"
       gradientUnits="userSpaceOnUse"
       xlink:href="#linearGradient895" />
    <linearGradient
       id="linearGradient911"
       x1="93"
       x2="93"
       y1="957.362"
       y2="835.362"
       gradientUnits="userSpaceOnUse"
       xlink:href="#linearGradient895" />
    <linearGradient
       id="linearGradient917"
       x1="145"
       x2="145"
       y1="957.362"
       y2="835.362"
       gradientUnits="userSpaceOnUse"
       xlink:href="#linearGradient895" />
    <linearGradient
       id="linearGradient919"
       x1="95"
       x2="95"
       y1="957.362"
       y2="835.362"
       gradientUnits="userSpaceOnUse"
       xlink:href="#linearGradient895" />
    <linearGradient
       inkscape:collect="always"
       xlink:href="#linearGradient988"
       id="linearGradient938"
       gradientUnits="userSpaceOnUse"
       x1="92"
       y1="892.362"
       x2="79"
       y2="892.36218" />
    <linearGradient
       inkscape:collect="always"
       xlink:href="#linearGradient895"
       id="linearGradient940"
       gradientUnits="userSpaceOnUse"
       x1="93"
       y1="957.362"
       x2="93"
       y2="835.362" />
    <radialGradient
       inkscape:collect="always"
       xlink:href="#linearGradient988"
       id="radialGradient942"
       gradientUnits="userSpaceOnUse"
       gradientTransform="matrix(-1.0399999,-1.6553279e-6,1.5279896e-6,-0.95999651,201.71861,1111.9036)"
       cx="105.50006"
       cy="945.73615"
       fx="105.50006"
       fy="945.73615"
       r="12.5" />
    <linearGradient
       inkscape:collect="always"
       xlink:href="#linearGradient895"
       id="linearGradient944"
       gradientUnits="userSpaceOnUse"
       x1="97"
       y1="957.362"
       x2="97"
       y2="835.362" />
    <radialGradient
       inkscape:collect="always"
       xlink:href="#linearGradient988"
       id="radialGradient946"
       gradientUnits="userSpaceOnUse"
       gradientTransform="matrix(4.2816027e-7,-0.56000049,1.0399944,7.9514998e-7,-793.41205,150.83717)"
       cx="108.63889"
       cy="851.36218"
       fx="108.63889"
       fy="851.36218"
       r="12.5" />
    <linearGradient
       inkscape:collect="always"
       xlink:href="#linearGradient895"
       id="linearGradient948"
       gradientUnits="userSpaceOnUse"
       x1="95"
       y1="957.362"
       x2="95"
       y2="835.362" />
  </defs>
  <path
     id="decoration-center"
     style="fill:url(#linearGradient897);fill-opacity:1"
     d="m 92,90 v 98 h 98 V 90 Z"
     inkscape:connector-curvature="0" />
  <g
     id="decoration-left"
     transform="translate(0,-763.36216)">
    <path
       style="opacity:0.3;fill:url(#linearGradient1078)"
       d="m 79,853.36216 v 98 h 7 v -98 z"
       id="path30"
       inkscape:connector-curvature="0"
       sodipodi:nodetypes="ccccc" />
    <path
       style="fill:url(#linearGradient911);fill-opacity:1"
       d="m 92,951.36156 v -97.9994 h -6 v 98 z"
       id="path32"
       inkscape:connector-curvature="0"
       sodipodi:nodetypes="ccccc" />
    <path
       style="opacity:0.3"
       d="m 86,951.36156 v -97.9994 h -1 v 98 z"
       id="path34"
       inkscape:connector-curvature="0"
       sodipodi:nodetypes="ccccc" />
  </g>
  <g
     id="decoration-top"
     transform="translate(-8.999999,-752.36216)">
    <path
       style="fill:url(#linearGradient917);fill-opacity:1"
       d="M 101.00061,842.36216 H 199 v -7 h -98 z"
       id="path37"
       inkscape:connector-curvature="0"
       sodipodi:nodetypes="ccccc" />
    <path
       style="opacity:0.00100002"
       d="m 199,833.36216 h -98 v 2 h 98 z"
       id="path39"
       inkscape:connector-curvature="0" />
    <path
       style="opacity:0.1;fill:#ffffff"
       transform="translate(0,752.36216)"
       d="m 101,83 v 1 h 98 v -1 z"
       id="path41"
       inkscape:connector-curvature="0" />
    <path
       style="opacity:0.3"
       d="m 101,834.36216 v 1 h 98 v -1 z"
       id="path43"
       inkscape:connector-curvature="0" />
  </g>
  <g
     id="decoration-bottom"
     transform="translate(-9,-768.36216)">
    <path
       style="opacity:0.3;fill:url(#linearGradient1054)"
       d="m 101,968.36216 h 98 v -11 h -98 z"
       id="path46"
       inkscape:connector-curvature="0"
       sodipodi:nodetypes="ccccc" />
    <path
       style="fill:url(#linearGradient907);fill-opacity:1"
       d="M 198.9994,956.36216 H 101 v 1 h 98 z"
       id="path48"
       inkscape:connector-curvature="0"
       sodipodi:nodetypes="ccccc" />
    <path
       style="opacity:0.3"
       d="M 198.9994,957.36216 H 101 v 1 h 98 z"
       id="path50"
       inkscape:connector-curvature="0" />
  </g>
  <g
     id="decoration-bottomleft"
     transform="translate(0,-768.36216)">
    <path
       style="opacity:0.3;fill:url(#radialGradient1070)"
       transform="translate(0,752.36216)"
       d="m 79,204 v 12 h 13 v -11 h -6 v -1 z"
       id="path53"
       inkscape:connector-curvature="0"
       sodipodi:nodetypes="ccccccc" />
    <path
       style="fill:url(#linearGradient909);fill-opacity:1"
       d="m 92,957.36216 h -6 v -1 h 6 z"
       id="path55"
       inkscape:connector-curvature="0"
       sodipodi:nodetypes="ccccc" />
    <path
       style="opacity:0.3"
       transform="translate(0,752.36216)"
       d="m 85,204 v 1 1 h 7 v -1 h -6 v -1 z"
       id="path57"
       inkscape:connector-curvature="0"
       sodipodi:nodetypes="cccccccc" />
  </g>
  <g
     id="decoration-topleft"
     transform="translate(0,-752.36216)">
    <path
       style="opacity:0.3;fill:url(#radialGradient1094)"
       transform="translate(0,752.36216)"
       d="m 79,81 v 9 h 7 v 0 c 0,-7 6,-7 6,-7 v -2 z"
       id="path60"
       inkscape:connector-curvature="0"
       sodipodi:nodetypes="cccsccc" />
    <path
       style="opacity:0.3"
       transform="translate(0,752.36216)"
       d="m 92,82 c 0,0 -1.753276,-0.009 -3.503906,1.011719 C 86.745463,84.032919 85,86.21428 85,90 v 0 h 2 v 0 c 0,-3.21429 1.254536,-4.530966 2.503906,-5.259766 C 90.753276,84.011434 92,84 92,84 h 0 v -2 z"
       id="path62"
       inkscape:connector-curvature="0"
       sodipodi:nodetypes="ccsccsscccc" />
    <path
       style="fill:url(#linearGradient919);fill-opacity:1"
       d="m 92,835.36216 h 10e-7 c 0,0 -6.000001,0 -6.000001,7 v 0 h 6 z"
       id="path64"
       inkscape:connector-curvature="0"
       sodipodi:nodetypes="ccsccc" />
    <path
       style="opacity:0.1;fill:#ffffff"
       d="M 92 83 C 92 83 86 83 86 90 L 86.035156 90 C 86.403609 84.018748 92 84 92 84 L 92 83 z "
       transform="translate(0,752.36216)"
       id="path66" />
  </g>
  <g
     transform="matrix(-1,0,0,1,282,-763.36216)"
     id="decoration-right">
    <path
       inkscape:connector-curvature="0"
       id="path912"
       d="m 79,853.36216 v 98 h 7 v -98 z"
       style="opacity:0.3;fill:url(#linearGradient938)"
       sodipodi:nodetypes="ccccc" />
    <path
       sodipodi:nodetypes="ccccc"
       inkscape:connector-curvature="0"
       id="path914"
       d="m 92,951.36156 v -97.9994 h -6 v 98 z"
       style="fill:url(#linearGradient940);fill-opacity:1" />
    <path
       sodipodi:nodetypes="ccccc"
       inkscape:connector-curvature="0"
       id="path916"
       d="m 86,951.36156 v -97.9994 h -1 v 98 z"
       style="opacity:0.3" />
  </g>
  <g
     transform="matrix(-1,0,0,1,282,-768.36216)"
     id="decoration-bottomright">
    <path
       sodipodi:nodetypes="ccccccc"
       inkscape:connector-curvature="0"
       id="path920"
       d="m 79,204 v 12 h 13 v -11 h -6 v -1 z"
       transform="translate(0,752.36216)"
       style="opacity:0.3;fill:url(#radialGradient942)" />
    <path
       sodipodi:nodetypes="ccccc"
       inkscape:connector-curvature="0"
       id="path922"
       d="m 92,957.36216 h -6 v -1 h 6 z"
       style="fill:url(#linearGradient944);fill-opacity:1" />
    <path
       sodipodi:nodetypes="cccccccc"
       inkscape:connector-curvature="0"
       id="path924"
       d="m 85,204 v 1 1 h 7 v -1 h -6 v -1 z"
       transform="translate(0,752.36216)"
       style="opacity:0.3" />
  </g>
  <g
     transform="matrix(-1,0,0,1,282,-752.36216)"
     id="decoration-topright">
    <path
       sodipodi:nodetypes="cccsccc"
       inkscape:connector-curvature="0"
       id="path928"
       d="m 79,81 v 9 h 7 v 0 c 0,-7 6,-7 6,-7 v -2 z"
       transform="translate(0,752.36216)"
       style="opacity:0.3;fill:url(#radialGradient946)" />
    <path
       sodipodi:nodetypes="ccsccsscccc"
       inkscape:connector-curvature="0"
       id="path930"
       d="m 92,82 c 0,0 -1.753276,-0.009 -3.503906,1.011719 C 86.745463,84.032919 85,86.21428 85,90 v 0 h 2 v 0 c 0,-3.21429 1.254536,-4.530966 2.503906,-5.259766 C 90.753276,84.011434 92,84 92,84 v 0 z"
       transform="translate(0,752.36216)"
       style="opacity:0.3" />
    <path
       sodipodi:nodetypes="ccsccc"
       inkscape:connector-curvature="0"
       id="path932"
       d="m 92,835.36216 h 10e-7 c 0,0 -6.000001,0 -6.000001,7 v 0 h 6 z"
       style="fill:url(#linearGradient948);fill-opacity:1" />
    <path
       id="path934"
       transform="translate(0,752.36216)"
       d="m 92,83 c 0,0 -6,0 -6,7 h 0.03516 C 86.403609,84.018748 92,84 92,84 Z"
       style="opacity:0.1;fill:#ffffff"
       inkscape:connector-curvature="0" />
  </g>
</svg>
