<svg xmlns="http://www.w3.org/2000/svg" width="14" height="14" version="1.1">
 <g id="hover-center" transform="translate(-49,-479)">
  <path style="fill:#333333" d="M 70.000061,493 C 73.86599,493 77,489.866 77,486 77,482.134 73.86599,479 70.000061,479 66.134019,479 63,482.134 63,486 c 0,3.866 3.134019,7 7.000061,7"/>
  <path style="fill:#666666" d="m 70.000061,492.5 c 3.589781,0 6.499933,-2.75094 6.499933,-6.14416 0,-3.39333 -2.910152,-6.14408 -6.499933,-6.14408 -3.589913,0 -6.500067,2.75075 -6.500067,6.14408 0,3.39322 2.910154,6.14416 6.500067,6.14416"/>
  <path style="opacity:0.5" d="m 70,489 c -0.423364,0 -0.847472,-0.16192 -1.171875,-0.48633 l -2.341797,-2.34179 C 66.161925,485.84747 66,485.42336 66,485 h 8 c 0,0.42336 -0.161925,0.84747 -0.486328,1.17188 l -2.341797,2.34179 C 70.847472,488.83808 70.423364,489 70,489 Z"/>
 </g>
 <g id="pressed-center" transform="translate(-35,-479)">
  <path style="fill:#333333" d="M 70.000061,493 C 73.86599,493 77,489.866 77,486 77,482.134 73.86599,479 70.000061,479 66.134019,479 63,482.134 63,486 c 0,3.866 3.134019,7 7.000061,7"/>
  <path style="fill:#666666" d="m 70.000061,492.5 c 3.589781,0 6.499933,-2.75094 6.499933,-6.14416 0,-3.39333 -2.910152,-6.14408 -6.499933,-6.14408 -3.589913,0 -6.500067,2.75075 -6.500067,6.14408 0,3.39322 2.910154,6.14416 6.500067,6.14416"/>
  <path style="opacity:0.5" d="m 70,489 c -0.423364,0 -0.847472,-0.16192 -1.171875,-0.48633 l -2.341797,-2.34179 C 66.161925,485.84747 66,485.42336 66,485 h 8 c 0,0.42336 -0.161925,0.84747 -0.486328,1.17188 l -2.341797,2.34179 C 70.847472,488.83808 70.423364,489 70,489 Z"/>
 </g>
 <g id="active-center" style="enable-background:new">
  <g>
   <g transform="scale(0.875)">
    <path style="fill:#333333" d="M 8.0000702,16 C 12.418274,16 16,12.418286 16,8 16,3.5817144 12.418274,2e-7 8.0000702,2e-7 3.5817358,2e-7 0,3.5817144 0,8 c 0,4.418286 3.5817358,8 8.0000702,8"/>
    <path style="fill:#4d4d4d" d="m 8.0000702,15.428571 c 4.1026068,0 7.4284938,-3.143927 7.4284938,-7.0219023 0,-3.8780832 -3.325887,-7.0217948 -7.4284938,-7.0217948 -4.1027583,0 -7.42864855,3.1437116 -7.42864855,7.0217948 0,3.8779753 3.32589025,7.0219023 7.42864855,7.0219023"/>
   </g>
  </g>
 </g>
 <g id="inactive-center" style="enable-background:new" transform="translate(42)">
  <g>
   <g transform="scale(0.875)">
    <path style="fill:#333333" d="M 8.0000702,16 C 12.418274,16 16,12.418286 16,8 16,3.5817144 12.418274,2e-7 8.0000702,2e-7 3.5817358,2e-7 0,3.5817144 0,8 c 0,4.418286 3.5817358,8 8.0000702,8"/>
    <path style="fill:#4d4d4d" d="m 8.0000702,15.428571 c 4.1026068,0 7.4284938,-3.143927 7.4284938,-7.0219023 0,-3.8780832 -3.325887,-7.0217948 -7.4284938,-7.0217948 -4.1027583,0 -7.42864855,3.1437116 -7.42864855,7.0217948 0,3.8779753 3.32589025,7.0219023 7.42864855,7.0219023"/>
   </g>
  </g>
 </g>
 <g id="deactivated-center" style="enable-background:new" transform="translate(56)">
  <g>
   <g transform="scale(0.875)">
    <path style="fill:#333333" d="M 8.0000702,16 C 12.418274,16 16,12.418286 16,8 16,3.5817144 12.418274,2e-7 8.0000702,2e-7 3.5817358,2e-7 0,3.5817144 0,8 c 0,4.418286 3.5817358,8 8.0000702,8"/>
    <path style="fill:#4d4d4d" d="m 8.0000702,15.428571 c 4.1026068,0 7.4284938,-3.143927 7.4284938,-7.0219023 0,-3.8780832 -3.325887,-7.0217948 -7.4284938,-7.0217948 -4.1027583,0 -7.42864855,3.1437116 -7.42864855,7.0217948 0,3.8779753 3.32589025,7.0219023 7.42864855,7.0219023"/>
   </g>
  </g>
 </g>
</svg>
