<svg xmlns="http://www.w3.org/2000/svg" xmlns:xlink="http://www.w3.org/1999/xlink" width="350" height="350" version="1.1">
 <defs id="defs2550">
  <linearGradient id="linearGradient3656">
   <stop style="stop-color:#1c1851;stop-opacity:1" offset="0"/>
   <stop style="stop-color:#11477e;stop-opacity:1" offset=".143"/>
   <stop style="stop-color:#2a8a96;stop-opacity:1" offset=".344"/>
   <stop style="stop-color:#e39a58;stop-opacity:1" offset=".5"/>
   <stop style="stop-color:#d35e1a;stop-opacity:1" offset=".724"/>
   <stop style="stop-color:#bd400b;stop-opacity:1" offset=".911"/>
   <stop style="stop-color:#671702;stop-opacity:1" offset="1"/>
  </linearGradient>
  <linearGradient id="linearGradient3460">
   <stop style="stop-color:#ffffff;stop-opacity:1" offset="0"/>
   <stop style="stop-color:#ffffff;stop-opacity:0" offset="1"/>
  </linearGradient>
  <radialGradient id="radialGradient3276" cx="34" cy="75.791" r="5.5" fx="34" fy="75.791" gradientTransform="matrix(-12,-1.7275349e-6,1.4134379e-6,-9.8181828,486.99982,1814.6543)" gradientUnits="userSpaceOnUse" xlink:href="#linearGradient2145"/>
  <linearGradient id="linearGradient2145">
   <stop style="stop-color:#000000;stop-opacity:1" offset="0"/>
   <stop style="stop-color:#000000;stop-opacity:0" offset="1"/>
  </linearGradient>
  <radialGradient id="radialGradient3280" cx="67.375" cy="52.417" r="5.5" fx="67.375" fy="52.417" gradientTransform="matrix(1.6985612e-6,9.8181828,-11.999996,2.0760182e-6,899.99974,409.01951)" gradientUnits="userSpaceOnUse" xlink:href="#linearGradient2145"/>
  <linearGradient id="linearGradient3290" x1="45" x2="45" y1="-9" y2="0" gradientTransform="matrix(6,0,0,6,-125,1124.5197)" gradientUnits="userSpaceOnUse" xlink:href="#linearGradient2145"/>
  <linearGradient id="linearGradient3462" x1="155" x2="155" y1="1042.52" y2="1077.52" gradientTransform="matrix(0.99251523,0,0,0.84357614,1.3098353,179.24031)" gradientUnits="userSpaceOnUse" xlink:href="#linearGradient3460"/>
  <linearGradient id="linearGradient3658" x1="41.222" x2="319.889" y1="32" y2="298.667" gradientTransform="translate(0,772.5197)" gradientUnits="userSpaceOnUse" xlink:href="#linearGradient3656"/>
  <filter id="filter3776" style="color-interpolation-filters:sRGB" width="1.072" height="1.072" x="-.04" y="-.04">
   <feGaussianBlur id="feGaussianBlur3778" stdDeviation="2.54"/>
  </filter>
  <filter id="filter924" style="color-interpolation-filters:sRGB" width="1.147" height="1.141" x="-.07" y="-.07">
   <feGaussianBlur id="feGaussianBlur926" stdDeviation="4.86"/>
  </filter>
 </defs>
 <g id="layer1" transform="translate(0,-772.5197)">
  <path style="fill:url(#linearGradient3658);fill-opacity:1;fill-rule:evenodd;stroke-width:6" d="m 79,788.5197 c -34.5,0 -60,25.5 -60,60 v 192 c 0,34.499 25.4973,60.0005 60,60 h 192 l -0.002,-60 H 271 v 60 c 34.5027,5e-4 60,-25.501 60,-60 v -192 c 0,-34.5 -25.5,-60 -60,-60 z"/>
  <path style="color:#000000;font-style:normal;font-variant:normal;font-weight:normal;font-stretch:normal;font-size:medium;line-height:normal;font-family:sans-serif;font-variant-ligatures:normal;font-variant-position:normal;font-variant-caps:normal;font-variant-numeric:normal;font-variant-alternates:normal;font-feature-settings:normal;text-indent:0;text-align:start;text-decoration:none;text-decoration-line:none;text-decoration-style:solid;text-decoration-color:#000000;letter-spacing:normal;word-spacing:normal;text-transform:none;writing-mode:lr-tb;direction:ltr;text-orientation:mixed;dominant-baseline:auto;baseline-shift:baseline;text-anchor:start;white-space:normal;shape-padding:0;clip-rule:nonzero;display:inline;overflow:visible;visibility:visible;opacity:0.4;isolation:auto;mix-blend-mode:normal;color-interpolation:sRGB;color-interpolation-filters:linearRGB;solid-color:#000000;solid-opacity:1;vector-effect:none;fill:#000000;fill-opacity:0.99193552;fill-rule:evenodd;stroke:none;stroke-width:12;stroke-linecap:butt;stroke-linejoin:miter;stroke-miterlimit:4;stroke-dasharray:none;stroke-dashoffset:0;stroke-opacity:1;color-rendering:auto;image-rendering:auto;shape-rendering:auto;text-rendering:auto;enable-background:accumulate" d="m 79,782.5197 c -37.456524,0 -66,28.54348 -66,66 h 6 c 0,-34.5 25.5,-60 60,-60 z"/>
  <path style="color:#000000;font-style:normal;font-variant:normal;font-weight:normal;font-stretch:normal;font-size:medium;line-height:normal;font-family:sans-serif;font-variant-ligatures:normal;font-variant-position:normal;font-variant-caps:normal;font-variant-numeric:normal;font-variant-alternates:normal;font-feature-settings:normal;text-indent:0;text-align:start;text-decoration:none;text-decoration-line:none;text-decoration-style:solid;text-decoration-color:#000000;letter-spacing:normal;word-spacing:normal;text-transform:none;writing-mode:lr-tb;direction:ltr;text-orientation:mixed;dominant-baseline:auto;baseline-shift:baseline;text-anchor:start;white-space:normal;shape-padding:0;clip-rule:nonzero;display:inline;overflow:visible;visibility:visible;opacity:0.4;isolation:auto;mix-blend-mode:normal;color-interpolation:sRGB;color-interpolation-filters:linearRGB;solid-color:#000000;solid-opacity:1;vector-effect:none;fill:#000000;fill-opacity:0.99193552;fill-rule:evenodd;stroke:none;stroke-width:12;stroke-linecap:butt;stroke-linejoin:miter;stroke-miterlimit:4;stroke-dasharray:none;stroke-dashoffset:0;stroke-opacity:1;color-rendering:auto;image-rendering:auto;shape-rendering:auto;text-rendering:auto;enable-background:accumulate" d="m 271.00001,782.5197 c 37.45652,0 66,28.54348 66,66 h -6 c 0,-34.5 -25.5,-60 -60,-60 z"/>
  <path style="color:#000000;font-style:normal;font-variant:normal;font-weight:normal;font-stretch:normal;font-size:medium;line-height:normal;font-family:sans-serif;font-variant-ligatures:normal;font-variant-position:normal;font-variant-caps:normal;font-variant-numeric:normal;font-variant-alternates:normal;font-feature-settings:normal;text-indent:0;text-align:start;text-decoration:none;text-decoration-line:none;text-decoration-style:solid;text-decoration-color:#000000;letter-spacing:normal;word-spacing:normal;text-transform:none;writing-mode:lr-tb;direction:ltr;text-orientation:mixed;dominant-baseline:auto;baseline-shift:baseline;text-anchor:start;white-space:normal;shape-padding:0;clip-rule:nonzero;display:inline;overflow:visible;visibility:visible;opacity:1;isolation:auto;mix-blend-mode:normal;color-interpolation:sRGB;color-interpolation-filters:linearRGB;solid-color:#000000;solid-opacity:1;vector-effect:none;fill:url(#radialGradient3276);fill-opacity:1;fill-rule:evenodd;stroke:none;stroke-width:12;stroke-linecap:butt;stroke-linejoin:miter;stroke-miterlimit:4;stroke-dasharray:none;stroke-dashoffset:0;stroke-opacity:1;color-rendering:auto;image-rendering:auto;shape-rendering:auto;text-rendering:auto;enable-background:accumulate" d="m 13,1040.5197 v 72 h 66 v -12 c -34.5027,5e-4 -60,-25.501 -60,-60 z"/>
  <path style="color:#000000;font-style:normal;font-variant:normal;font-weight:normal;font-stretch:normal;font-size:medium;line-height:normal;font-family:sans-serif;font-variant-ligatures:normal;font-variant-position:normal;font-variant-caps:normal;font-variant-numeric:normal;font-variant-alternates:normal;font-feature-settings:normal;text-indent:0;text-align:start;text-decoration:none;text-decoration-line:none;text-decoration-style:solid;text-decoration-color:#000000;letter-spacing:normal;word-spacing:normal;text-transform:none;writing-mode:lr-tb;direction:ltr;text-orientation:mixed;dominant-baseline:auto;baseline-shift:baseline;text-anchor:start;white-space:normal;shape-padding:0;clip-rule:nonzero;display:inline;overflow:visible;visibility:visible;opacity:0.4;isolation:auto;mix-blend-mode:normal;color-interpolation:sRGB;color-interpolation-filters:linearRGB;solid-color:#000000;solid-opacity:1;vector-effect:none;fill:#000000;fill-opacity:1;fill-rule:evenodd;stroke:none;stroke-width:12;stroke-linecap:butt;stroke-linejoin:miter;stroke-miterlimit:4;stroke-dasharray:none;stroke-dashoffset:0;stroke-opacity:1;color-rendering:auto;image-rendering:auto;shape-rendering:auto;text-rendering:auto;enable-background:accumulate" d="m 79,1106.5197 c -37.456524,0 -66,-28.5435 -66,-66 h 6 c 0,34.5 25.5,60 60,60 z"/>
  <path style="color:#000000;font-style:normal;font-variant:normal;font-weight:normal;font-stretch:normal;font-size:medium;line-height:normal;font-family:sans-serif;font-variant-ligatures:normal;font-variant-position:normal;font-variant-caps:normal;font-variant-numeric:normal;font-variant-alternates:normal;font-feature-settings:normal;text-indent:0;text-align:start;text-decoration:none;text-decoration-line:none;text-decoration-style:solid;text-decoration-color:#000000;letter-spacing:normal;word-spacing:normal;text-transform:none;writing-mode:lr-tb;direction:ltr;text-orientation:mixed;dominant-baseline:auto;baseline-shift:baseline;text-anchor:start;white-space:normal;shape-padding:0;clip-rule:nonzero;display:inline;overflow:visible;visibility:visible;opacity:1;isolation:auto;mix-blend-mode:normal;color-interpolation:sRGB;color-interpolation-filters:linearRGB;solid-color:#000000;solid-opacity:1;vector-effect:none;fill:url(#radialGradient3280);fill-opacity:1;fill-rule:evenodd;stroke:none;stroke-width:12;stroke-linecap:butt;stroke-linejoin:miter;stroke-miterlimit:4;stroke-dasharray:none;stroke-dashoffset:0;stroke-opacity:1;color-rendering:auto;image-rendering:auto;shape-rendering:auto;text-rendering:auto;enable-background:accumulate" d="m 330.71875,1046.5197 c -2.7743,31.4137 -27.24944,54.0004 -59.71875,54 v 12 h 66 c 0,0 0,-47.1696 0,-66 -2.09375,0 -4.1875,0 -6.28125,0 z"/>
  <path style="color:#000000;font-style:normal;font-variant:normal;font-weight:normal;font-stretch:normal;font-size:medium;line-height:normal;font-family:sans-serif;font-variant-ligatures:normal;font-variant-position:normal;font-variant-caps:normal;font-variant-numeric:normal;font-variant-alternates:normal;font-feature-settings:normal;text-indent:0;text-align:start;text-decoration:none;text-decoration-line:none;text-decoration-style:solid;text-decoration-color:#000000;letter-spacing:normal;word-spacing:normal;text-transform:none;writing-mode:lr-tb;direction:ltr;text-orientation:mixed;dominant-baseline:auto;baseline-shift:baseline;text-anchor:start;white-space:normal;shape-padding:0;clip-rule:nonzero;display:inline;overflow:visible;visibility:visible;opacity:0.4;isolation:auto;mix-blend-mode:normal;color-interpolation:sRGB;color-interpolation-filters:linearRGB;solid-color:#000000;solid-opacity:1;vector-effect:none;fill:#000000;fill-opacity:1;fill-rule:evenodd;stroke:none;stroke-width:12;stroke-linecap:butt;stroke-linejoin:miter;stroke-miterlimit:4;stroke-dasharray:none;stroke-dashoffset:0;stroke-opacity:1;color-rendering:auto;image-rendering:auto;shape-rendering:auto;text-rendering:auto;enable-background:accumulate" d="m 271.00001,1106.5197 c 37.45652,0 66,-28.5435 66,-66 h -6 c 0,34.5 -25.5,60 -60,60 z"/>
  <rect style="opacity:0.4;fill:#000000;fill-opacity:1;fill-rule:nonzero;stroke:none;stroke-width:12;stroke-linecap:round;stroke-linejoin:round;stroke-miterlimit:4;stroke-dasharray:none;stroke-opacity:0.99193552" width="192" height="6" x="79" y="782.52"/>
  <rect style="opacity:0.4;fill:#000000;fill-opacity:1;fill-rule:nonzero;stroke:none;stroke-width:12;stroke-linecap:round;stroke-linejoin:round;stroke-miterlimit:4;stroke-dasharray:none;stroke-opacity:0.99193552" width="192" height="6" x="848.52" y="-19" transform="rotate(90)"/>
  <rect style="opacity:0.4;fill:#000000;fill-opacity:1;fill-rule:nonzero;stroke:none;stroke-width:12;stroke-linecap:round;stroke-linejoin:round;stroke-miterlimit:4;stroke-dasharray:none;stroke-opacity:0.99193552" width="192" height="6" x="848.52" y="-337" transform="rotate(90)"/>
  <path style="opacity:1;fill:url(#linearGradient3290);fill-opacity:1;fill-rule:nonzero;stroke:none;stroke-width:12;stroke-linecap:round;stroke-linejoin:round;stroke-miterlimit:4;stroke-dasharray:none;stroke-opacity:0.99193552" d="m 79,1100.5197 h 192 v 12 H 79 Z"/>
  <rect style="opacity:0.4;fill:#000000;fill-opacity:1;fill-rule:nonzero;stroke:none;stroke-width:12;stroke-linecap:round;stroke-linejoin:round;stroke-miterlimit:4;stroke-dasharray:none;stroke-opacity:0.99193552" width="192" height="6" x="79" y="1100.52"/>
  <path style="font-style:normal;font-variant:normal;font-weight:normal;font-stretch:normal;font-size:16px;line-height:1.25;font-family:'Noto Sans';-inkscape-font-specification:'Noto Sans';letter-spacing:0px;word-spacing:0px;fill:#ffffff;fill-opacity:1;stroke:none;stroke-width:2.75473142" d="m 68.11464,1026.5197 a 1.1136577,1.122056 0 0 0 -1.114641,1.123 v 29.754 a 1.1136577,1.122056 0 0 0 1.114641,1.123 h 3.721932 a 1.1136577,1.122056 0 0 0 1.112703,-1.123 v -11.0333 l 1.731086,-1.5312 9.744872,13.2324 a 1.1136577,1.122056 0 0 0 0.895589,0.4551 h 4.384901 a 1.1136577,1.122056 0 0 0 0.899467,-1.7832 l -11.625222,-16.0566 11.094072,-12.2833 a 1.1136577,1.122056 0 0 0 -0.823865,-1.8769 h -4.342254 a 1.1136577,1.122056 0 0 0 -0.829682,0.375 l -7.982768,8.998 -2.560768,2.8282 c -0.198752,0.2197 -0.388284,0.4386 -0.585428,0.6582 v -11.7364 a 1.1136577,1.122056 0 0 0 -1.112703,-1.123 z m 25.603792,0 a 1.1136577,1.122056 0 0 0 -1.114642,1.123 v 29.754 a 1.1136577,1.122056 0 0 0 1.114642,1.123 h 8.230898 c 5.04529,0 9.14631,-1.3375 12.0924,-4.0938 2.99689,-2.8059 4.44887,-6.964 4.44887,-12.1972 0,-3.3344 -0.62075,-6.202 -1.92106,-8.5488 -1.28597,-2.3483 -3.14838,-4.1647 -5.51311,-5.3711 -2.36113,-1.2045 -5.12312,-1.7891 -8.23865,-1.7891 z m 30.196118,0 a 1.1136577,1.122056 0 0 0 -1.11465,1.123 v 29.754 a 1.1136577,1.122056 0 0 0 1.11465,1.123 h 16.5025 a 1.1136577,1.122056 0 0 0 1.1127,-1.123 v -3.2911 a 1.1136577,1.122056 0 0 0 -1.1127,-1.123 h -11.66787 v -8.3809 h 10.92348 a 1.1136577,1.122056 0 0 0 1.11464,-1.123 v -3.252 a 1.1136577,1.122056 0 0 0 -1.11464,-1.1211 h -10.92348 v -7.0488 h 11.66787 a 1.1136577,1.122056 0 0 0 1.1127,-1.123 v -3.2911 a 1.1136577,1.122056 0 0 0 -1.1127,-1.123 z m 53.95056,0 v 31.5898 h 3.62889 v -31.5898 z m -24.14604,0.4102 v 31.5878 h 3.95068 v -12.2988 h 3.60175 c 3.13227,0 5.6037,-0.4701 7.41866,-1.414 1.84423,-0.9438 3.14885,-2.1697 3.90997,-3.6739 0.79038,-1.5337 1.18442,-3.17 1.18442,-4.9101 0,-2.9495 -0.93537,-5.2355 -2.80889,-6.8575 -1.87351,-1.6223 -4.85953,-2.4335 -8.95784,-2.4335 z m 3.95068,3.4062 h 3.99526 c 2.781,0 4.81632,0.5031 6.10436,1.5059 1.28802,1.0027 1.93269,2.5215 1.93269,4.5566 0,2.33 -0.73264,3.9817 -2.19633,4.9551 -1.46368,0.9733 -3.68835,1.459 -6.67427,1.459 h -3.16171 z m -59.116684,1.6348 h 3.725804 c 3.36422,0 5.77976,0.8608 7.46325,2.4843 a 1.1136577,1.122056 0 0 0 0.0116,0.01 c 1.66432,1.5587 2.58016,4.0991 2.58016,7.8867 0,3.7544 -0.9294,6.3646 -2.66352,8.0762 -1.73411,1.7116 -4.40063,2.6406 -8.21732,2.6406 h -2.900004 z m 118.863394,4.1718 c -2.39653,0 -4.33986,0.4957 -5.83103,1.4883 -1.46455,0.9927 -2.19633,2.4024 -2.19633,4.2266 0,1.1805 0.26609,2.1472 0.79866,2.8984 0.53255,0.7511 1.28864,1.3951 2.27387,1.9317 0.98524,0.5365 2.17251,1.0708 3.55716,1.6074 1.41128,0.5365 2.48785,1.022 3.23343,1.4512 0.77222,0.4293 1.30442,0.8578 1.59733,1.2871 0.2929,0.4292 0.44004,0.9126 0.44004,1.4492 0,0.9658 -0.39916,1.7438 -1.198,2.334 -0.79882,0.5633 -2.08905,0.8437 -3.87313,0.8437 -1.25151,0 -2.4893,-0.1747 -3.71418,-0.5234 -1.19826,-0.3757 -2.22431,-0.7758 -3.07641,-1.2051 v 3.2188 c 0.82549,0.4292 1.77092,0.7643 2.83603,1.0058 1.09176,0.2414 2.38196,0.3613 3.87314,0.3613 2.60954,0 4.68595,-0.5343 6.23036,-1.6074 1.54442,-1.0733 2.31846,-2.6573 2.31845,-4.75 0,-1.1536 -0.25396,-2.1062 -0.75989,-2.8574 -0.50594,-0.7781 -1.23772,-1.4341 -2.19633,-1.9707 -0.95861,-0.5366 -2.11771,-1.0605 -3.47574,-1.5703 -1.35802,-0.5366 -2.44868,-0.9936 -3.27414,-1.3692 -0.79883,-0.4024 -1.37136,-0.8046 -1.71751,-1.207 -0.34617,-0.4293 -0.51952,-0.9391 -0.51953,-1.5293 0,-0.8049 0.37295,-1.4345 1.11853,-1.8906 0.77221,-0.4829 1.87693,-0.7266 3.31484,-0.7266 1.0385,0 2.05047,0.136 3.0357,0.4043 0.98523,0.2682 1.93067,0.5911 2.83603,0.9668 l 1.19801,-2.8183 c -0.98523,-0.456 -2.04966,-0.8035 -3.19466,-1.045 -1.11838,-0.2684 -2.32993,-0.4043 -3.6347,-0.4043 z m 22.32577,0 c -1.27815,0 -2.48776,0.2843 -3.63276,0.8477 -1.11838,0.5365 -2.01138,1.3674 -2.67708,2.4941 h -0.19967 l -0.51951,-2.9375 h -2.83604 v 21.5704 h 3.51451 v -11.1895 c 0,-2.5219 0.41326,-4.4536 1.23871,-5.7949 0.82548,-1.3415 2.31722,-2.0098 4.47407,-2.0098 2.92907,0 4.39459,1.702 4.39459,5.1094 v 13.8848 h 3.47381 v -11.9122 c 0,-2.3073 0.43945,-4.0641 1.31819,-5.2714 0.90535,-1.2074 2.39708,-1.8106 4.47407,-1.8106 2.90244,0 4.35388,1.702 4.35388,5.1094 v 13.8848 h 3.47381 v -14.0469 c 0,-2.7901 -0.59875,-4.799 -1.797,-6.0332 -1.19826,-1.2609 -3.01049,-1.8946 -5.43364,-1.8946 -1.38465,0 -2.70109,0.2966 -3.95261,0.8868 -1.22488,0.5902 -2.19656,1.5022 -2.91551,2.7363 h -0.2016 c -1.01187,-2.4146 -3.19509,-3.6231 -6.55022,-3.6231 z m -43.29654,0.041 c -1.38466,0 -2.71519,0.1889 -3.99332,0.5644 -1.27814,0.3489 -2.38479,0.7774 -3.31678,1.2871 l 1.07975,2.6563 c 0.87872,-0.4293 1.82417,-0.805 2.83603,-1.127 1.01186,-0.3488 2.07822,-0.5234 3.19659,-0.5234 1.41128,0 2.50192,0.3474 3.27414,1.0449 0.77221,0.6976 1.15729,1.9466 1.15729,3.7441 v 1.2872 l -3.63276,0.123 c -3.48826,0.1072 -6.07257,0.7493 -7.75014,1.9297 -1.67757,1.1537 -2.51812,2.8048 -2.51812,4.9512 0,2.1999 0.64096,3.8208 1.91911,4.8671 1.27813,1.0195 2.88887,1.5313 4.8327,1.5313 1.81071,0 3.22185,-0.2823 4.23369,-0.8457 1.03851,-0.5635 2.02425,-1.4347 2.95623,-2.6152 h 0.15896 l 0.68041,3.0586 h 2.5569 v -14.6895 c 0,-2.5218 -0.62885,-4.3581 -1.88036,-5.5117 -1.25153,-1.1537 -3.18077,-1.7324 -5.79032,-1.7324 z m 78.88558,0 c -1.38465,0 -2.71711,0.1889 -3.99526,0.5644 -1.27814,0.3489 -2.38288,0.7774 -3.31485,1.2871 l 1.07781,2.6563 c 0.87871,-0.4293 1.82417,-0.805 2.83603,-1.127 1.01187,-0.3488 2.07822,-0.5234 3.1966,-0.5234 1.41129,0 2.50387,0.3474 3.27608,1.0449 0.77223,0.6976 1.15728,1.9466 1.15728,3.7441 v 1.2872 l -3.63275,0.123 c -3.48827,0.1072 -6.0726,0.7493 -7.75016,1.9297 -1.67756,1.1537 -2.51812,2.8048 -2.51812,4.9512 0,2.1999 0.64099,3.8208 1.91913,4.8671 1.27815,1.0195 2.88885,1.5313 4.8327,1.5313 1.8107,0 3.22183,-0.2823 4.23369,-0.8457 1.0385,-0.5635 2.02424,-1.4347 2.95622,-2.6152 h 0.15897 l 0.68041,3.0586 H 283 v -14.6895 c 0,-2.5218 -0.62689,-4.3581 -1.87842,-5.5117 -1.25151,-1.1537 -3.18076,-1.7324 -5.79031,-1.7324 z m -74.69065,11.3906 v 1.9316 c 0,2.0926 -0.60069,3.6486 -1.79894,4.668 -1.19826,0.9928 -2.70214,1.4883 -4.51283,1.4883 -1.14501,0 -2.09045,-0.2824 -2.83604,-0.8457 -0.71895,-0.5634 -1.07781,-1.4489 -1.07781,-2.6563 0,-1.3682 0.50599,-2.4264 1.51784,-3.1777 1.03851,-0.7513 2.88909,-1.1818 5.5519,-1.2891 z m 78.88557,0 v 1.9316 c 0,2.0926 -0.60067,3.6486 -1.79893,4.668 -1.19825,0.9928 -2.70214,1.4883 -4.51284,1.4883 -1.145,0 -2.09045,-0.2824 -2.83604,-0.8457 -0.71896,-0.5634 -1.0778,-1.4489 -1.0778,-2.6563 0,-1.3682 0.50598,-2.4264 1.51784,-3.1777 1.03849,-0.7513 2.88714,-1.1818 5.54995,-1.2891 z"/>
  <path style="font-style:normal;font-variant:normal;font-weight:normal;font-stretch:normal;font-size:16px;line-height:1.25;font-family:'Noto Sans';-inkscape-font-specification:'Noto Sans';letter-spacing:0px;word-spacing:0px;opacity:0.2;fill:url(#linearGradient3462);fill-opacity:1;stroke:none;stroke-width:2.53012109" d="m 68.11464,1086.5197 a 1.1136577,0.94653974 0 0 1 -1.114641,-0.9478 v -25.0989 a 1.1136577,0.94653974 0 0 1 1.114641,-0.9474 h 3.721932 a 1.1136577,0.94653974 0 0 1 1.112703,0.9474 v 9.3068 l 1.731086,1.291 9.744872,-11.161 a 1.1136577,0.94653974 0 0 1 0.895589,-0.3842 h 4.384901 a 1.1136577,0.94653974 0 0 1 0.899467,1.503 l -11.625222,13.5449 11.094072,10.3637 a 1.1136577,0.94653974 0 0 1 -0.823865,1.5825 H 84.90792 a 1.1136577,0.94653974 0 0 1 -0.829681,-0.3158 l -7.982768,-7.5906 -2.560768,-2.3869 c -0.198752,-0.1852 -0.388284,-0.3691 -0.585428,-0.5538 v 9.8993 a 1.1136577,0.94653974 0 0 1 -1.112703,0.9478 z m 25.603791,0 a 1.1136577,0.94653974 0 0 1 -1.114641,-0.9478 v -25.0989 a 1.1136577,0.94653974 0 0 1 1.114641,-0.9474 h 8.230899 c 5.04529,0 9.14631,1.1273 12.0924,3.4532 2.99689,2.3664 4.44887,5.8737 4.44887,10.2897 0,2.8129 -0.62075,5.231 -1.92106,7.2114 -1.28597,1.9799 -3.14838,3.5138 -5.51311,4.531 -2.36113,1.0152 -5.12312,1.5088 -8.23865,1.5088 z m 30.196119,0 a 1.1136577,0.94653974 0 0 1 -1.11465,-0.9478 v -25.0989 a 1.1136577,0.94653974 0 0 1 1.11465,-0.9474 h 16.5025 a 1.1136577,0.94653974 0 0 1 1.11269,0.9474 v 2.7761 a 1.1136577,0.94653974 0 0 1 -1.11269,0.9475 h -11.66787 v 7.0694 h 10.92348 a 1.1136577,0.94653974 0 0 1 1.11464,0.9478 v 2.7424 a 1.1136577,0.94653974 0 0 1 -1.11464,0.946 h -10.92348 v 5.9465 h 11.66787 a 1.1136577,0.94653974 0 0 1 1.11269,0.9476 v 2.7756 a 1.1136577,0.94653974 0 0 1 -1.11269,0.9478 z m 53.95056,0 v -26.6489 h 3.62889 v 26.6489 z m -24.14604,-0.3452 v -26.6471 h 3.95068 v 10.3752 h 3.60175 c 3.13227,0 5.6037,0.3965 7.41866,1.1915 1.84423,0.7973 3.14885,1.8321 3.90997,3.1008 0.79038,1.2936 1.18442,2.6733 1.18442,4.1405 0,2.4889 -0.93537,4.4181 -2.80889,5.7859 -1.87351,1.3673 -4.85953,2.0532 -8.95784,2.0532 z m 3.95068,-2.8745 h 3.99526 c 2.781,0 4.81632,-0.424 6.10436,-1.2706 1.28802,-0.8446 1.93269,-2.1269 1.93269,-3.8428 0,-1.9663 -0.73264,-3.3599 -2.19633,-4.1801 -1.46368,-0.8212 -3.68835,-1.2317 -6.67427,-1.2317 h -3.16171 z m -59.116685,-1.3794 h 3.725805 c 3.36422,0 5.77976,-0.7264 7.46325,-2.095 a 1.1136577,0.94653974 0 0 1 0.0116,-0.01 c 1.66432,-1.3144 2.58016,-3.4582 2.58016,-6.6522 0,-3.1677 -0.9294,-5.3686 -2.66352,-6.8136 -1.73411,-1.4425 -4.40063,-2.2263 -8.21732,-2.2263 h -2.900004 z m 118.863395,-3.5182 c -2.39653,0 -4.33987,-0.4193 -5.83103,-1.2567 -1.46455,-0.8376 -2.19633,-2.0263 -2.19633,-3.5653 0,-0.996 0.26609,-1.8115 0.79866,-2.4437 0.53255,-0.6348 1.28864,-1.1787 2.27387,-1.6312 0.98524,-0.4514 2.17251,-0.9018 3.55716,-1.356 1.41128,-0.4523 2.48785,-0.8619 3.23343,-1.2229 0.77222,-0.3633 1.30442,-0.7229 1.59733,-1.086 0.2929,-0.3629 0.44004,-0.7697 0.44004,-1.2233 0,-0.8146 -0.39916,-1.47 -1.198,-1.9691 -0.79882,-0.474 -2.08905,-0.7099 -3.87313,-0.7099 -1.25151,0 -2.4893,0.146 -3.71418,0.4397 -1.19826,0.3177 -2.22431,0.6556 -3.07641,1.0182 v -2.7167 c 0.82549,-0.3609 1.77092,-0.6441 2.83603,-0.847 1.09176,-0.2049 2.38196,-0.3051 3.87314,-0.3051 2.60954,0 4.68595,0.4495 6.23036,1.3563 1.54442,0.9043 2.31846,2.2417 2.31845,4.0053 0,0.9734 -0.25396,1.7768 -0.75989,2.4116 -0.50594,0.6569 -1.23772,1.2091 -2.19633,1.6616 -0.95861,0.4542 -2.11771,0.8943 -3.47574,1.3246 -1.35802,0.4533 -2.44868,0.8379 -3.27414,1.1554 -0.79883,0.3401 -1.37136,0.6784 -1.71752,1.0189 -0.34616,0.3609 -0.51951,0.7906 -0.51952,1.2898 0,0.6796 0.37295,1.2092 1.11853,1.5952 0.77221,0.4076 1.87693,0.6116 3.31484,0.6116 1.0385,0 2.05047,-0.115 3.0357,-0.3395 0.98523,-0.2279 1.93067,-0.4999 2.83603,-0.8165 l 1.19801,2.3777 c -0.98524,0.3849 -2.04966,0.6783 -3.19466,0.881 -1.11838,0.2272 -2.32993,0.342 -3.6347,0.342 z m 22.32577,0 c -1.27815,0 -2.48776,-0.2392 -3.63276,-0.7161 -1.11838,-0.4518 -2.01138,-1.1525 -2.67708,-2.1039 h -0.19967 l -0.51951,2.478 h -2.83604 v -18.1966 h 3.51451 v 9.4404 c 0,2.1274 0.41326,3.7571 1.23871,4.8889 0.82548,1.1313 2.31722,1.6953 4.47407,1.6953 2.92907,0 4.39459,-1.4365 4.39459,-4.3112 v -11.7134 h 3.47381 v 10.0492 c 0,1.9467 0.43945,3.4283 1.31818,4.4463 0.90536,1.0202 2.39709,1.5291 4.47407,1.5291 2.90245,0 4.35389,-1.4365 4.35389,-4.3112 v -11.7134 h 3.4738 v 11.8495 c 0,2.3538 -0.59874,4.048 -1.79699,5.0909 -1.19826,1.0629 -3.01049,1.5982 -5.43364,1.5982 -1.38465,0 -2.70109,-0.2505 -3.95261,-0.7494 -1.22488,-0.4964 -2.19657,-1.267 -2.91551,-2.3069 h -0.2016 c -1.01187,2.0353 -3.19509,3.0563 -6.55022,3.0563 z m -43.29654,-0.041 c -1.38466,0 -2.71519,-0.1589 -3.99332,-0.4753 -1.27814,-0.2939 -2.38479,-0.6563 -3.31678,-1.0859 l 1.07975,-2.2407 c 0.87872,0.3617 1.82417,0.6794 2.83603,0.9507 1.01186,0.2947 2.07822,0.4404 3.19659,0.4404 1.41128,0 2.50192,-0.2926 3.27414,-0.8807 0.77221,-0.5876 1.15729,-1.6413 1.15728,-3.1585 v -1.0862 l -3.63275,-0.1037 c -3.48826,-0.091 -6.07258,-0.6323 -7.75014,-1.6283 -1.67757,-0.9734 -2.51812,-2.3653 -2.51812,-4.1763 0,-1.8547 0.64096,-3.2238 1.91911,-4.1061 1.27813,-0.8594 2.88887,-1.2911 4.8327,-1.2911 1.81071,0 3.22185,0.2373 4.23369,0.7145 1.03851,0.4744 2.02425,1.2095 2.95623,2.2056 h 0.15896 l 0.68041,-2.5819 h 2.5569 v 12.3919 c 0,2.129 -0.62885,3.6771 -1.88036,4.6502 -1.25153,0.973 -3.18077,1.4614 -5.79032,1.4614 z m 78.88558,0 c -1.38465,0 -2.71711,-0.1589 -3.99526,-0.4753 -1.27814,-0.2939 -2.38288,-0.6563 -3.31485,-1.0859 l 1.07781,-2.2407 c 0.87871,0.3617 1.82417,0.6794 2.83603,0.9507 1.01187,0.2947 2.07822,0.4404 3.1966,0.4404 1.41129,0 2.50387,-0.2926 3.27608,-0.8807 0.77223,-0.5876 1.15728,-1.6413 1.15728,-3.1585 v -1.0862 l -3.63275,-0.1037 c -3.48827,-0.091 -6.0726,-0.6323 -7.75016,-1.6283 -1.67756,-0.9734 -2.51812,-2.3653 -2.51812,-4.1763 0,-1.8547 0.64099,-3.2238 1.91913,-4.1061 1.27815,-0.8594 2.88885,-1.2911 4.8327,-1.2911 1.8107,0 3.22183,0.2373 4.23369,0.7145 1.0385,0.4744 2.02424,1.2095 2.95622,2.2056 h 0.15897 l 0.6804,-2.5819 H 283 v 12.3919 c 0,2.129 -0.6269,3.6771 -1.87842,4.6502 -1.25151,0.973 -3.18076,1.4614 -5.79031,1.4614 z m -74.69065,-9.6084 v -1.6302 c 0,-1.7643 -0.60069,-3.0779 -1.79894,-3.9379 -1.19826,-0.8371 -2.70214,-1.2543 -4.51283,-1.2543 -1.14501,0 -2.09045,0.2382 -2.83604,0.7126 -0.71895,0.4761 -1.07781,1.2225 -1.07781,2.2407 0,1.1558 0.50598,2.0467 1.51784,2.6811 1.03851,0.6343 2.88909,0.9967 5.5519,1.0877 z m 78.88557,0 v -1.6302 c 0,-1.7643 -0.60067,-3.0779 -1.79893,-3.9379 -1.19825,-0.8371 -2.70214,-1.2543 -4.51284,-1.2543 -1.145,0 -2.09045,0.2382 -2.83604,0.7126 -0.71896,0.4761 -1.0778,1.2225 -1.0778,2.2407 0,1.1558 0.50598,2.0467 1.51784,2.6811 1.03849,0.6343 2.88714,0.9967 5.54995,1.0877 z"/>
  <path style="fill:#000000;stroke-width:5.89047003;filter:url(#filter924);opacity:0.37" d="m 189.70877,838.6197 -29.44097,2.72852 v 115.1289 l 29.44097,-5.89258 v -47.14257 l 35.32878,53.03515 29.44098,-11.78515 -38.27366,-49.58399 38.29513,-50.5957 -30.83048,-5.89258 -33.96075,50.08984 z m -63.53832,27.20898 c -0.72461,-0.0348 -1.42369,0.18265 -2.00033,0.75977 l -12.50159,12.50977 c -1.15329,1.15423 -1.15329,3.01178 0,4.16601 l 12.91531,20.30274 c -1.03364,2.08721 -1.92869,4.24031 -2.67947,6.44531 l -23.46144,5.21484 c -1.63101,0 -2.94293,1.31299 -2.94293,2.94531 v 17.67969 c 0,1.63232 1.35076,2.59121 2.94293,2.94531 l 23.47315,5.22657 c 0.72694,2.18344 1.5936,4.31616 2.59751,6.38672 l -12.93678,20.3496 c -0.87564,1.37713 -1.15329,3.01179 0,4.16602 l 12.48987,12.51172 c 1.15331,1.15423 3.00935,1.15423 4.16265,0 l 20.33116,-12.96094 c 2.1033,1.04859 4.27501,1.95656 6.49864,2.7168 l 5.20867,23.47848 c 0,1.6323 1.31388,2.9473 2.94487,2.9473 h 17.66342 c 1.631,0 2.59105,-1.3538 2.94488,-2.9473 l 5.22038,-23.4902 c 2.21409,-0.73874 4.37763,-1.62236 6.47522,-2.64648 l 20.23945,12.90234 c 1.15329,1.15423 3.00935,1.15423 4.16264,0 l 12.50159,-12.51172 c 1.15328,-1.15423 0.87564,-2.78889 0,-4.16602 l -5.52092,-8.67773 -4.1158,1.64453 -13.19049,-19.79492 c -6.64753,14.79331 -21.34037,24.31349 -37.54768,24.33008 -22.76328,0 -41.21658,-18.46826 -41.21658,-41.25 0.0183,-15.91559 9.18299,-30.39974 23.55122,-37.2207 v -12.6836 c -1.9812,0.67863 -3.92067,1.47451 -5.8078,2.38281 l -20.23945,-12.90234 c -0.688,-0.43819 -1.4377,-0.72504 -2.1623,-0.75977 z"/>
  <path style="fill:#ffffff;stroke-width:5.89047003" d="m 189.70877,838.5197 -29.44097,2.72852 v 115.1289 l 29.44097,-5.89258 v -47.14257 l 35.32878,53.03515 29.44098,-11.78515 -38.27366,-49.58399 38.29513,-50.5957 -30.83048,-5.89258 -33.96075,50.08984 z m -63.53832,27.20898 c -0.72461,-0.0348 -1.42369,0.18265 -2.00033,0.75977 l -12.50159,12.50977 c -1.15329,1.15423 -1.15329,3.01178 0,4.16601 l 12.91531,20.30274 c -1.03364,2.08721 -1.92869,4.24031 -2.67947,6.44531 l -23.46144,5.21484 c -1.63101,0 -2.94293,1.31299 -2.94293,2.94531 v 17.67969 c 0,1.63232 1.35076,2.59121 2.94293,2.94531 l 23.47315,5.22657 c 0.72694,2.18344 1.5936,4.31616 2.59751,6.38672 l -12.93678,20.3496 c -0.87564,1.37713 -1.15329,3.01179 0,4.16602 l 12.48987,12.51172 c 1.15331,1.15423 3.00935,1.15423 4.16265,0 l 20.33116,-12.96094 c 2.1033,1.04859 4.27501,1.95656 6.49864,2.7168 l 5.20867,23.47848 c 0,1.6323 1.31388,2.9473 2.94487,2.9473 h 17.66342 c 1.631,0 2.59105,-1.3538 2.94488,-2.9473 l 5.22038,-23.4902 c 2.21409,-0.73874 4.37763,-1.62236 6.47522,-2.64648 l 20.23945,12.90234 c 1.15329,1.15423 3.00935,1.15423 4.16264,0 l 12.50159,-12.51172 c 1.15328,-1.15423 0.87564,-2.78889 0,-4.16602 l -5.52092,-8.67773 -4.1158,1.64453 -13.19049,-19.79492 c -6.64753,14.79331 -21.34037,24.31349 -37.54768,24.33008 -22.76328,0 -41.21658,-18.46826 -41.21658,-41.25 0.0183,-15.91559 9.18299,-30.39974 23.55122,-37.2207 v -12.6836 c -1.9812,0.67863 -3.92067,1.47451 -5.8078,2.38281 l -20.23945,-12.90234 c -0.688,-0.43819 -1.4377,-0.72504 -2.1623,-0.75977 z"/>
  <path style="opacity:0.21400003;fill:#000000;fill-opacity:1;fill-rule:nonzero;stroke:none;stroke-width:2.58960152;stroke-linecap:round;stroke-linejoin:round;stroke-miterlimit:4;stroke-dasharray:none;stroke-opacity:1;filter:url(#filter3776)" d="M 155.772,794.01954 325.10012,963.3477 V 854.01954 c 0,-34.5 -25.5,-60 -60,-60 z"/>
  <path style="opacity:1;fill:#434343;fill-opacity:1;fill-rule:nonzero;stroke:none;stroke-width:2.58960152;stroke-linecap:round;stroke-linejoin:round;stroke-miterlimit:4;stroke-dasharray:none;stroke-opacity:1" d="M 161.67188,788.5197 331,957.84786 V 848.5197 c 0,-34.5 -25.5,-60 -60,-60 z"/>
  <path style="color:#000000;font-style:normal;font-variant:normal;font-weight:normal;font-stretch:normal;font-size:medium;line-height:normal;font-family:sans-serif;font-variant-ligatures:normal;font-variant-position:normal;font-variant-caps:normal;font-variant-numeric:normal;font-variant-alternates:normal;font-feature-settings:normal;text-indent:0;text-align:start;text-decoration:none;text-decoration-line:none;text-decoration-style:solid;text-decoration-color:#000000;letter-spacing:normal;word-spacing:normal;text-transform:none;writing-mode:lr-tb;direction:ltr;text-orientation:mixed;dominant-baseline:auto;baseline-shift:baseline;text-anchor:start;white-space:normal;shape-padding:0;clip-rule:nonzero;display:inline;overflow:visible;visibility:visible;opacity:0.5;isolation:auto;mix-blend-mode:normal;color-interpolation:sRGB;color-interpolation-filters:linearRGB;solid-color:#000000;solid-opacity:1;vector-effect:none;fill:#ffffff;fill-opacity:1;fill-rule:nonzero;stroke:none;stroke-width:1.98917723;stroke-linecap:square;stroke-linejoin:bevel;stroke-miterlimit:4;stroke-dasharray:1.98917696, 11.93506201;stroke-dashoffset:0;stroke-opacity:1;color-rendering:auto;image-rendering:auto;shape-rendering:auto;text-rendering:auto;enable-background:accumulate" d="m 177.23851,793.47776 -1.40599,1.40598 0.70296,0.70303 1.40606,1.40616 0.70299,0.70502 1.40819,-1.40819 -0.70503,-0.70299 -1.40615,-1.40606 z m 4.25513,0.4112 v 1.98981 h 0.99492 1.9898 0.99494 v -1.98981 h -0.99494 -1.9898 z m 13.92483,0 v 1.98981 h 0.99486 1.98987 0.99487 v -1.98981 h -0.99487 -1.98987 z m 13.92469,0 v 1.98981 h 0.99501 1.98767 0.99487 v -1.98981 h -0.99487 -1.98767 z m 13.9247,0 v 1.98981 h 0.99495 1.9878 0.99494 v -1.98981 h -0.99494 -1.9878 z m 13.92264,0 v 1.98981 h 0.99501 1.98974 0.995 v -1.98981 h -0.995 -1.98974 z m 13.92477,0 v 1.98981 h 0.99494 1.98979 0.99495 v -1.98981 H 254.1 252.11021 Z m 13.92484,0 v 1.98981 h 0.99478 1.98995 0.99273 v -1.98981 h -0.99273 -1.98995 z m 14.04599,0.55073 -0.28999,1.96929 0.98466,0.14392 c 0.64458,0.0956 1.28714,0.20134 1.92827,0.3186 l 0.97837,0.18104 0.3577,-1.95709 -0.97838,-0.17884 c -0.6634,-0.1214 -1.32857,-0.23227 -1.99599,-0.33087 z m 13.69248,3.51113 -0.7586,1.83771 0.91885,0.38019 c 0.59893,0.24736 1.19318,0.50763 1.78222,0.78124 l 0.90238,0.41936 0.83667,-1.80485 -0.90238,-0.41731 c -0.61373,-0.28493 -1.23372,-0.5595 -1.86043,-0.81822 z m -105.69369,5.37338 -1.40592,1.40592 0.70296,0.70303 1.40599,1.40602 0.70304,0.70317 1.40614,-1.40614 -0.70317,-0.70305 -1.40601,-1.40599 z m 118.04163,1.55397 -1.23539,1.5581 0.77897,0.61886 c 0.51015,0.40397 1.01078,0.81434 1.4987,1.2375 l 0.75227,0.65365 1.30332,-1.50266 -0.75237,-0.65165 c -0.51384,-0.44584 -1.03694,-0.8778 -1.56638,-1.29714 z m -108.19519,8.29036 -1.40803,1.40804 0.70301,0.70298 1.40799,1.40606 0.70303,0.70297 1.406,-1.406 -0.70297,-0.70303 -1.40606,-1.40799 z m 118.12795,1.80484 -1.62594,1.14689 0.57343,0.81409 c 0.37546,0.53176 0.74003,1.06803 1.08946,1.61161 l 0.5386,0.83661 1.67321,-1.07706 -0.53853,-0.83661 c -0.36757,-0.57177 -0.74727,-1.13212 -1.13673,-1.68363 z m -108.28356,8.0416 -1.406,1.406 0.70297,0.70303 1.40608,1.40799 0.70494,0.70302 1.40606,-1.40605 -0.70303,-0.70496 -1.40797,-1.40606 z m 115.01163,4.40515 -1.87066,0.67422 0.33718,0.93737 c 0.21994,0.61018 0.42609,1.224 0.62065,1.84381 l 0.29807,0.94973 1.89748,-0.59614 -0.29602,-0.94754 c -0.20263,-0.64539 -0.41986,-1.28897 -0.64967,-1.92628 z m -105.16525,5.44109 -1.40614,1.40613 0.70317,0.70305 1.40602,1.40599 0.70303,0.70501 1.40797,-1.40797 -0.70501,-0.70303 -1.40599,-1.40601 z m 108.48495,8.29446 -1.97958,0.20965 0.10482,0.98884 c 0.0677,0.64776 0.12584,1.2952 0.17076,1.94458 l 0.067,0.99274 1.98369,-0.13769 -0.067,-0.99067 c -0.0464,-0.67367 -0.10611,-1.34768 -0.17685,-2.01861 z m -98.6385,1.55198 -1.40615,1.40614 0.70297,0.70298 1.40616,1.40606 0.70303,0.70296 1.40598,-1.40599 -0.70296,-0.70303 -1.40605,-1.40616 z m 9.84625,9.84432 -1.40807,1.40807 0.70509,0.70317 1.40615,1.406 0.70296,0.70303 1.40606,-1.40606 -0.70303,-0.70297 -1.40599,-1.40615 z m 87.25468,2.61478 v 0.99493 1.98979 0.99494 h 1.9898 v -0.99494 -1.98979 -0.99493 z m -77.4103,7.23167 -1.406,1.40601 0.70295,0.70502 1.40807,1.40614 0.70317,0.70303 1.406,-1.406 -0.70303,-0.70317 -1.40614,-1.40807 z m 77.4103,6.69317 v 0.99479 1.98774 0.99493 h 1.9898 v -0.99493 -1.98774 -0.99479 z m -67.56392,3.15327 -1.40595,1.40595 0.70298,0.70303 1.406,1.40819 0.70303,0.70297 1.40813,-1.40814 -0.70297,-0.70302 -1.40819,-1.406 z m 9.84645,9.84633 -1.40607,1.40607 0.7031,0.70295 1.40593,1.40606 0.70303,0.70297 1.406,-1.406 -0.70296,-0.70303 -1.40607,-1.40592 z m 57.71747,0.92503 v 0.99486 1.98787 0.99487 h 1.9898 v -0.99487 -1.98787 -0.99486 z m -47.87103,8.9192 -1.40827,1.40827 0.70518,0.70297 1.40606,1.40599 0.70296,0.70303 1.40605,-1.40606 -0.70302,-0.70296 -1.40599,-1.40605 z m 47.87103,5.00351 v 0.99479 1.98994 0.9948 h 1.9898 v -0.9948 -1.98994 -0.99479 z m -38.02671,4.84294 -1.40614,1.40615 0.70298,0.70508 1.40825,1.40593 0.70297,0.70303 1.40598,-1.40599 -0.70303,-0.70297 -1.40592,-1.40825 z m 38.02671,9.08175 v 0.99494 1.98979 0.99495 h 1.9898 v -0.99495 -1.98979 -0.99494 z m -28.18047,0.76463 -1.406,1.40601 0.70303,0.70317 1.40614,1.40805 0.70508,0.70297 1.40594,-1.40594 -0.70297,-0.70508 -1.40805,-1.40614 z m 9.84644,9.8464 -1.40605,1.40609 0.70302,0.70295 1.406,1.4061 0.70317,0.70517 1.40806,-1.40812 -0.70509,-0.70315 -1.40614,-1.40601 z m 18.33403,3.31368 v 0.99503 1.9898 0.9929 h 1.9898 v -0.9929 -1.9898 -0.99503 z m -8.48758,6.53313 -1.40606,1.4052 0.70297,0.7039 1.40605,1.4052 0.70297,0.7031 1.40615,-1.4052 -0.70298,-0.7031 -1.40614,-1.4055 z m 8.48758,7.3913 v 0.9952 1.9875 0.9953 h 1.9898 v -0.9953 -1.9875 -0.9952 z"/>
  <path style="font-style:normal;font-weight:normal;font-size:50.98446274px;line-height:1.25;font-family:sans-serif;letter-spacing:0px;word-spacing:0px;fill:#ffffff;fill-opacity:1;stroke:none;stroke-width:1.27461147" transform="translate(0,772.5197)" d="M 248.10938 29.378906 L 222.36914 55.121094 L 225.61328 58.365234 L 235.63672 48.34375 L 238.5918 51.298828 C 241.16347 53.870501 243.57866 55.517255 245.83789 56.238281 C 248.12115 56.983348 250.18843 57.055938 252.03906 56.455078 C 253.93778 55.854218 255.59565 54.843801 257.01367 53.425781 C 259.41711 51.022348 260.51123 48.39133 260.29492 45.53125 C 260.07861 42.67117 258.28863 39.558166 254.92383 36.193359 L 248.10938 29.378906 z M 248.57812 35.400391 L 251.85938 38.681641 C 254.14264 40.964901 255.40419 43.043295 255.64453 44.917969 C 255.88487 46.792649 255.17594 48.55843 253.51758 50.216797 C 251.61886 52.11551 249.67257 52.861712 247.67773 52.453125 C 245.68288 52.044538 243.45931 50.613603 241.00781 48.162109 L 238.41211 45.566406 L 248.57812 35.400391 z M 263.07031 57.175781 L 243.74805 76.5 L 246.91992 79.671875 L 257.23047 69.361328 C 258.52832 68.063475 259.91087 67.185169 261.37695 66.728516 C 262.89112 66.271862 264.34429 66.212348 265.73828 66.548828 C 267.1563 66.861275 268.35834 67.51068 269.34375 68.496094 C 269.68023 68.832574 270.00395 69.204701 270.31641 69.613281 C 270.65288 70.045895 270.94129 70.45529 271.18164 70.839844 L 274.5 68.314453 C 274.25965 67.929913 273.93396 67.509394 273.52539 67.052734 C 273.16488 66.596081 272.80388 66.188645 272.44336 65.828125 C 271.09744 64.482205 269.54747 63.700682 267.79297 63.484375 C 266.03847 63.268068 264.32108 63.37598 262.63867 63.808594 L 262.49414 63.664062 L 265.66602 59.771484 L 263.07031 57.175781 z M 276.33789 74.912109 C 272.99712 75.032283 269.72782 76.692112 266.53125 79.888672 C 264.3922 82.027725 262.95014 84.238224 262.20508 86.521484 C 261.48405 88.780711 261.38922 90.967011 261.91797 93.082031 C 262.4948 95.197045 263.63536 97.108013 265.3418 98.814453 C 268.10574 101.57839 271.17035 102.88835 274.53516 102.74414 C 277.92399 102.62397 281.2175 100.96609 284.41406 97.769531 C 286.55312 95.630471 287.97097 93.442218 288.66797 91.207031 C 289.41303 88.971838 289.49675 86.798607 288.91992 84.683594 C 288.39118 82.568574 287.24865 80.633413 285.49414 78.878906 C 282.73019 76.11496 279.67866 74.791936 276.33789 74.912109 z M 277.33398 79.033203 C 279.22406 78.935941 281.0314 79.750154 282.75586 81.474609 C 284.72667 83.445429 285.51931 85.53494 285.13477 87.746094 C 284.75022 89.957247 283.41608 92.205015 281.13281 94.488281 C 278.84956 96.771535 276.57759 98.12988 274.31836 98.5625 C 272.08317 98.97108 269.99365 98.202639 268.04688 96.255859 C 266.07606 94.285046 265.29455 92.180499 265.70312 89.945312 C 266.15978 87.710126 267.52924 85.451229 269.8125 83.167969 C 272.09576 80.884709 274.33046 79.539446 276.51758 79.130859 C 276.79097 79.079787 277.06397 79.047098 277.33398 79.033203 z M 308.17188 89.080078 C 305.98475 89.056045 303.64019 90.295355 301.14062 92.794922 L 300.02344 93.912109 L 295.55273 91.605469 L 294.07422 93.082031 L 297.46484 96.470703 L 280.5918 113.34375 L 283.76367 116.51562 L 300.63672 99.644531 L 305.50391 104.51172 L 307.95508 102.05859 L 303.08789 97.193359 L 304.34961 95.931641 C 305.86377 94.417481 307.22211 93.563367 308.42383 93.371094 C 309.67362 93.178814 310.82726 93.610462 311.88477 94.667969 C 312.41352 95.196729 312.86936 95.773544 313.25391 96.398438 C 313.63845 97.023331 313.96414 97.58903 314.22852 98.09375 L 317.54492 96.435547 C 317.25652 95.81066 316.84711 95.112843 316.31836 94.34375 C 315.83767 93.574643 315.21246 92.806203 314.44336 92.037109 C 312.47255 90.066296 310.38304 89.080078 308.17188 89.080078 z"/>
 </g>
</svg>
