<svg xmlns="http://www.w3.org/2000/svg" xmlns:xlink="http://www.w3.org/1999/xlink" width="62" height="62" version="1">
 <defs id="defs15">
  <linearGradient id="linearGradient2380" x1="-73" x2="-73" y1="1134.393" y2="1141.643" gradientTransform="matrix(0,-1,0.96551724,0,-1010.2759,257)" gradientUnits="userSpaceOnUse" xlink:href="#linearGradient3837"/>
  <linearGradient id="linearGradient3837">
   <stop offset="0"/>
   <stop style="stop-opacity:0" offset="1"/>
  </linearGradient>
  <linearGradient id="linearGradient2376" x1="-73" x2="-73" y1="1134.393" y2="1141.643" gradientTransform="matrix(0,-1,-0.96551724,0,1132.2759,257)" gradientUnits="userSpaceOnUse" xlink:href="#linearGradient3837"/>
  <linearGradient id="linearGradient2372" x1="-73" x2="-73" y1="1134.393" y2="1141.643" gradientTransform="matrix(1,0,0,-0.96551724,110,1377.2759)" gradientUnits="userSpaceOnUse" xlink:href="#linearGradient3837"/>
  <linearGradient id="linearGradient2366" x1="-73" x2="-73" y1="1134.393" y2="1141.643" gradientTransform="matrix(1,0,0,0.96551724,110,-765.27586)" gradientUnits="userSpaceOnUse" xlink:href="#linearGradient3837"/>
  <radialGradient id="radialGradient2400" cx="-24.992" cy="1132.5" r="3.625" fx="-24.992" fy="1132.5" gradientTransform="matrix(-1.8168305e-8,-1.933256,1.9307327,-1.8144592e-8,-2078.5559,-24.3157)" gradientUnits="userSpaceOnUse" xlink:href="#linearGradient3837"/>
  <radialGradient id="radialGradient2404" cx="-24.992" cy="1132.5" r="3.625" fx="-24.992" fy="1132.5" gradientTransform="matrix(-7.7241385e-6,-1.9310932,-1.9307218,7.722653e-6,2342.5434,-24.27042)" gradientUnits="userSpaceOnUse" xlink:href="#linearGradient3837"/>
  <radialGradient id="radialGradient2390" cx="-24.992" cy="1132.5" r="3.625" fx="-24.992" fy="1132.5" gradientTransform="matrix(-1.3014764e-6,1.9310925,-1.9307327,-1.3012339e-6,2342.5559,120.26312)" gradientUnits="userSpaceOnUse" xlink:href="#linearGradient3837"/>
  <radialGradient id="radialGradient2396" cx="-24.992" cy="1132.5" r="3.625" fx="-24.992" fy="1132.5" gradientTransform="matrix(7.7241379e-6,1.9310958,1.9307218,-7.722642e-6,-2078.5434,120.27048)" gradientUnits="userSpaceOnUse" xlink:href="#linearGradient3837"/>
 </defs>
 <rect id="center" style="opacity:0.98;fill:#353535" width="48" height="48" x="7" y="7"/>
 <g id="bottomleft" style="opacity:1" transform="translate(-30,-275)">
  <path style="opacity:0.25;fill:url(#radialGradient2396)" transform="translate(-71,258)" d="m 101,72 v 7 h 7 v -4 c -1.662,0 -3,-1.338 -3,-3 z"/>
  <path style="opacity:0.98;fill:#353535" d="m 34,330 c 0,1.662 1.338,3 3,3 v -3 z"/>
 </g>
 <g id="bottomright" style="opacity:1" transform="translate(-30,-275)">
  <path style="opacity:0.25;fill:url(#radialGradient2390)" transform="translate(-71,258)" d="m 159,72 c 0,1.662 -1.338,3 -3,3 v 4 h 7 v -7 z"/>
  <path style="opacity:0.98;fill:#353535" d="m 85,330 v 3 c 1.662,0 3,-1.338 3,-3 z"/>
 </g>
 <g id="topright" style="opacity:1" transform="translate(-30,-275)">
  <path style="opacity:0.25;fill:url(#radialGradient2404)" transform="translate(-71,258)" d="m 156,17 v 4 c 1.66201,0 3,1.338 3,3 h 4 v -7 z"/>
  <path style="opacity:0.98;fill:#353535" d="m 85,279 v 3 h 3 c 0,-1.662 -1.33799,-3 -3,-3 z"/>
 </g>
 <g id="topleft" style="opacity:1" transform="translate(-30,-275)">
  <path style="opacity:0.25;fill:url(#radialGradient2400)" transform="translate(-71,258)" d="m 101,17 v 7 h 4 c 0,-1.662 1.33801,-3 3,-3 v -4 z"/>
  <path style="opacity:0.98;fill:#353535" d="m 37,279 c -1.66199,0 -3,1.338 -3,3 h 3 z"/>
 </g>
 <g id="bottom" style="opacity:1" transform="translate(-30,-275)">
  <path style="opacity:0.98;fill:#353535" d="m 37,330 v 3 h 48 v -3 z"/>
  <path style="opacity:0.25;fill:url(#linearGradient2366)" d="m 37,333 v 4 h 48 v -4 z"/>
 </g>
 <g id="top" style="opacity:1" transform="translate(-30,-275)">
  <path style="opacity:0.98;fill:#353535" d="m 37,279 v 3 h 48 v -3 z"/>
  <path style="opacity:0.25;fill:url(#linearGradient2372)" d="m 37,279 v -4 h 48 v 4 z"/>
 </g>
 <g id="left" style="opacity:1" transform="translate(-30,-275)">
  <path style="opacity:0.98;fill:#353535" d="m 34,282 v 48 h 3 v -48 z"/>
  <path style="opacity:0.25;fill:url(#linearGradient2376)" d="m 34,330 h -4 v -48 h 4 z"/>
 </g>
 <g id="right" style="opacity:1" transform="translate(-30,-275)">
  <path style="opacity:0.98;fill:#353535" d="m 85,282 v 48 h 3 v -48 z"/>
  <path style="opacity:0.25;fill:url(#linearGradient2380)" d="m 88,330 h 4 v -48 h -4 z"/>
 </g>
 <rect id="hint-top-margin" style="fill:#ff0000" width="4" height="7" x="29" y="0"/>
 <rect id="hint-bottom-margin" style="fill:#ff0000" width="4" height="7" x="29" y="55"/>
 <rect id="hint-right-margin" style="fill:#ff0000" width="4" height="7" x="29" y="-62" transform="rotate(90)"/>
 <rect id="hint-left-margin" style="fill:#ff0000" width="4" height="7" x="29" y="-7" transform="rotate(90)"/>
 <rect id="hint-stretch-borders" style="fill:#ff0000" width="4" height="4" x="0" y="-4"/>
</svg>
