<svg xmlns="http://www.w3.org/2000/svg" xmlns:osb="http://www.openswatchbook.org/uri/2009/osb" xmlns:xlink="http://www.w3.org/1999/xlink" width="117" height="65" version="1">
 <defs id="defs5">
  <linearGradient id="linearGradient1013">
   <stop style="stop-color:#000000;stop-opacity:1" offset="0"/>
   <stop style="stop-color:#000000;stop-opacity:0" offset="1"/>
  </linearGradient>
  <linearGradient id="linearGradient6476" osb:paint="solid">
   <stop style="stop-color:#ffffff;stop-opacity:1" offset="0"/>
  </linearGradient>
  <linearGradient id="linearGradient6476-4" osb:paint="solid">
   <stop id="stop6478-8" style="stop-color:#ffffff;stop-opacity:1" offset="0"/>
  </linearGradient>
  <linearGradient id="linearGradient3464">
   <stop style="stop-color:#134c93;stop-opacity:1" offset="0"/>
   <stop style="stop-color:#15539e;stop-opacity:1" offset="1"/>
  </linearGradient>
  <radialGradient id="radialGradient3360" cx="67.375" cy="52.417" r="5.5" fx="67.375" fy="52.417" gradientTransform="matrix(2.8309353e-7,1.6363638,-1.9999993,3.4600303e-7,170.83329,-55.250032)" gradientUnits="userSpaceOnUse" xlink:href="#linearGradient1013"/>
  <radialGradient id="radialGradient3356" cx="34" cy="75.791" r="5.5" fx="34" fy="75.791" gradientTransform="matrix(-2,-2.8792248e-7,2.3557298e-7,-1.6363638,101.99997,179.02244)" gradientUnits="userSpaceOnUse" xlink:href="#linearGradient1013"/>
  <linearGradient id="linearGradient3292" x1="22.5" x2="55" y1="65.002" y2="65.002" gradientTransform="matrix(0,-1.6,0.98461538,0,-14.001575,32)" gradientUnits="userSpaceOnUse" xlink:href="#linearGradient2091"/>
  <linearGradient id="linearGradient2091">
   <stop style="stop-color:#494949;stop-opacity:1" offset="0"/>
   <stop style="stop-color:#595959;stop-opacity:1" offset="1"/>
  </linearGradient>
  <linearGradient id="linearGradient3288" x1="28.125" x2="28.125" y1="91.408" y2="38.595" gradientTransform="matrix(-1.6,0,0,0.98461538,112,-94.00157)" gradientUnits="userSpaceOnUse" xlink:href="#linearGradient2091"/>
  <linearGradient id="linearGradient3286" x1="28.125" x2="28.125" y1="91.408" y2="38.595" gradientTransform="matrix(1.6,0,0,0.98461538,-12,-94.00157)" gradientUnits="userSpaceOnUse" xlink:href="#linearGradient2091"/>
  <linearGradient id="linearGradient3284" x1="27" x2="27" y1="61.5" y2="9.5" gradientTransform="translate(7,-65.5)" gradientUnits="userSpaceOnUse" xlink:href="#linearGradient2091"/>
  <radialGradient id="radialGradient3280" cx="67.375" cy="52.417" r="5.5" fx="67.375" fy="52.417" gradientTransform="matrix(2.8309353e-7,1.6363638,-1.9999993,3.4600303e-7,170.83329,-55.250032)" gradientUnits="userSpaceOnUse" xlink:href="#linearGradient1013"/>
  <linearGradient id="linearGradient3282" x1="22.5" x2="55" y1="48.751" y2="48.751" gradientTransform="matrix(0,-1.6,-1.5998004,0,143.99264,32)" gradientUnits="userSpaceOnUse" xlink:href="#linearGradient2091"/>
  <radialGradient id="radialGradient3276" cx="34" cy="75.791" r="5.5" fx="34" fy="75.791" gradientTransform="matrix(-2,-2.8792248e-7,2.3557298e-7,-1.6363638,101.99997,179.02244)" gradientUnits="userSpaceOnUse" xlink:href="#linearGradient1013"/>
  <linearGradient id="linearGradient3278" x1="22.5" x2="55" y1="48.751" y2="48.751" gradientTransform="matrix(0,-1.6,1.5998004,0,-43.992635,32)" gradientUnits="userSpaceOnUse" xlink:href="#linearGradient2091"/>
  <linearGradient id="linearGradient3274" x1="59" x2="59" y1="61.5" y2="9.5" gradientTransform="translate(7,-65.5)" gradientUnits="userSpaceOnUse" xlink:href="#linearGradient2091"/>
  <linearGradient id="linearGradient3272" x1="59" x2="59" y1="61.5" y2="9.5" gradientTransform="matrix(-1,0,0,1,93,-65.5)" gradientUnits="userSpaceOnUse" xlink:href="#linearGradient2091"/>
  <linearGradient id="linearGradient3270" x1="105" x2="105" y1="62" y2="10" gradientTransform="matrix(0.49999999,0,0,0.49999999,-39.999999,33.000001)" gradientUnits="userSpaceOnUse" xlink:href="#linearGradient2091"/>
  <linearGradient id="linearGradient1408" x1="45" x2="45" y1="-9" y2="0" gradientUnits="userSpaceOnUse" xlink:href="#linearGradient1013"/>
  <linearGradient id="linearGradient1410" x1="45" x2="45" y1="-9" y2="0" gradientUnits="userSpaceOnUse" xlink:href="#linearGradient1013"/>
  <radialGradient id="radialGradient1458" cx="34" cy="75.791" r="5.5" fx="34" fy="75.791" gradientTransform="matrix(-2,-2.8792248e-7,2.3557298e-7,-1.6363638,101.99997,179.02244)" gradientUnits="userSpaceOnUse" xlink:href="#linearGradient1013"/>
  <radialGradient id="radialGradient1462" cx="67.375" cy="52.417" r="5.5" fx="67.375" fy="52.417" gradientTransform="matrix(2.8309353e-7,1.6363638,-1.9999993,3.4600303e-7,170.83329,-55.250032)" gradientUnits="userSpaceOnUse" xlink:href="#linearGradient1013"/>
  <linearGradient id="linearGradient1472" x1="45" x2="45" y1="-9" y2="0" gradientUnits="userSpaceOnUse" xlink:href="#linearGradient1013"/>
  <linearGradient id="linearGradient1103" x1="105" x2="105" y1="62" y2="10" gradientTransform="matrix(0.49999999,0,0,0.49999999,50.000001,33.000001)" gradientUnits="userSpaceOnUse" xlink:href="#linearGradient3464"/>
  <linearGradient id="linearGradient1105" x1="59" x2="59" y1="61.5" y2="9.5" gradientTransform="matrix(-1,0,0,1,93,-65.5)" gradientUnits="userSpaceOnUse" xlink:href="#linearGradient3464"/>
  <linearGradient id="linearGradient1107" x1="59" x2="59" y1="61.5" y2="9.5" gradientTransform="translate(7,-65.5)" gradientUnits="userSpaceOnUse" xlink:href="#linearGradient3464"/>
  <radialGradient id="radialGradient1109" cx="34" cy="75.791" r="5.5" fx="34" fy="75.791" gradientTransform="matrix(-2,-2.8792248e-7,2.3557298e-7,-1.6363638,101.99997,179.02244)" gradientUnits="userSpaceOnUse" xlink:href="#linearGradient1013"/>
  <linearGradient id="linearGradient1111" x1="22.5" x2="55" y1="48.751" y2="48.751" gradientTransform="matrix(0,-1.6,1.5998004,0,-43.992635,32)" gradientUnits="userSpaceOnUse" xlink:href="#linearGradient3464"/>
  <radialGradient id="radialGradient1113" cx="67.375" cy="52.417" r="5.5" fx="67.375" fy="52.417" gradientTransform="matrix(2.8309353e-7,1.6363638,-1.9999993,3.4600303e-7,170.83329,-55.250032)" gradientUnits="userSpaceOnUse" xlink:href="#linearGradient1013"/>
  <linearGradient id="linearGradient1115" x1="22.5" x2="55" y1="48.751" y2="48.751" gradientTransform="matrix(0,-1.6,-1.5998004,0,143.99264,32)" gradientUnits="userSpaceOnUse" xlink:href="#linearGradient3464"/>
  <linearGradient id="linearGradient1117" x1="27" x2="27" y1="61.5" y2="9.5" gradientTransform="translate(7,-65.5)" gradientUnits="userSpaceOnUse" xlink:href="#linearGradient3464"/>
  <linearGradient id="linearGradient1119" x1="28.125" x2="28.125" y1="91.408" y2="38.595" gradientTransform="matrix(1.6,0,0,0.98461538,-12,-94.00157)" gradientUnits="userSpaceOnUse" xlink:href="#linearGradient3464"/>
  <linearGradient id="linearGradient1121" x1="28.125" x2="28.125" y1="91.408" y2="38.595" gradientTransform="matrix(-1.6,0,0,0.98461538,112,-94.00157)" gradientUnits="userSpaceOnUse" xlink:href="#linearGradient3464"/>
  <linearGradient id="linearGradient1123" x1="45" x2="45" y1="-9" y2="0" gradientUnits="userSpaceOnUse" xlink:href="#linearGradient1013"/>
  <linearGradient id="linearGradient1125" x1="22.5" x2="55" y1="65.002" y2="65.002" gradientTransform="matrix(0,-1.6,0.98461538,0,-14.001575,32)" gradientUnits="userSpaceOnUse" xlink:href="#linearGradient3464"/>
 </defs>
 <g id="toolbutton-hover-top" transform="translate(-24,-42.000002)">
  <path style="opacity:0.00100002" d="M 35,44.000002 H 46 V 55 H 35 Z"/>
  <path id="toolbutton-hover-top2" style="opacity:0.1;fill:#ffffff" d="M 34.999994,45.00001 H 45.999988 V 55.000012 H 34.999994 Z"/>
 </g>
 <g id="toolbutton-hover-left" transform="translate(-24,-42.000002)">
  <path style="opacity:0.00100002" d="M 24,55 H 35 V 66 H 24 Z"/>
  <path id="toolbutton-hover-left2" style="opacity:0.1;fill:#ffffff" d="m 24.999544,55.000012 h 10.00045 v 10.999994 h -10.00045 z"/>
 </g>
 <rect id="toolbutton-hover-center" style="opacity:0.1;fill:#ffffff" width="11" height="11" x="11" y="13"/>
 <g id="toolbutton-hover-right" transform="translate(-24,-42.000002)">
  <path style="opacity:0.00100002" d="M 46,55 H 57 V 66 H 46 Z"/>
  <path id="toolbutton-hover-right2" style="opacity:0.1;fill:#ffffff" d="m 45.999988,55.000016 10.000449,5e-6 v 10.999988 l -10.000449,-3e-6 z"/>
 </g>
 <g id="toolbutton-hover-bottom" transform="translate(-24,-42.000002)">
  <path style="opacity:0.00100002" d="M 35,66 H 46 V 77.000002 H 35 Z"/>
  <path id="toolbutton-hover-bottom2" style="opacity:0.1;fill:#ffffff" d="M 34.999994,76 H 45.999988 V 66.000006 H 34.999994 Z"/>
 </g>
 <g id="toolbutton-hover-topleft" transform="translate(-24,-42.000002)">
  <path style="opacity:0.00100002" d="M 24,44.000002 H 35 V 55 H 24 Z"/>
  <path id="toolbutton-hover-topleft2" style="opacity:0.1;fill:#ffffff" transform="translate(1,43.000002)" d="M 34,2 C 24,2 24,5 24,12 h 10 z"/>
 </g>
 <g id="toolbutton-hover-topright" transform="translate(-24,-42.000002)">
  <path style="opacity:0.00100002" d="M 46,44.000002 H 57 V 55 H 46 Z"/>
  <path id="toolbutton-hover-topright2" style="opacity:0.1;fill:#ffffff" transform="translate(1,43.000002)" d="M 45,2 V 12 H 55 C 55,5 55,2 45,2 Z"/>
 </g>
 <g id="toolbutton-hover-bottomleft" transform="translate(-24,-42.000002)">
  <path style="opacity:0.00100002" d="M 24,66 H 35 V 77.000002 H 24 Z"/>
  <path id="toolbutton-hover-bottomleft2" style="opacity:0.1;fill:#ffffff" transform="translate(1,43.000002)" d="m 24,23 c 0,10 3,10 10,10 V 23 Z"/>
 </g>
 <g id="toolbutton-hover-bottomright" transform="translate(-24,-42.000002)">
  <path style="opacity:0.00100002" d="M 46,66 H 57 V 77.000002 H 46 Z"/>
  <path id="toolbutton-hover-bottomright2" style="opacity:0.1;fill:#ffffff" transform="translate(1,43.000002)" d="m 45,23 v 10 c 7,0 10,0 10,-10 z"/>
 </g>
 <g id="toolbutton-pressed-top" transform="translate(16,-42)">
  <path id="rect1034-3" style="opacity:0.00100002" d="M 35,44 H 46 V 55 H 35 Z"/>
  <path id="toolbutton-pressed-top2" style="opacity:0.2;fill:#ffffff" d="M 34.999994,45.000008 H 45.999988 V 55.000012 H 34.999994 Z"/>
 </g>
 <g id="toolbutton-pressed-left" transform="translate(16,-42)">
  <path id="rect1019-6" style="opacity:0.00100002" d="M 24,55 H 35 V 66 H 24 Z"/>
  <path id="toolbutton-pressed-left2" style="opacity:0.2;fill:#ffffff" d="m 24.999544,55.000012 h 10.00045 v 10.999994 h -10.00045 z"/>
 </g>
 <rect id="toolbutton-pressed-center" style="opacity:0.2;fill:#ffffff" width="11" height="11" x="51" y="13"/>
 <g id="toolbutton-pressed-right" transform="translate(16,-42)">
  <path id="rect1029-7" style="opacity:0.00100002" d="M 46,55 H 57 V 66 H 46 Z"/>
  <path id="toolbutton-pressed-right2" style="opacity:0.2;fill:#ffffff" d="m 45.999988,55.000016 10.000449,5e-6 v 10.999988 l -10.000449,-3e-6 z"/>
 </g>
 <g id="toolbutton-pressed-bottom" transform="translate(16,-42)">
  <path id="rect1025-5" style="opacity:0.00100002" d="M 35,66 H 46 V 77 H 35 Z"/>
  <path id="toolbutton-pressed-bottom2" style="opacity:0.2;fill:#ffffff" d="M 34.999994,75.999999 H 45.999988 V 66.000006 H 34.999994 Z"/>
 </g>
 <g id="toolbutton-pressed-topleft" transform="translate(16,-42)">
  <path id="rect1017-3" style="opacity:0.00100002" d="M 24,44 H 35 V 55 H 24 Z"/>
  <path id="toolbutton-pressed-topleft2" style="opacity:0.2;fill:#ffffff" transform="translate(1,1)" d="M 34,44 C 27,44 24,44 24,54 H 34 Z"/>
 </g>
 <g id="toolbutton-pressed-topright" transform="translate(16,-42)">
  <path id="rect1032-5" style="opacity:0.00100002" d="M 46,44 H 57 V 55 H 46 Z"/>
  <path id="toolbutton-pressed-topright2" style="opacity:0.2;fill:#ffffff" transform="translate(1,1)" d="M 45,44 V 54 H 55 C 55,44 52,44 45,44 Z"/>
 </g>
 <g id="toolbutton-pressed-bottomleft" transform="translate(16,-42)">
  <path id="rect1021-6" style="opacity:0.00100002" d="M 24,66 H 35 V 77 H 24 Z"/>
  <path id="toolbutton-pressed-bottomleft2" style="opacity:0.2;fill:#ffffff" transform="translate(1,1)" d="m 24,65 c 0,10 3,10 10,10 V 65 Z"/>
 </g>
 <g id="toolbutton-pressed-bottomright" transform="translate(16,-42)">
  <path id="rect1027-2" style="opacity:0.00100002" d="M 46,66 H 57 V 77 H 46 Z"/>
  <path id="toolbutton-pressed-bottomright2" style="opacity:0.2;fill:#ffffff" transform="translate(1,1)" d="m 45,65 v 10 c 7,0 10,0 10,-10 z"/>
 </g>
 <rect id="toolbutton-pressed-hint-left-margin" style="opacity:1;fill:#ff0000;stroke-width:0.6123724" width="1" height="3" x="-19" y="40" transform="rotate(-90)"/>
 <rect id="toolbutton-pressed-hint-top-margin" style="opacity:1;fill:#ff0000;stroke-width:0.6123724" width="1" height="3" x="56" y="2"/>
 <rect id="toolbutton-pressed-hint-right-margin" style="opacity:1;fill:#ff0000;stroke-width:0.6123724" width="1" height="3" x="-19" y="70" transform="rotate(-90)"/>
 <rect id="toolbutton-pressed-hint-bottom-margin" style="opacity:1;fill:#ff0000;stroke-width:0.6123724" width="1" height="3" x="56" y="32"/>
 <rect id="toolbutton-hover-hint-left-margin" style="opacity:1;fill:#ff0000;stroke-width:0.6123724" width="1" height="3" x="-19" y="0" transform="rotate(-90)"/>
 <rect id="toolbutton-hover-hint-top-margin" style="opacity:1;fill:#ff0000;stroke-width:0.6123724" width="1" height="3" x="16" y="2"/>
 <rect id="toolbutton-hover-hint-right-margin" style="opacity:1;fill:#ff0000;stroke-width:0.6123724" width="1" height="3" x="-19" y="30" transform="rotate(-90)"/>
 <rect id="toolbutton-hover-hint-bottom-margin" style="opacity:1;fill:#ff0000;stroke-width:0.61237228" width="1" height="3" x="16" y="32"/>
 <path id="normal-center" style="fill:url(#linearGradient3270);fill-opacity:1;fill-rule:evenodd;stroke-width:0.5" d="M 5.5000002,43 V 59 H 21.5 V 43 Z"/>
 <g id="normal-topleft" transform="matrix(0.49999999,0,0,0.49999999,-11.5,66)">
  <path style="fill:url(#linearGradient3272);fill-opacity:1;fill-rule:evenodd" d="m 34,-56 c -5.75,0 -10,4.25 -10,10 h 10 z"/>
  <path style="color:#000000;font-style:normal;font-variant:normal;font-weight:normal;font-stretch:normal;font-size:medium;line-height:normal;font-family:sans-serif;font-variant-ligatures:normal;font-variant-position:normal;font-variant-caps:normal;font-variant-numeric:normal;font-variant-alternates:normal;font-feature-settings:normal;text-indent:0;text-align:start;text-decoration:none;text-decoration-line:none;text-decoration-style:solid;text-decoration-color:#000000;letter-spacing:normal;word-spacing:normal;text-transform:none;writing-mode:lr-tb;direction:ltr;text-orientation:mixed;dominant-baseline:auto;baseline-shift:baseline;text-anchor:start;white-space:normal;shape-padding:0;clip-rule:nonzero;display:inline;overflow:visible;visibility:visible;opacity:0.4;isolation:auto;mix-blend-mode:normal;color-interpolation:sRGB;color-interpolation-filters:linearRGB;solid-color:#000000;solid-opacity:1;vector-effect:none;fill:#000000;fill-opacity:0.99193552;fill-rule:evenodd;stroke:none;stroke-width:2;stroke-linecap:butt;stroke-linejoin:miter;stroke-miterlimit:4;stroke-dasharray:none;stroke-dashoffset:0;stroke-opacity:1;color-rendering:auto;image-rendering:auto;shape-rendering:auto;text-rendering:auto;enable-background:accumulate" d="m 34,-57 c -6.242754,0 -11,4.757246 -11,11 h 1 c 0,-5.75 4.25,-10 10,-10 z"/>
 </g>
 <g id="normal-topright" transform="matrix(0.49999999,0,0,0.49999999,-11.5,66)">
  <path style="fill:url(#linearGradient3274);fill-opacity:1;fill-rule:evenodd" d="m 66,-56 c 5.75,0 10,4.25 10,10 H 66 Z"/>
  <path style="color:#000000;font-style:normal;font-variant:normal;font-weight:normal;font-stretch:normal;font-size:medium;line-height:normal;font-family:sans-serif;font-variant-ligatures:normal;font-variant-position:normal;font-variant-caps:normal;font-variant-numeric:normal;font-variant-alternates:normal;font-feature-settings:normal;text-indent:0;text-align:start;text-decoration:none;text-decoration-line:none;text-decoration-style:solid;text-decoration-color:#000000;letter-spacing:normal;word-spacing:normal;text-transform:none;writing-mode:lr-tb;direction:ltr;text-orientation:mixed;dominant-baseline:auto;baseline-shift:baseline;text-anchor:start;white-space:normal;shape-padding:0;clip-rule:nonzero;display:inline;overflow:visible;visibility:visible;opacity:0.4;isolation:auto;mix-blend-mode:normal;color-interpolation:sRGB;color-interpolation-filters:linearRGB;solid-color:#000000;solid-opacity:1;vector-effect:none;fill:#000000;fill-opacity:0.99193552;fill-rule:evenodd;stroke:none;stroke-width:2;stroke-linecap:butt;stroke-linejoin:miter;stroke-miterlimit:4;stroke-dasharray:none;stroke-dashoffset:0;stroke-opacity:1;color-rendering:auto;image-rendering:auto;shape-rendering:auto;text-rendering:auto;enable-background:accumulate" d="m 66.000001,-57 c 6.242754,0 11,4.757246 11,11 h -1 c 0,-5.75 -4.25,-10 -10,-10 z"/>
 </g>
 <g id="normal-bottomleft" transform="matrix(0.49999999,0,0,0.49999999,-11.5,66)">
  <path style="color:#000000;font-style:normal;font-variant:normal;font-weight:normal;font-stretch:normal;font-size:medium;line-height:normal;font-family:sans-serif;font-variant-ligatures:normal;font-variant-position:normal;font-variant-caps:normal;font-variant-numeric:normal;font-variant-alternates:normal;font-feature-settings:normal;text-indent:0;text-align:start;text-decoration:none;text-decoration-line:none;text-decoration-style:solid;text-decoration-color:#000000;letter-spacing:normal;word-spacing:normal;text-transform:none;writing-mode:lr-tb;direction:ltr;text-orientation:mixed;dominant-baseline:auto;baseline-shift:baseline;text-anchor:start;white-space:normal;shape-padding:0;clip-rule:nonzero;display:inline;overflow:visible;visibility:visible;opacity:1;isolation:auto;mix-blend-mode:normal;color-interpolation:sRGB;color-interpolation-filters:linearRGB;solid-color:#000000;solid-opacity:1;vector-effect:none;fill:url(#radialGradient3276);fill-opacity:1;fill-rule:evenodd;stroke:none;stroke-width:2;stroke-linecap:butt;stroke-linejoin:miter;stroke-miterlimit:4;stroke-dasharray:none;stroke-dashoffset:0;stroke-opacity:1;color-rendering:auto;image-rendering:auto;shape-rendering:auto;text-rendering:auto;enable-background:accumulate" transform="translate(0,-64)" d="m 23,50 v 12 h 11 v -2 c -5.75045,8e-5 -10,-4.25016 -10,-10 z"/>
  <path style="fill:url(#linearGradient3278);fill-opacity:1;fill-rule:evenodd;stroke-width:1.59990025" d="M 24,-13.99984 C 24,-8.25 28.24955,-4 34,-4.00008 v -9.99976 z"/>
  <path style="color:#000000;font-style:normal;font-variant:normal;font-weight:normal;font-stretch:normal;font-size:medium;line-height:normal;font-family:sans-serif;font-variant-ligatures:normal;font-variant-position:normal;font-variant-caps:normal;font-variant-numeric:normal;font-variant-alternates:normal;font-feature-settings:normal;text-indent:0;text-align:start;text-decoration:none;text-decoration-line:none;text-decoration-style:solid;text-decoration-color:#000000;letter-spacing:normal;word-spacing:normal;text-transform:none;writing-mode:lr-tb;direction:ltr;text-orientation:mixed;dominant-baseline:auto;baseline-shift:baseline;text-anchor:start;white-space:normal;shape-padding:0;clip-rule:nonzero;display:inline;overflow:visible;visibility:visible;opacity:0.4;isolation:auto;mix-blend-mode:normal;color-interpolation:sRGB;color-interpolation-filters:linearRGB;solid-color:#000000;solid-opacity:1;vector-effect:none;fill:#000000;fill-opacity:1;fill-rule:evenodd;stroke:none;stroke-width:2;stroke-linecap:butt;stroke-linejoin:miter;stroke-miterlimit:4;stroke-dasharray:none;stroke-dashoffset:0;stroke-opacity:1;color-rendering:auto;image-rendering:auto;shape-rendering:auto;text-rendering:auto;enable-background:accumulate" d="M 34,-3 C 27.757246,-3 23,-7.757246 23,-14 h 1 c 0,5.75 4.25,10 10,10 z"/>
 </g>
 <g id="normal-bottomright" transform="matrix(0.49999999,0,0,0.49999999,-11.5,66)">
  <path style="color:#000000;font-style:normal;font-variant:normal;font-weight:normal;font-stretch:normal;font-size:medium;line-height:normal;font-family:sans-serif;font-variant-ligatures:normal;font-variant-position:normal;font-variant-caps:normal;font-variant-numeric:normal;font-variant-alternates:normal;font-feature-settings:normal;text-indent:0;text-align:start;text-decoration:none;text-decoration-line:none;text-decoration-style:solid;text-decoration-color:#000000;letter-spacing:normal;word-spacing:normal;text-transform:none;writing-mode:lr-tb;direction:ltr;text-orientation:mixed;dominant-baseline:auto;baseline-shift:baseline;text-anchor:start;white-space:normal;shape-padding:0;clip-rule:nonzero;display:inline;overflow:visible;visibility:visible;opacity:1;isolation:auto;mix-blend-mode:normal;color-interpolation:sRGB;color-interpolation-filters:linearRGB;solid-color:#000000;solid-opacity:1;vector-effect:none;fill:url(#radialGradient3280);fill-opacity:1;fill-rule:evenodd;stroke:none;stroke-width:2;stroke-linecap:butt;stroke-linejoin:miter;stroke-miterlimit:4;stroke-dasharray:none;stroke-dashoffset:0;stroke-opacity:1;color-rendering:auto;image-rendering:auto;shape-rendering:auto;text-rendering:auto;enable-background:accumulate" transform="translate(0,-64)" d="M 75.953125,51 C 75.490741,56.235624 71.411552,60.000075 66,60 v 2 h 11 c 0,0 0,-7.861594 0,-11 -0.348958,0 -0.697917,0 -1.046875,0 z"/>
  <path style="fill:url(#linearGradient3282);fill-opacity:1;fill-rule:evenodd;stroke-width:1.59990025" d="M 76,-13.99984 C 76,-8.25 71.75045,-4 66,-4.00008 v -9.99976 z"/>
  <path style="color:#000000;font-style:normal;font-variant:normal;font-weight:normal;font-stretch:normal;font-size:medium;line-height:normal;font-family:sans-serif;font-variant-ligatures:normal;font-variant-position:normal;font-variant-caps:normal;font-variant-numeric:normal;font-variant-alternates:normal;font-feature-settings:normal;text-indent:0;text-align:start;text-decoration:none;text-decoration-line:none;text-decoration-style:solid;text-decoration-color:#000000;letter-spacing:normal;word-spacing:normal;text-transform:none;writing-mode:lr-tb;direction:ltr;text-orientation:mixed;dominant-baseline:auto;baseline-shift:baseline;text-anchor:start;white-space:normal;shape-padding:0;clip-rule:nonzero;display:inline;overflow:visible;visibility:visible;opacity:0.4;isolation:auto;mix-blend-mode:normal;color-interpolation:sRGB;color-interpolation-filters:linearRGB;solid-color:#000000;solid-opacity:1;vector-effect:none;fill:#000000;fill-opacity:1;fill-rule:evenodd;stroke:none;stroke-width:2;stroke-linecap:butt;stroke-linejoin:miter;stroke-miterlimit:4;stroke-dasharray:none;stroke-dashoffset:0;stroke-opacity:1;color-rendering:auto;image-rendering:auto;shape-rendering:auto;text-rendering:auto;enable-background:accumulate" d="m 66.000001,-3 c 6.242754,0 11,-4.757246 11,-11 h -1 c 0,5.75 -4.25,10 -10,10 z"/>
 </g>
 <g id="normal-top" transform="matrix(0.49999999,0,0,0.49999999,-11.5,66)">
  <path style="fill:url(#linearGradient3284);fill-opacity:1;fill-rule:evenodd" d="M 34,-46 H 66 V -56 H 34 Z"/>
  <rect style="opacity:0.4;fill:#000000;fill-opacity:1;fill-rule:nonzero;stroke:none;stroke-width:2;stroke-linecap:round;stroke-linejoin:round;stroke-miterlimit:4;stroke-dasharray:none;stroke-opacity:0.99193552" width="32" height="1" x="34" y="-57"/>
 </g>
 <g id="normal-left" transform="matrix(0.49999999,0,0,0.49999999,-11.5,66)">
  <path style="fill:url(#linearGradient3286);fill-opacity:1;fill-rule:evenodd;stroke-width:1.25514328" d="M 34,-14.000192 V -45.999995 H 24 v 32 z"/>
  <rect style="opacity:0.4;fill:#000000;fill-opacity:1;fill-rule:nonzero;stroke:none;stroke-width:2;stroke-linecap:round;stroke-linejoin:round;stroke-miterlimit:4;stroke-dasharray:none;stroke-opacity:0.99193552" width="32" height="1" x="-46" y="-24" transform="rotate(90)"/>
 </g>
 <g id="normal-right" transform="matrix(0.49999999,0,0,0.49999999,-11.5,66)">
  <path style="fill:url(#linearGradient3288);fill-opacity:1;fill-rule:evenodd;stroke-width:1.25514328" d="m 66,-14.000192 v -31.999803 h 10 v 32 z"/>
  <rect style="opacity:0.4;fill:#000000;fill-opacity:1;fill-rule:nonzero;stroke:none;stroke-width:2;stroke-linecap:round;stroke-linejoin:round;stroke-miterlimit:4;stroke-dasharray:none;stroke-opacity:0.99193552" width="32" height="1" x="-46" y="-77" transform="rotate(90)"/>
 </g>
 <g id="normal-bottom" transform="matrix(0.49999999,0,0,0.49999999,-11.5,66)">
  <path style="opacity:1;fill:url(#linearGradient1408);fill-opacity:1;fill-rule:nonzero;stroke:none;stroke-width:2;stroke-linecap:round;stroke-linejoin:round;stroke-miterlimit:4;stroke-dasharray:none;stroke-opacity:0.99193552" d="m 34,-4 h 32 v 2 H 34 Z"/>
  <path style="fill:url(#linearGradient3292);fill-opacity:1;fill-rule:evenodd;stroke-width:1.25514328" d="M 65.999803,-14 H 34 v 10 h 32 z"/>
  <rect style="opacity:0.4;fill:#000000;fill-opacity:1;fill-rule:nonzero;stroke:none;stroke-width:2;stroke-linecap:round;stroke-linejoin:round;stroke-miterlimit:4;stroke-dasharray:none;stroke-opacity:0.99193552" width="32" height="1" x="34" y="-4"/>
 </g>
 <path id="hover-center" style="fill:#ffffff;fill-opacity:1;fill-rule:evenodd;stroke-width:0.5;opacity:0.07" d="M 35,43 V 59 H 51 V 43 Z"/>
 <g id="hover-topleft" transform="matrix(0.5,0,0,0.5,18,66)">
  <path style="fill:#ffffff;fill-opacity:1;fill-rule:evenodd;opacity:0.07" d="m 34,-56 c -5.75,0 -10,4.25 -10,10 h 10 z"/>
 </g>
 <g id="hover-topright" transform="matrix(0.5,0,0,0.5,18,66)">
  <path style="fill:#ffffff;fill-opacity:1;fill-rule:evenodd;opacity:0.07" d="m 66,-56 c 5.75,0 10,4.25 10,10 H 66 Z"/>
 </g>
 <g id="hover-bottomleft" transform="matrix(0.5,0,0,0.5,18,66)">
  <path style="color:#000000;font-style:normal;font-variant:normal;font-weight:normal;font-stretch:normal;font-size:medium;line-height:normal;font-family:sans-serif;font-variant-ligatures:normal;font-variant-position:normal;font-variant-caps:normal;font-variant-numeric:normal;font-variant-alternates:normal;font-feature-settings:normal;text-indent:0;text-align:start;text-decoration:none;text-decoration-line:none;text-decoration-style:solid;text-decoration-color:#000000;letter-spacing:normal;word-spacing:normal;text-transform:none;writing-mode:lr-tb;direction:ltr;text-orientation:mixed;dominant-baseline:auto;baseline-shift:baseline;text-anchor:start;white-space:normal;shape-padding:0;clip-rule:nonzero;display:inline;overflow:visible;visibility:visible;opacity:0.5;isolation:auto;mix-blend-mode:normal;color-interpolation:sRGB;color-interpolation-filters:linearRGB;solid-color:#000000;solid-opacity:1;vector-effect:none;fill:url(#radialGradient3356);fill-opacity:1;fill-rule:evenodd;stroke:none;stroke-width:2;stroke-linecap:butt;stroke-linejoin:miter;stroke-miterlimit:4;stroke-dasharray:none;stroke-dashoffset:0;stroke-opacity:1;color-rendering:auto;image-rendering:auto;shape-rendering:auto;text-rendering:auto;enable-background:accumulate" transform="translate(0,-64)" d="m 24,50 v 12 h 10 v -2 c -5.75045,8e-5 -10,-4.25016 -10,-10 z"/>
  <path style="fill:#ffffff;fill-opacity:1;fill-rule:evenodd;stroke-width:1.59990025;opacity:0.07" d="M 24,-13.99984 C 24,-8.25 28.24955,-4 34,-4.00008 v -9.99976 z"/>
 </g>
 <g id="hover-bottomright" transform="matrix(0.5,0,0,0.5,18,66)">
  <path style="color:#000000;font-style:normal;font-variant:normal;font-weight:normal;font-stretch:normal;font-size:medium;line-height:normal;font-family:sans-serif;font-variant-ligatures:normal;font-variant-position:normal;font-variant-caps:normal;font-variant-numeric:normal;font-variant-alternates:normal;font-feature-settings:normal;text-indent:0;text-align:start;text-decoration:none;text-decoration-line:none;text-decoration-style:solid;text-decoration-color:#000000;letter-spacing:normal;word-spacing:normal;text-transform:none;writing-mode:lr-tb;direction:ltr;text-orientation:mixed;dominant-baseline:auto;baseline-shift:baseline;text-anchor:start;white-space:normal;shape-padding:0;clip-rule:nonzero;display:inline;overflow:visible;visibility:visible;opacity:0.5;isolation:auto;mix-blend-mode:normal;color-interpolation:sRGB;color-interpolation-filters:linearRGB;solid-color:#000000;solid-opacity:1;vector-effect:none;fill:url(#radialGradient3360);fill-opacity:1;fill-rule:evenodd;stroke:none;stroke-width:2;stroke-linecap:butt;stroke-linejoin:miter;stroke-miterlimit:4;stroke-dasharray:none;stroke-dashoffset:0;stroke-opacity:1;color-rendering:auto;image-rendering:auto;shape-rendering:auto;text-rendering:auto;enable-background:accumulate" transform="translate(0,-64)" d="M 75.953125,51 C 75.490741,56.235624 71.411552,60.000075 66,60 v 2 H 76 V 51 Z"/>
  <path style="fill:#ffffff;fill-opacity:1;fill-rule:evenodd;stroke-width:1.59990025;opacity:0.07" d="M 76,-13.99984 C 76,-8.25 71.75045,-4 66,-4.00008 v -9.99976 z"/>
 </g>
 <g id="hover-top" transform="matrix(0.5,0,0,0.5,18,66)">
  <path style="fill:#ffffff;fill-opacity:1;fill-rule:evenodd;opacity:0.07" d="M 34,-46 H 66 V -56 H 34 Z"/>
 </g>
 <g id="hover-left" transform="matrix(0.5,0,0,0.5,18,66)">
  <path style="fill:#ffffff;fill-opacity:1;fill-rule:evenodd;stroke-width:1.25514328;opacity:0.07" d="M 34,-14.000192 V -45.999995 H 24 v 32 z"/>
 </g>
 <g id="hover-right" transform="matrix(0.5,0,0,0.5,18,66)">
  <path style="fill:#ffffff;fill-opacity:1;fill-rule:evenodd;stroke-width:1.25514328;opacity:0.07" d="m 66,-14.000192 v -31.999803 h 10 v 32 z"/>
 </g>
 <g id="hover-bottom" transform="matrix(0.5,0,0,0.5,18,66)">
  <path style="opacity:0.5;fill:url(#linearGradient1410);fill-opacity:1;fill-rule:nonzero;stroke:none;stroke-width:2;stroke-linecap:round;stroke-linejoin:round;stroke-miterlimit:4;stroke-dasharray:none;stroke-opacity:0.99193552" d="m 34,-4 h 32 v 2 H 34 Z"/>
  <path style="fill:#ffffff;fill-opacity:1;fill-rule:evenodd;stroke-width:1.25514328;opacity:0.07" d="M 65.999803,-14 H 34 v 10 h 32 z"/>
 </g>
 <path id="focus-center" style="fill:#ffffff;fill-opacity:1;fill-rule:evenodd;stroke-width:0.5;opacity:0.07" d="M 65,43 V 59 H 81 V 43 Z"/>
 <g id="focus-topleft" transform="matrix(0.5,0,0,0.5,48,66)">
  <path style="fill:#ffffff;fill-opacity:1;fill-rule:evenodd;opacity:0.07" d="m 34,-56 c -5.75,0 -10,4.25 -10,10 h 10 z"/>
 </g>
 <g id="focus-topright" transform="matrix(0.5,0,0,0.5,48,66)">
  <path style="fill:#ffffff;fill-opacity:1;fill-rule:evenodd;opacity:0.07" d="m 66,-56 c 5.75,0 10,4.25 10,10 H 66 Z"/>
 </g>
 <g id="focus-bottomleft" transform="matrix(0.5,0,0,0.5,48,66)">
  <path style="color:#000000;font-style:normal;font-variant:normal;font-weight:normal;font-stretch:normal;font-size:medium;line-height:normal;font-family:sans-serif;font-variant-ligatures:normal;font-variant-position:normal;font-variant-caps:normal;font-variant-numeric:normal;font-variant-alternates:normal;font-feature-settings:normal;text-indent:0;text-align:start;text-decoration:none;text-decoration-line:none;text-decoration-style:solid;text-decoration-color:#000000;letter-spacing:normal;word-spacing:normal;text-transform:none;writing-mode:lr-tb;direction:ltr;text-orientation:mixed;dominant-baseline:auto;baseline-shift:baseline;text-anchor:start;white-space:normal;shape-padding:0;clip-rule:nonzero;display:inline;overflow:visible;visibility:visible;opacity:0.5;isolation:auto;mix-blend-mode:normal;color-interpolation:sRGB;color-interpolation-filters:linearRGB;solid-color:#000000;solid-opacity:1;vector-effect:none;fill:url(#radialGradient1458);fill-opacity:1;fill-rule:evenodd;stroke:none;stroke-width:2;stroke-linecap:butt;stroke-linejoin:miter;stroke-miterlimit:4;stroke-dasharray:none;stroke-dashoffset:0;stroke-opacity:1;color-rendering:auto;image-rendering:auto;shape-rendering:auto;text-rendering:auto;enable-background:accumulate" transform="translate(0,-64)" d="m 24,50 v 12 h 10 v -2 c -5.75045,8e-5 -10,-4.25016 -10,-10 z"/>
  <path style="fill:#ffffff;fill-opacity:1;fill-rule:evenodd;stroke-width:1.59990025;opacity:0.07" d="M 24,-13.99984 C 24,-8.25 28.24955,-4 34,-4.00008 v -9.99976 z"/>
 </g>
 <g id="focus-bottomright" transform="matrix(0.5,0,0,0.5,48,66)">
  <path style="color:#000000;font-style:normal;font-variant:normal;font-weight:normal;font-stretch:normal;font-size:medium;line-height:normal;font-family:sans-serif;font-variant-ligatures:normal;font-variant-position:normal;font-variant-caps:normal;font-variant-numeric:normal;font-variant-alternates:normal;font-feature-settings:normal;text-indent:0;text-align:start;text-decoration:none;text-decoration-line:none;text-decoration-style:solid;text-decoration-color:#000000;letter-spacing:normal;word-spacing:normal;text-transform:none;writing-mode:lr-tb;direction:ltr;text-orientation:mixed;dominant-baseline:auto;baseline-shift:baseline;text-anchor:start;white-space:normal;shape-padding:0;clip-rule:nonzero;display:inline;overflow:visible;visibility:visible;opacity:0.5;isolation:auto;mix-blend-mode:normal;color-interpolation:sRGB;color-interpolation-filters:linearRGB;solid-color:#000000;solid-opacity:1;vector-effect:none;fill:url(#radialGradient1462);fill-opacity:1;fill-rule:evenodd;stroke:none;stroke-width:2;stroke-linecap:butt;stroke-linejoin:miter;stroke-miterlimit:4;stroke-dasharray:none;stroke-dashoffset:0;stroke-opacity:1;color-rendering:auto;image-rendering:auto;shape-rendering:auto;text-rendering:auto;enable-background:accumulate" transform="translate(0,-64)" d="M 75.953125,51 C 75.490741,56.235624 71.411552,60.000075 66,60 v 2 H 76 V 51 Z"/>
  <path style="fill:#ffffff;fill-opacity:1;fill-rule:evenodd;stroke-width:1.59990025;opacity:0.07" d="M 76,-13.99984 C 76,-8.25 71.75045,-4 66,-4.00008 v -9.99976 z"/>
 </g>
 <g id="focus-top" transform="matrix(0.5,0,0,0.5,48,66)">
  <path style="fill:#ffffff;fill-opacity:1;fill-rule:evenodd;opacity:0.07" d="M 34,-46 H 66 V -56 H 34 Z"/>
 </g>
 <g id="focus-left" transform="matrix(0.5,0,0,0.5,48,66)">
  <path style="fill:#ffffff;fill-opacity:1;fill-rule:evenodd;stroke-width:1.25514328;opacity:0.07" d="M 34,-14.000192 V -45.999995 H 24 v 32 z"/>
 </g>
 <g id="focus-right" transform="matrix(0.5,0,0,0.5,48,66)">
  <path style="fill:#ffffff;fill-opacity:1;fill-rule:evenodd;stroke-width:1.25514328;opacity:0.07" d="m 66,-14.000192 v -31.999803 h 10 v 32 z"/>
 </g>
 <g id="focus-bottom" transform="matrix(0.5,0,0,0.5,48,66)">
  <path style="opacity:0.5;fill:url(#linearGradient1472);fill-opacity:1;fill-rule:nonzero;stroke:none;stroke-width:2;stroke-linecap:round;stroke-linejoin:round;stroke-miterlimit:4;stroke-dasharray:none;stroke-opacity:0.99193552" d="m 34,-4 h 32 v 2 H 34 Z"/>
  <path style="fill:#ffffff;fill-opacity:1;fill-rule:evenodd;stroke-width:1.25514328;opacity:0.07" d="M 65.999803,-14 H 34 v 10 h 32 z"/>
 </g>
 <rect id="normal-hint-top-margin" style="opacity:1;fill:#ff0000;stroke-width:0.95742708" width="1" height="5.5" x="13" y="37.5"/>
 <rect id="normal-hint-right-margin" style="opacity:1;fill:#ff0000;stroke-width:0.95742708" width="1" height="5.5" x="-51" y="21.5" transform="rotate(-90)"/>
 <rect id="normal-hint-left-margin" style="opacity:1;fill:#ff0000;stroke-width:0.95742708" width="1" height="5.5" x="-51.5" y="0" transform="rotate(-90)"/>
 <rect id="normal-hint-bottom-margin" style="opacity:1;fill:#ff0000;stroke-width:1" width="1" height="6" x="13" y="59"/>
 <rect id="hover-hint-top-margin" style="opacity:1;fill:#ff0000;stroke-width:0.5" width="1" height=".1" x="42.5" y="38"/>
 <rect id="hover-hint-left-margin" style="opacity:1;fill:#ff0000;stroke-width:0.5" width="1" height=".1" x="-51.5" y="30" transform="rotate(-90)"/>
 <rect id="hover-hint-bottom-margin" style="opacity:1;fill:#ff0000;stroke-width:0.40824831" width="1" height=".1" x="42.5" y="63.9"/>
 <rect id="hover-hint-right-margin" style="opacity:1;fill:#ff0000;stroke-width:0.49999997" width="1" height=".1" x="-51.5" y="55.9" transform="rotate(-90)"/>
 <rect id="hint-stretch-borders" style="opacity:1;fill:#ff0000" width="2" height="2" x="0" y="0" ry="0"/>
 <rect id="focus-hint-top-margin" style="opacity:1;fill:#ff0000;stroke-width:0.49999997" width="1" height=".1" x="72.5" y="38"/>
 <rect id="focus-hint-left-margin" style="opacity:1;fill:#ff0000;stroke-width:0.5" width="1" height=".1" x="-51.5" y="60" transform="rotate(-90)"/>
 <rect id="focus-hint-bottom-margin" style="opacity:1;fill:#ff0000;stroke-width:0.40824828" width="1" height=".1" x="72.5" y="63.9"/>
 <rect id="focus-hint-right-margin" style="opacity:1;fill:#ff0000;stroke-width:0.49999997" width="1" height=".1" x="-51.5" y="85.9" transform="rotate(-90)"/>
 <path id="pressed-center" style="fill:url(#linearGradient1103);fill-opacity:1;fill-rule:evenodd;stroke-width:0.5" d="m 95.5,43 v 16 h 16 V 43 Z"/>
 <g id="pressed-topleft" transform="matrix(0.49999999,0,0,0.49999999,78.5,66)">
  <path style="fill:url(#linearGradient1105);fill-opacity:1;fill-rule:evenodd" d="m 34,-56 c -5.75,0 -10,4.25 -10,10 h 10 z"/>
  <path style="color:#000000;font-style:normal;font-variant:normal;font-weight:normal;font-stretch:normal;font-size:medium;line-height:normal;font-family:sans-serif;font-variant-ligatures:normal;font-variant-position:normal;font-variant-caps:normal;font-variant-numeric:normal;font-variant-alternates:normal;font-feature-settings:normal;text-indent:0;text-align:start;text-decoration:none;text-decoration-line:none;text-decoration-style:solid;text-decoration-color:#000000;letter-spacing:normal;word-spacing:normal;text-transform:none;writing-mode:lr-tb;direction:ltr;text-orientation:mixed;dominant-baseline:auto;baseline-shift:baseline;text-anchor:start;white-space:normal;shape-padding:0;clip-rule:nonzero;display:inline;overflow:visible;visibility:visible;opacity:0.00100002;isolation:auto;mix-blend-mode:normal;color-interpolation:sRGB;color-interpolation-filters:linearRGB;solid-color:#000000;solid-opacity:1;vector-effect:none;fill:#000000;fill-opacity:1;fill-rule:evenodd;stroke:none;stroke-width:2;stroke-linecap:butt;stroke-linejoin:miter;stroke-miterlimit:4;stroke-dasharray:none;stroke-dashoffset:0;stroke-opacity:1;color-rendering:auto;image-rendering:auto;shape-rendering:auto;text-rendering:auto;enable-background:accumulate" d="m 34,-57 c -6.242754,0 -11,4.757246 -11,11 h 1 c 0,-5.75 4.25,-10 10,-10 z"/>
 </g>
 <g id="pressed-topright" transform="matrix(0.49999999,0,0,0.49999999,78.5,66)">
  <path style="fill:url(#linearGradient1107);fill-opacity:1;fill-rule:evenodd" d="m 66,-56 c 5.75,0 10,4.25 10,10 H 66 Z"/>
  <path style="color:#000000;font-style:normal;font-variant:normal;font-weight:normal;font-stretch:normal;font-size:medium;line-height:normal;font-family:sans-serif;font-variant-ligatures:normal;font-variant-position:normal;font-variant-caps:normal;font-variant-numeric:normal;font-variant-alternates:normal;font-feature-settings:normal;text-indent:0;text-align:start;text-decoration:none;text-decoration-line:none;text-decoration-style:solid;text-decoration-color:#000000;letter-spacing:normal;word-spacing:normal;text-transform:none;writing-mode:lr-tb;direction:ltr;text-orientation:mixed;dominant-baseline:auto;baseline-shift:baseline;text-anchor:start;white-space:normal;shape-padding:0;clip-rule:nonzero;display:inline;overflow:visible;visibility:visible;opacity:0.00100002;isolation:auto;mix-blend-mode:normal;color-interpolation:sRGB;color-interpolation-filters:linearRGB;solid-color:#000000;solid-opacity:1;vector-effect:none;fill:#000000;fill-opacity:1;fill-rule:evenodd;stroke:none;stroke-width:2;stroke-linecap:butt;stroke-linejoin:miter;stroke-miterlimit:4;stroke-dasharray:none;stroke-dashoffset:0;stroke-opacity:1;color-rendering:auto;image-rendering:auto;shape-rendering:auto;text-rendering:auto;enable-background:accumulate" d="m 66.000001,-57 c 6.242754,0 11,4.757246 11,11 h -1 c 0,-5.75 -4.25,-10 -10,-10 z"/>
 </g>
 <g id="pressed-bottomleft" transform="matrix(0.49999999,0,0,0.49999999,78.5,66)">
  <path style="color:#000000;font-style:normal;font-variant:normal;font-weight:normal;font-stretch:normal;font-size:medium;line-height:normal;font-family:sans-serif;font-variant-ligatures:normal;font-variant-position:normal;font-variant-caps:normal;font-variant-numeric:normal;font-variant-alternates:normal;font-feature-settings:normal;text-indent:0;text-align:start;text-decoration:none;text-decoration-line:none;text-decoration-style:solid;text-decoration-color:#000000;letter-spacing:normal;word-spacing:normal;text-transform:none;writing-mode:lr-tb;direction:ltr;text-orientation:mixed;dominant-baseline:auto;baseline-shift:baseline;text-anchor:start;white-space:normal;shape-padding:0;clip-rule:nonzero;display:inline;overflow:visible;visibility:visible;opacity:1;isolation:auto;mix-blend-mode:normal;color-interpolation:sRGB;color-interpolation-filters:linearRGB;solid-color:#000000;solid-opacity:1;vector-effect:none;fill:url(#radialGradient1109);fill-opacity:1;fill-rule:evenodd;stroke:none;stroke-width:2;stroke-linecap:butt;stroke-linejoin:miter;stroke-miterlimit:4;stroke-dasharray:none;stroke-dashoffset:0;stroke-opacity:1;color-rendering:auto;image-rendering:auto;shape-rendering:auto;text-rendering:auto;enable-background:accumulate" transform="translate(0,-64)" d="m 23,50 v 12 h 11 v -2 c -5.75045,8e-5 -10,-4.25016 -10,-10 z"/>
  <path style="fill:url(#linearGradient1111);fill-opacity:1;fill-rule:evenodd;stroke-width:1.59990025" d="M 24,-13.99984 C 24,-8.25 28.24955,-4 34,-4.00008 v -9.99976 z"/>
  <path style="color:#000000;font-style:normal;font-variant:normal;font-weight:normal;font-stretch:normal;font-size:medium;line-height:normal;font-family:sans-serif;font-variant-ligatures:normal;font-variant-position:normal;font-variant-caps:normal;font-variant-numeric:normal;font-variant-alternates:normal;font-feature-settings:normal;text-indent:0;text-align:start;text-decoration:none;text-decoration-line:none;text-decoration-style:solid;text-decoration-color:#000000;letter-spacing:normal;word-spacing:normal;text-transform:none;writing-mode:lr-tb;direction:ltr;text-orientation:mixed;dominant-baseline:auto;baseline-shift:baseline;text-anchor:start;white-space:normal;shape-padding:0;clip-rule:nonzero;display:inline;overflow:visible;visibility:visible;opacity:0.00100002;isolation:auto;mix-blend-mode:normal;color-interpolation:sRGB;color-interpolation-filters:linearRGB;solid-color:#000000;solid-opacity:1;vector-effect:none;fill:#000000;fill-opacity:1;fill-rule:evenodd;stroke:none;stroke-width:2;stroke-linecap:butt;stroke-linejoin:miter;stroke-miterlimit:4;stroke-dasharray:none;stroke-dashoffset:0;stroke-opacity:1;color-rendering:auto;image-rendering:auto;shape-rendering:auto;text-rendering:auto;enable-background:accumulate" d="M 34,-3 C 27.757246,-3 23,-7.757246 23,-14 h 1 c 0,5.75 4.25,10 10,10 z"/>
 </g>
 <g id="pressed-bottomright" transform="matrix(0.49999999,0,0,0.49999999,78.5,66)">
  <path style="color:#000000;font-style:normal;font-variant:normal;font-weight:normal;font-stretch:normal;font-size:medium;line-height:normal;font-family:sans-serif;font-variant-ligatures:normal;font-variant-position:normal;font-variant-caps:normal;font-variant-numeric:normal;font-variant-alternates:normal;font-feature-settings:normal;text-indent:0;text-align:start;text-decoration:none;text-decoration-line:none;text-decoration-style:solid;text-decoration-color:#000000;letter-spacing:normal;word-spacing:normal;text-transform:none;writing-mode:lr-tb;direction:ltr;text-orientation:mixed;dominant-baseline:auto;baseline-shift:baseline;text-anchor:start;white-space:normal;shape-padding:0;clip-rule:nonzero;display:inline;overflow:visible;visibility:visible;opacity:1;isolation:auto;mix-blend-mode:normal;color-interpolation:sRGB;color-interpolation-filters:linearRGB;solid-color:#000000;solid-opacity:1;vector-effect:none;fill:url(#radialGradient1113);fill-opacity:1;fill-rule:evenodd;stroke:none;stroke-width:2;stroke-linecap:butt;stroke-linejoin:miter;stroke-miterlimit:4;stroke-dasharray:none;stroke-dashoffset:0;stroke-opacity:1;color-rendering:auto;image-rendering:auto;shape-rendering:auto;text-rendering:auto;enable-background:accumulate" transform="translate(0,-64)" d="M 75.953125,51 C 75.490741,56.235624 71.411552,60.000075 66,60 v 2 h 11 c 0,0 0,-7.861594 0,-11 -0.348958,0 -0.697917,0 -1.046875,0 z"/>
  <path style="fill:url(#linearGradient1115);fill-opacity:1;fill-rule:evenodd;stroke-width:1.59990025" d="M 76,-13.99984 C 76,-8.25 71.75045,-4 66,-4.00008 v -9.99976 z"/>
  <path style="color:#000000;font-style:normal;font-variant:normal;font-weight:normal;font-stretch:normal;font-size:medium;line-height:normal;font-family:sans-serif;font-variant-ligatures:normal;font-variant-position:normal;font-variant-caps:normal;font-variant-numeric:normal;font-variant-alternates:normal;font-feature-settings:normal;text-indent:0;text-align:start;text-decoration:none;text-decoration-line:none;text-decoration-style:solid;text-decoration-color:#000000;letter-spacing:normal;word-spacing:normal;text-transform:none;writing-mode:lr-tb;direction:ltr;text-orientation:mixed;dominant-baseline:auto;baseline-shift:baseline;text-anchor:start;white-space:normal;shape-padding:0;clip-rule:nonzero;display:inline;overflow:visible;visibility:visible;opacity:0.00100002;isolation:auto;mix-blend-mode:normal;color-interpolation:sRGB;color-interpolation-filters:linearRGB;solid-color:#000000;solid-opacity:1;vector-effect:none;fill:#000000;fill-opacity:1;fill-rule:evenodd;stroke:none;stroke-width:2;stroke-linecap:butt;stroke-linejoin:miter;stroke-miterlimit:4;stroke-dasharray:none;stroke-dashoffset:0;stroke-opacity:1;color-rendering:auto;image-rendering:auto;shape-rendering:auto;text-rendering:auto;enable-background:accumulate" d="m 66.000001,-3 c 6.242754,0 11,-4.757246 11,-11 h -1 c 0,5.75 -4.25,10 -10,10 z"/>
 </g>
 <g id="pressed-top" transform="matrix(0.49999999,0,0,0.49999999,78.5,66)">
  <path style="fill:url(#linearGradient1117);fill-opacity:1;fill-rule:evenodd" d="M 34,-46 H 66 V -56 H 34 Z"/>
  <rect style="opacity:0.00100002;fill:#000000;fill-opacity:1;fill-rule:nonzero;stroke:none;stroke-width:2;stroke-linecap:round;stroke-linejoin:round;stroke-miterlimit:4;stroke-dasharray:none;stroke-opacity:0.99193552" width="32" height="1" x="34" y="-57"/>
 </g>
 <g id="pressed-left" transform="matrix(0.49999999,0,0,0.49999999,78.5,66)">
  <path style="fill:url(#linearGradient1119);fill-opacity:1;fill-rule:evenodd;stroke-width:1.25514328" d="M 34,-14.000192 V -45.999995 H 24 v 32 z"/>
  <rect style="opacity:0.00100002;fill:#000000;fill-opacity:1;fill-rule:nonzero;stroke:none;stroke-width:2;stroke-linecap:round;stroke-linejoin:round;stroke-miterlimit:4;stroke-dasharray:none;stroke-opacity:0.99193552" width="32" height="1" x="-46" y="-24" transform="rotate(90)"/>
 </g>
 <g id="pressed-right" transform="matrix(0.49999999,0,0,0.49999999,78.5,66)">
  <path style="fill:url(#linearGradient1121);fill-opacity:1;fill-rule:evenodd;stroke-width:1.25514328" d="m 66,-14.000192 v -31.999803 h 10 v 32 z"/>
  <rect style="opacity:0.00100002;fill:#000000;fill-opacity:1;fill-rule:nonzero;stroke:none;stroke-width:2;stroke-linecap:round;stroke-linejoin:round;stroke-miterlimit:4;stroke-dasharray:none;stroke-opacity:0.99193552" width="32" height="1" x="-46" y="-77" transform="rotate(90)"/>
 </g>
 <g id="pressed-bottom" transform="matrix(0.49999999,0,0,0.49999999,78.5,66)">
  <path style="opacity:1;fill:url(#linearGradient1123);fill-opacity:1;fill-rule:nonzero;stroke:none;stroke-width:2;stroke-linecap:round;stroke-linejoin:round;stroke-miterlimit:4;stroke-dasharray:none;stroke-opacity:0.99193552" d="m 34,-4 h 32 v 2 H 34 Z"/>
  <path style="fill:url(#linearGradient1125);fill-opacity:1;fill-rule:evenodd;stroke-width:1.25514328" d="M 65.999803,-14 H 34 v 10 h 32 z"/>
  <rect style="opacity:0.00100002;fill:#000000;fill-opacity:1;fill-rule:nonzero;stroke:none;stroke-width:2;stroke-linecap:round;stroke-linejoin:round;stroke-miterlimit:4;stroke-dasharray:none;stroke-opacity:0.99193552" width="32" height="1" x="34" y="-4"/>
 </g>
 <rect id="pressed-hint-top-margin" style="opacity:1;fill:#ff0000;stroke-width:0.95742708" width="1" height="5.5" x="103" y="37.5"/>
 <rect id="pressed-hint-right-margin" style="opacity:1;fill:#ff0000;stroke-width:0.95742714" width="1" height="5.5" x="-51.5" y="111.5" transform="rotate(-90)"/>
 <rect id="pressed-hint-left-margin" style="opacity:1;fill:#ff0000;stroke-width:0.95742714" width="1" height="5.5" x="-51.5" y="90" transform="rotate(-90)"/>
 <rect id="pressed-hint-bottom-margin" style="opacity:1;fill:#ff0000;stroke-width:1.00000012" width="1" height="6" x="103" y="59"/>
</svg>
