<svg xmlns="http://www.w3.org/2000/svg" xmlns:xlink="http://www.w3.org/1999/xlink" id="svg46" width="214" height="214" version="1">
 <defs id="defs41">
  <linearGradient id="linearGradient932">
   <stop id="stop928" style="stop-color:#000000;stop-opacity:1" offset="0"/>
   <stop id="stop936" style="stop-color:#000000;stop-opacity:0.28627451" offset=".918"/>
   <stop id="stop930" style="stop-color:#000000;stop-opacity:0" offset="1"/>
  </linearGradient>
  <radialGradient id="radialGradient934" cx="107" cy="107" r="105" fx="107" fy="107" gradientTransform="translate(0,2)" gradientUnits="userSpaceOnUse" xlink:href="#linearGradient932"/>
 </defs>
 <g id="HourHand" transform="rotate(-126.87095,509.17958,547.71969)">
  <rect id="rect4673" style="opacity:0.00100002" width="18" height="64" x="33" y="91" transform="rotate(126.87095,409.42971,584.46862)"/>
  <path id="rect5450" style="fill:#ececec" d="m 988.68253,556.00642 -5.95481,-0.74154 2.52119,5.5089 0.0361,-0.0506 26.32139,19.78481 3.4218,-4.69848 -26.32118,-19.78478 z"/>
  <circle id="path5455-2" style="fill:#ececec" cx="1771.396" cy="382.032" r="6.499" transform="translate(-753.93395,199.18469)"/>
 </g>
 <g id="MinuteHand" style="fill:#717171;fill-opacity:1" transform="rotate(120.21865,770.50831,133.13796)">
  <rect id="rect4675" style="opacity:0.00100002" width="12" height="85" x="64" y="94" transform="rotate(-120.21865,682.04378,68.318515)"/>
  <path id="rect5459" style="fill:#ececec;fill-opacity:1;stroke:none" transform="rotate(-30.2)" d="m 588.1651,1012.6153 72.8233,0 v 3 l -72.8233,-0 z"/>
  <circle id="path5457" style="fill:#ececec;fill-opacity:1" cx="1771.396" cy="382.032" r="6.499" transform="matrix(0.56475116,0,0,0.56475116,17.103729,365.50423)"/>
 </g>
 <g id="SecondHand">
  <path id="rect6212" style="fill:#185caf" transform="rotate(90.04085)" d="m 120.13638,-317.97083 96.13758,-0.0133 v 1.732 l -96.13758,0.0132 z"/>
  <rect id="rect4677" style="opacity:0.00100002" width="8" height="7" x="313" y="117"/>
  <path id="path6214" style="fill:#185caf;stroke-width:0.29783452" d="m 316.04594,122.71339 c -0.92548,-0.53521 -1.24186,-1.71932 -0.70666,-2.64479 0.53521,-0.92549 1.71933,-1.24187 2.64481,-0.70666 0.92548,0.5352 1.24186,1.71932 0.70664,2.64481 -0.53519,0.92547 -1.71931,1.24185 -2.64479,0.70664 z"/>
 </g>
 <g id="ClockFace">
  <path id="path922" style="opacity:0.5;fill:url(#radialGradient934);fill-opacity:1;fill-rule:nonzero;stroke:none;stroke-width:0.6999988;stroke-linecap:round;stroke-linejoin:round;stroke-miterlimit:4;stroke-dasharray:none;stroke-dashoffset:0;stroke-opacity:1" d="M 107,4 C 49.010101,4 2,51.010101 2,109 2,166.9899 49.010101,214 107,214 164.9899,214 212,166.9899 212,109 212,51.010101 164.9899,4 107,4 Z m 0,7.5 A 95.5,95.5 0 0 1 202.5,107 95.5,95.5 0 0 1 107,202.5 95.5,95.5 0 0 1 11.5,107 95.5,95.5 0 0 1 107,11.5 Z"/>
  <circle id="path883" style="opacity:1;fill:#353535;fill-opacity:1;fill-rule:nonzero;stroke:none;stroke-width:0.32493448;stroke-linecap:round;stroke-linejoin:round;stroke-miterlimit:4;stroke-dasharray:none;stroke-dashoffset:0;stroke-opacity:1" cx="107" cy="107" r="95.5"/>
  <path id="path4" style="opacity:0.02999998;stroke-width:1.97402585" d="m 107.36599,33.125962 c 41.01039,0 74.02597,33.015582 74.02597,74.025968 0,41.01039 -33.01558,74.02598 -74.02597,74.02598 -41.010388,0 -74.025968,-33.01559 -74.025968,-74.02598 0,-41.010386 33.01558,-74.025968 74.025968,-74.025968 z m 0,0 c -42.103999,0 -76,33.895998 -76,75.999998 0,42.104 33.896001,75.99999 76,75.99999 42.104,0 76,-33.89599 76,-75.99999 0,-42.104 -33.896,-75.999998 -76,-75.999998 z"/>
  <path id="path6" style="opacity:0.02999998;stroke-width:1.97402585" d="M 57.381109,52.467175 C 41.720738,66.282641 31.859502,86.504877 31.859502,109.12596 c 0,41.83059 33.675892,75.50649 75.506488,75.50649 41.8306,0 75.50649,-33.6759 75.50649,-75.50649 0,-22.621083 -9.86125,-42.843319 -25.52161,-56.658785 14.78796,13.516834 24.04109,32.978765 24.04109,54.684755 0,41.01039 -33.01558,74.02598 -74.02597,74.02598 -41.010388,0 -74.025968,-33.01559 -74.025968,-74.02598 0,-21.70599 9.253132,-41.167921 24.041087,-54.684755 z"/>
  <path id="path8" style="opacity:0.02999998;stroke-width:1.97402585" d="m 43.237139,70.086898 c -6.908906,11.359436 -10.884133,24.717625 -10.884133,39.039062 0,41.55719 33.455791,75.01299 75.012984,75.01299 41.55719,0 75.01298,-33.4558 75.01298,-75.01299 0,-14.321437 -3.97522,-27.679626 -10.88412,-39.039062 6.28711,10.890149 9.89711,23.536825 9.89711,37.065032 0,41.01039 -33.01558,74.02598 -74.02597,74.02598 -41.010388,0 -74.025968,-33.01559 -74.025968,-74.02598 0,-13.528207 3.61,-26.174883 9.897117,-37.065032 z"/>
  <path id="path10" style="opacity:0.02999998;stroke-width:1.97402585" d="m 35.466336,89.460882 c -1.697733,6.262506 -2.619826,12.850758 -2.619826,19.665078 0,41.28379 33.235689,74.51947 74.51948,74.51947 41.28379,0 74.51948,-33.23568 74.51948,-74.51947 0,-6.81432 -0.92209,-13.402572 -2.61983,-19.665078 1.38007,5.6668 2.12632,11.587608 2.12632,17.691048 0,41.01039 -33.01558,74.02598 -74.02597,74.02598 -41.010388,0 -74.025968,-33.01559 -74.025968,-74.02598 0,-6.10344 0.74625,-12.02425 2.126314,-17.691048 z"/>
  <path id="path12" style="opacity:0.02999998;stroke-width:1.97402585" d="m 37.515549,82.546007 c -3.014754,8.113035 -4.669039,16.898491 -4.669039,26.086443 0,41.28379 33.235689,74.51948 74.51948,74.51948 41.28379,0 74.51948,-33.23569 74.51948,-74.51948 0,-9.187952 -1.65428,-17.973408 -4.66904,-26.086443 2.69495,7.693928 4.17553,15.969106 4.17553,24.605923 0,41.01039 -33.01558,74.02598 -74.02597,74.02598 -41.010388,0 -74.025968,-33.01559 -74.025968,-74.02598 0,-8.636817 1.480576,-16.911995 4.175527,-24.605923 z"/>
  <path id="path14" style="opacity:0.02999998;stroke-width:1.97402585" d="m 43.63233,69.398687 c -6.847545,11.275529 -10.78582,24.53088 -10.78582,38.740253 0,41.2838 33.235689,74.51949 74.51948,74.51949 41.28379,0 74.51948,-33.23569 74.51948,-74.51949 0,-14.209373 -3.93828,-27.464724 -10.78581,-38.740253 6.53468,11.042865 10.2923,23.940481 10.2923,37.753243 0,41.01039 -33.01558,74.02598 -74.02597,74.02598 -41.010388,0 -74.025968,-33.01559 -74.025968,-74.02598 0,-13.812762 3.757617,-26.710378 10.292308,-37.753243 z"/>
  <path id="path16" style="opacity:0.02999998;stroke-width:1.97402585" d="m 103.52011,33.222349 c -39.482554,1.988489 -70.6736,34.429418 -70.6736,74.423091 0,41.28379 33.235689,74.51947 74.51948,74.51947 41.28379,0 74.51948,-33.23568 74.51948,-74.51947 0,-40.002075 -31.20433,-72.446983 -70.69866,-74.423091 39.22107,1.97532 70.20515,34.20077 70.20515,73.929581 0,41.01039 -33.01558,74.02598 -74.02597,74.02598 -41.010388,0 -74.025968,-33.01559 -74.025968,-74.02598 0,-39.728811 30.984066,-71.954261 70.205148,-73.929581 -0.008,4.16e-4 -0.0168,-4.18e-4 -0.0251,0 z"/>
  <path id="path18" style="opacity:0.02999998;stroke-width:1.97402585" d="m 107.36599,32.632455 c -41.283791,0 -74.51948,33.235686 -74.51948,74.519475 0,41.28379 33.235689,74.51948 74.51948,74.51948 41.28379,0 74.51948,-33.23569 74.51948,-74.51948 0,-41.283789 -33.23569,-74.519475 -74.51948,-74.519475 z m 0,0.493507 c 41.01039,0 74.02597,33.015582 74.02597,74.025968 0,41.01039 -33.01558,74.02598 -74.02597,74.02598 -41.010388,0 -74.025968,-33.01559 -74.025968,-74.02598 0,-41.010386 33.01558,-74.025968 74.025968,-74.025968 z"/>
  <rect id="rect20" style="opacity:1;fill:#454545;fill-opacity:1;stroke-width:1.97402585" width="148.052" height="148.052" x="-181.03" y="-181.03" rx="74.026" ry="74.026" transform="matrix(0,-1,-1,0,0,0)"/>
  <path id="path921" style="fill:#000000;stroke-width:1.91176474;opacity:0.3" d="m 111.67093,42.7 c -0.46501,0 -0.90187,0.06611 -1.30273,0.205078 -0.40086,0.133614 -0.75393,0.335763 -1.05859,0.597656 -0.30466,0.261896 -0.55618,0.579507 -0.75391,0.958985 -0.19774,0.379479 -0.32895,0.814406 -0.39844,1.300781 l 0.39063,0.0625 c 0.10695,0.01071 0.18929,-0.0035 0.24804,-0.04102 0.0641,-0.03741 0.11497,-0.112888 0.15235,-0.230468 0.0588,-0.320688 0.16478,-0.615575 0.31445,-0.882813 0.15498,-0.272585 0.34829,-0.50485 0.57813,-0.697265 0.23518,-0.197759 0.49953,-0.352092 0.79882,-0.458985 0.30467,-0.11224 0.63604,-0.164062 0.99414,-0.164062 0.32604,0 0.6426,0.0444 0.94727,0.140625 0.30464,0.0962 0.56901,0.24365 0.79883,0.441406 0.22983,0.197757 0.41769,0.45172 0.55664,0.761719 0.13894,0.304652 0.20898,0.669042 0.20898,1.085937 0,0.36879 -0.0558,0.716939 -0.16797,1.042969 -0.11227,0.326032 -0.27151,0.641175 -0.47461,0.951172 -0.19776,0.309998 -0.43249,0.617223 -0.70507,0.921875 -0.27259,0.304654 -0.568,0.61928 -0.88867,0.945312 l -3.875,3.919922 c -0.0481,0.04277 -0.0851,0.09799 -0.11719,0.16211 -0.0267,0.05878 -0.041,0.115022 -0.041,0.173828 v 0.273437 h 7.31836 v -0.447265 c 0,-0.08018 -0.0221,-0.143307 -0.0703,-0.191407 -0.048,-0.05346 -0.11564,-0.08203 -0.20117,-0.08203 h -4.89844 c -0.18707,0 -0.37347,0.01183 -0.56055,0.0332 -0.18172,0.02137 -0.3602,0.05101 -0.53125,0.09375 l 3.55078,-3.621094 c 0.32603,-0.331379 0.63964,-0.655359 0.9336,-0.970703 0.29931,-0.320686 0.56067,-0.649607 0.78515,-0.986328 0.22448,-0.336723 0.3971,-0.685383 0.52539,-1.048828 0.13363,-0.368789 0.20313,-0.767727 0.20313,-1.195312 0,-0.513099 -0.0893,-0.960365 -0.26563,-1.339844 -0.17642,-0.384825 -0.41604,-0.705826 -0.7207,-0.957032 -0.2993,-0.256552 -0.64549,-0.441524 -1.04101,-0.564453 C 112.51319,42.765078 112.10385,42.7 111.67093,42.7 Z m -9.10351,0.07813 -3.279295,2.894531 0.232422,0.320313 c 0.04272,0.04808 0.100993,0.08162 0.175783,0.09766 0.0748,0.01606 0.15173,-0.0099 0.22656,-0.07422 l 2.50195,-2.21875 c -0.0161,0.203101 -0.0254,0.3925 -0.0254,0.574219 v 9.205078 h -2.60742 v 0.59375 h 5.85547 v -0.59375 h -2.47852 V 42.778125 Z M 77.549844,54.170703 a 2,2 0 0 0 -2,2 2,2 0 0 0 2,2 2,2 0 0 0 2,-2 2,2 0 0 0 -2,-2 z m 59.499996,0 a 2,2 0 0 0 -2,2 2,2 0 0 0 2,2 2,2 0 0 0 2,-2 2,2 0 0 0 -2,-2 z M 55.770547,75.95 a 2,2 0 0 0 -2,2 2,2 0 0 0 2,2 2,2 0 0 0 2,-2 2,2 0 0 0 -2,-2 z m 103.058593,0 a 2,2 0 0 0 -2,2 2,2 0 0 0 2,2 2,2 0 0 0 2,-2 2,2 0 0 0 -2,-2 z M 48.075235,101.96562 c -0.523697,0 -1.009581,0.0875 -1.453125,0.26368 -0.438196,0.171 -0.818047,0.40828 -1.138672,0.71289 -0.320634,0.3046 -0.568309,0.66717 -0.75,1.08398 -0.181698,0.41148 -0.273438,0.85746 -0.273438,1.34375 0,0.49164 0.07796,0.93907 0.238282,1.33985 0.160316,0.39545 0.383309,0.73631 0.671874,1.01953 0.288573,0.28321 0.629431,0.50323 1.019532,0.6582 0.395449,0.14963 0.828052,0.22266 1.292968,0.22266 0.502317,0 0.974426,-0.0922 1.417969,-0.2793 0.443535,-0.19238 0.81948,-0.46566 1.134766,-0.81836 -0.112222,0.19237 -0.238016,0.38677 -0.376953,0.58984 -0.13895,0.19772 -0.289414,0.41525 -0.455078,0.65039 l -3.357422,4.68165 h 0.695312 c 0.181698,0 0.316331,-0.0587 0.396485,-0.18165 l 2.970703,-4.36132 c 0.219098,-0.32063 0.416888,-0.6225 0.58789,-0.90039 0.171004,-0.28322 0.314079,-0.55704 0.431641,-0.82422 0.12291,-0.2672 0.214656,-0.53163 0.273437,-0.79883 0.06415,-0.26719 0.09375,-0.5518 0.09375,-0.8457 0,-0.53439 -0.0829,-1.01442 -0.253906,-1.44727 -0.165656,-0.4382 -0.402431,-0.81506 -0.707031,-1.125 -0.299252,-0.31529 -0.659869,-0.55752 -1.082031,-0.72852 -0.416822,-0.17101 -0.874629,-0.25586 -1.376953,-0.25586 z m 118.632805,0 c -0.45977,0 -0.88881,0.0677 -1.28515,0.20508 -0.39638,0.13211 -0.74369,0.32699 -1.04493,0.58594 -0.30123,0.25895 -0.55055,0.57594 -0.74609,0.95117 -0.19555,0.37522 -0.32778,0.80425 -0.39648,1.28516 l 0.38867,0.0625 c 0.10571,0.0105 0.18796,-0.004 0.24609,-0.041 0.0582,-0.037 0.10308,-0.1103 0.13477,-0.22656 0.0582,-0.31708 0.1651,-0.61076 0.31836,-0.875 0.15326,-0.26952 0.34305,-0.4953 0.57031,-0.68555 0.23252,-0.19553 0.49759,-0.34742 0.79883,-0.45312 0.30122,-0.11097 0.63224,-0.16797 0.98633,-0.16797 0.32237,0 0.62983,0.045 0.92578,0.13477 0.29595,0.0898 0.55538,0.23162 0.77734,0.42187 0.22195,0.19026 0.39718,0.43004 0.5293,0.7207 0.13213,0.29067 0.19726,0.6349 0.19726,1.03125 0,0.34352 -0.0627,0.65602 -0.18945,0.94141 -0.12682,0.28537 -0.31217,0.53218 -0.56055,0.73828 -0.24839,0.20611 -0.55974,0.36869 -0.92968,0.49024 -0.36992,0.11626 -0.79897,0.17888 -1.28516,0.18945 v 0.54883 c 0.60774,0 1.11905,0.0646 1.53125,0.1914 0.4175,0.12155 0.75412,0.29115 1.00781,0.50782 0.25366,0.21139 0.43337,0.46576 0.53907,0.76171 0.11098,0.29595 0.16796,0.61157 0.16796,0.95508 0,0.28538 -0.062,0.58215 -0.18359,0.88867 -0.11627,0.30123 -0.294,0.57583 -0.53711,0.82422 -0.2378,0.2431 -0.53711,0.44304 -0.89648,0.60157 -0.35406,0.15856 -0.77242,0.24023 -1.24805,0.24023 -0.39107,0 -0.72635,-0.045 -1.01172,-0.13477 -0.28539,-0.0898 -0.53218,-0.20495 -0.73828,-0.34765 -0.20082,-0.1427 -0.37041,-0.3016 -0.50781,-0.47071 -0.13212,-0.1744 -0.23967,-0.34397 -0.32422,-0.50781 -0.0846,-0.16381 -0.15167,-0.30733 -0.19922,-0.43945 -0.0422,-0.13742 -0.0731,-0.23933 -0.0996,-0.30274 -0.0422,-0.10571 -0.11384,-0.16774 -0.20898,-0.18359 -0.0898,-0.0159 -0.17717,-0.004 -0.26172,0.0332 l -0.29883,0.12305 c 0.0951,0.33823 0.21588,0.67993 0.36914,1.02344 0.15325,0.33823 0.36777,0.64705 0.64258,0.92187 0.27482,0.27481 0.62606,0.49747 1.04883,0.67188 0.42806,0.16911 0.9582,0.25391 1.59765,0.25391 0.51263,0 0.99104,-0.0798 1.42969,-0.23829 0.43863,-0.16382 0.81825,-0.38649 1.14062,-0.67187 0.32238,-0.28539 0.57674,-0.62456 0.76172,-1.01563 0.18496,-0.39637 0.27539,-0.82536 0.27539,-1.28515 0,-0.724 -0.20808,-1.32572 -0.63086,-1.80664 -0.42278,-0.48619 -1.04668,-0.80573 -1.87109,-0.95899 0.31708,-0.0793 0.60743,-0.19186 0.87695,-0.33984 0.26953,-0.15327 0.50367,-0.34249 0.69922,-0.56445 0.20082,-0.22196 0.35581,-0.47887 0.4668,-0.76954 0.11625,-0.29594 0.17578,-0.62364 0.17578,-0.98828 0,-0.46506 -0.0849,-0.87443 -0.25391,-1.22851 -0.16384,-0.35408 -0.39293,-0.65085 -0.68359,-0.88867 -0.28538,-0.23782 -0.61754,-0.41499 -0.99805,-0.53125 -0.38049,-0.12155 -0.78481,-0.18163 -1.21289,-0.18165 z m -118.640618,0.63477 c 0.390101,0 0.744331,0.0662 1.070313,0.20508 0.331311,0.13359 0.618904,0.3245 0.859375,0.57031 0.240471,0.24048 0.426959,0.533 0.560546,0.875 0.133598,0.34202 0.201172,0.7194 0.201172,1.13086 0,0.32065 -0.06512,0.63589 -0.193359,0.95117 -0.128264,0.30994 -0.314728,0.58869 -0.560547,0.83985 -0.240472,0.25116 -0.538451,0.4583 -0.896484,0.61328 -0.358041,0.15496 -0.766473,0.23047 -1.220703,0.23047 -0.400788,0 -0.766336,-0.0627 -1.097657,-0.18555 -0.325973,-0.1229 -0.604712,-0.29755 -0.839843,-0.52734 -0.229784,-0.23513 -0.410808,-0.52025 -0.539063,-0.85157 -0.122903,-0.33666 -0.18164,-0.71403 -0.18164,-1.13086 0,-0.40079 0.0661,-0.76633 0.205078,-1.09765 0.138951,-0.33666 0.332307,-0.62085 0.578125,-0.86133 0.251158,-0.24047 0.549138,-0.43085 0.896484,-0.56445 0.347354,-0.13361 0.736033,-0.19727 1.158203,-0.19727 z M 55.770547,135.45 a 2,2 0 0 0 -2,2 2,2 0 0 0 2,2 2,2 0 0 0 2,-2 2,2 0 0 0 -2,-2 z m 103.058593,0 a 2,2 0 0 0 -2,2 2,2 0 0 0 2,2 2,2 0 0 0 2,-2 2,2 0 0 0 -2,-2 z m -81.279296,21.7793 a 2,2 0 0 0 -2,2 2,2 0 0 0 2,2 2,2 0 0 0 2,-2 2,2 0 0 0 -2,-2 z m 59.499996,0 a 2,2 0 0 0 -2,2 2,2 0 0 0 2,2 2,2 0 0 0 2,-2 2,2 0 0 0 -2,-2 z m -28.51172,4 c -0.18169,0 -0.32127,0.0606 -0.41211,0.18359 l -3.08984,4.16992 c -0.51301,0.6947 -0.88494,1.32171 -1.10938,1.88281 -0.22444,0.55577 -0.33593,1.05645 -0.33593,1.5 0,0.58248 0.0869,1.10344 0.25781,1.56836 0.17101,0.45957 0.41075,0.85124 0.7207,1.17188 0.31529,0.32063 0.69266,0.56532 1.13086,0.73633 0.43819,0.17101 0.92019,0.25781 1.44922,0.25781 0.55042,0 1.05606,-0.0893 1.51562,-0.26562 0.45958,-0.17634 0.85372,-0.41909 1.17969,-0.73438 0.33132,-0.31529 0.58785,-0.69215 0.76953,-1.125 0.18704,-0.43286 0.2793,-0.90496 0.2793,-1.41797 0,-0.51301 -0.0869,-0.97525 -0.25781,-1.38672 -0.16565,-0.41682 -0.398,-0.77002 -0.69727,-1.05859 -0.2939,-0.29392 -0.64517,-0.51939 -1.05664,-0.67969 -0.41149,-0.16033 -0.86332,-0.24023 -1.34961,-0.24023 -0.51302,0 -0.98511,0.0941 -1.41797,0.28125 -0.43285,0.18169 -0.80581,0.43575 -1.12109,0.76172 0.11223,-0.18703 0.23997,-0.37989 0.37891,-0.57227 0.13894,-0.19239 0.28941,-0.39615 0.45507,-0.61523 L 109.21,161.2293 Z m -1.21094,5.15234 c 0.41682,0 0.79472,0.0696 1.13672,0.20313 0.34201,0.12826 0.63895,0.31278 0.88477,0.55859 0.25116,0.24048 0.44062,0.53988 0.57422,0.89258 0.13896,0.34735 0.20898,0.73707 0.20898,1.16992 0,0.41147 -0.07,0.79379 -0.20898,1.14648 -0.13894,0.34735 -0.33972,0.64974 -0.60157,0.90625 -0.2565,0.25114 -0.56877,0.44557 -0.9375,0.58985 -0.36873,0.14428 -0.7826,0.21679 -1.24218,0.21679 -0.43285,0 -0.82257,-0.0725 -1.16992,-0.21679 -0.34736,-0.14427 -0.6404,-0.34507 -0.88086,-0.60156 -0.24047,-0.26185 -0.4289,-0.57165 -0.5625,-0.92969 -0.12824,-0.35804 -0.19141,-0.7458 -0.19141,-1.16797 0,-0.33666 0.0637,-0.66868 0.19727,-1 0.13361,-0.33132 0.32943,-0.6263 0.58593,-0.88281 0.25651,-0.26185 0.56879,-0.47446 0.9375,-0.63477 0.37408,-0.16566 0.79927,-0.25 1.26953,-0.25 z"/>
  <path id="path959" style="fill:#ececec;stroke-width:1.91176474" d="M 111.37109 42 C 110.90608 42 110.46922 42.066113 110.06836 42.205078 C 109.6675 42.338692 109.31443 42.540841 109.00977 42.802734 C 108.70511 43.06463 108.45359 43.382241 108.25586 43.761719 C 108.05812 44.141198 107.92691 44.576125 107.85742 45.0625 L 108.24805 45.125 C 108.355 45.13571 108.43734 45.121464 108.49609 45.083984 C 108.56019 45.046574 108.61106 44.971096 108.64844 44.853516 C 108.70724 44.532828 108.81322 44.237941 108.96289 43.970703 C 109.11787 43.698118 109.31118 43.465853 109.54102 43.273438 C 109.7762 43.075679 110.04055 42.921346 110.33984 42.814453 C 110.64451 42.702213 110.97588 42.650391 111.33398 42.650391 C 111.66002 42.650391 111.97658 42.694786 112.28125 42.791016 C 112.58589 42.887216 112.85026 43.034666 113.08008 43.232422 C 113.30991 43.430179 113.49777 43.684142 113.63672 43.994141 C 113.77566 44.298793 113.8457 44.663183 113.8457 45.080078 C 113.8457 45.448868 113.78986 45.797017 113.67773 46.123047 C 113.56546 46.449079 113.40622 46.764222 113.20312 47.074219 C 113.00536 47.384217 112.77063 47.691442 112.49805 47.996094 C 112.22546 48.300748 111.93005 48.615374 111.60938 48.941406 L 107.73438 52.861328 C 107.68627 52.904098 107.64926 52.959317 107.61719 53.023438 C 107.59049 53.082217 107.57617 53.13846 107.57617 53.197266 L 107.57617 53.470703 L 114.89453 53.470703 L 114.89453 53.023438 C 114.89453 52.943258 114.87242 52.880131 114.82422 52.832031 C 114.77622 52.778571 114.70858 52.75 114.62305 52.75 L 109.72461 52.75 C 109.53754 52.75 109.35114 52.761833 109.16406 52.783203 C 108.98234 52.804573 108.80386 52.834213 108.63281 52.876953 L 112.18359 49.255859 C 112.50962 48.92448 112.82323 48.6005 113.11719 48.285156 C 113.4165 47.96447 113.67786 47.635549 113.90234 47.298828 C 114.12682 46.962105 114.29944 46.613445 114.42773 46.25 C 114.56136 45.881211 114.63086 45.482273 114.63086 45.054688 C 114.63086 44.541589 114.54153 44.094323 114.36523 43.714844 C 114.18881 43.330019 113.94919 43.009018 113.64453 42.757812 C 113.34523 42.50126 112.99904 42.316288 112.60352 42.193359 C 112.21335 42.065078 111.80401 42 111.37109 42 z M 102.26758 42.078125 L 98.988281 44.972656 L 99.220703 45.292969 C 99.263423 45.341049 99.321699 45.374585 99.396484 45.390625 C 99.471314 45.406685 99.548217 45.380756 99.623047 45.316406 L 102.125 43.097656 C 102.1089 43.300757 102.09961 43.490156 102.09961 43.671875 L 102.09961 52.876953 L 99.492188 52.876953 L 99.492188 53.470703 L 105.34766 53.470703 L 105.34766 52.876953 L 102.86914 52.876953 L 102.86914 42.078125 L 102.26758 42.078125 z M 77.25 53.470703 A 2 2 0 0 0 75.25 55.470703 A 2 2 0 0 0 77.25 57.470703 A 2 2 0 0 0 79.25 55.470703 A 2 2 0 0 0 77.25 53.470703 z M 136.75 53.470703 A 2 2 0 0 0 134.75 55.470703 A 2 2 0 0 0 136.75 57.470703 A 2 2 0 0 0 138.75 55.470703 A 2 2 0 0 0 136.75 53.470703 z M 55.470703 75.25 A 2 2 0 0 0 53.470703 77.25 A 2 2 0 0 0 55.470703 79.25 A 2 2 0 0 0 57.470703 77.25 A 2 2 0 0 0 55.470703 75.25 z M 158.5293 75.25 A 2 2 0 0 0 156.5293 77.25 A 2 2 0 0 0 158.5293 79.25 A 2 2 0 0 0 160.5293 77.25 A 2 2 0 0 0 158.5293 75.25 z M 47.775391 101.26562 C 47.251694 101.26562 46.76581 101.35308 46.322266 101.5293 C 45.88407 101.7003 45.504219 101.93758 45.183594 102.24219 C 44.86296 102.54679 44.615285 102.90936 44.433594 103.32617 C 44.251896 103.73765 44.160156 104.18363 44.160156 104.66992 C 44.160156 105.16156 44.238114 105.60899 44.398438 106.00977 C 44.558754 106.40522 44.781747 106.74608 45.070312 107.0293 C 45.358885 107.31251 45.699743 107.53253 46.089844 107.6875 C 46.485293 107.83713 46.917896 107.91016 47.382812 107.91016 C 47.885129 107.91016 48.357238 107.81801 48.800781 107.63086 C 49.244316 107.43848 49.620261 107.1652 49.935547 106.8125 C 49.823325 107.00487 49.697531 107.19927 49.558594 107.40234 C 49.419644 107.60006 49.26918 107.81759 49.103516 108.05273 L 45.746094 112.73438 L 46.441406 112.73438 C 46.623104 112.73438 46.757737 112.67568 46.837891 112.55273 L 49.808594 108.19141 C 50.027692 107.87078 50.225482 107.56891 50.396484 107.29102 C 50.567488 107.0078 50.710563 106.73398 50.828125 106.4668 C 50.951035 106.1996 51.042781 105.93517 51.101562 105.66797 C 51.165712 105.40078 51.195313 105.11617 51.195312 104.82227 C 51.195312 104.28788 51.112415 103.80785 50.941406 103.375 C 50.77575 102.9368 50.538975 102.55994 50.234375 102.25 C 49.935123 101.93471 49.574506 101.69248 49.152344 101.52148 C 48.735522 101.35047 48.277715 101.26562 47.775391 101.26562 z M 166.4082 101.26562 C 165.94843 101.26562 165.51939 101.33332 165.12305 101.4707 C 164.72667 101.60281 164.37936 101.79769 164.07812 102.05664 C 163.77689 102.31559 163.52757 102.63258 163.33203 103.00781 C 163.13648 103.38303 163.00425 103.81206 162.93555 104.29297 L 163.32422 104.35547 C 163.42993 104.36597 163.51218 104.35155 163.57031 104.31445 C 163.62851 104.27745 163.67339 104.20415 163.70508 104.08789 C 163.76328 103.77081 163.87018 103.47713 164.02344 103.21289 C 164.1767 102.94337 164.36649 102.71759 164.59375 102.52734 C 164.82627 102.33181 165.09134 102.17992 165.39258 102.07422 C 165.6938 101.96325 166.02482 101.90625 166.37891 101.90625 C 166.70128 101.90625 167.00874 101.9512 167.30469 102.04102 C 167.60064 102.13082 167.86007 102.27264 168.08203 102.46289 C 168.30398 102.65315 168.47921 102.89293 168.61133 103.18359 C 168.74346 103.47426 168.80859 103.81849 168.80859 104.21484 C 168.80859 104.55836 168.74587 104.87086 168.61914 105.15625 C 168.49232 105.44162 168.30697 105.68843 168.05859 105.89453 C 167.8102 106.10064 167.49885 106.26322 167.12891 106.38477 C 166.75899 106.50103 166.32994 106.56365 165.84375 106.57422 L 165.84375 107.12305 C 166.45149 107.12305 166.9628 107.18762 167.375 107.31445 C 167.7925 107.436 168.12912 107.6056 168.38281 107.82227 C 168.63647 108.03366 168.81618 108.28803 168.92188 108.58398 C 169.03286 108.87993 169.08984 109.19555 169.08984 109.53906 C 169.08984 109.82444 169.0278 110.12121 168.90625 110.42773 C 168.78998 110.72896 168.61225 111.00356 168.36914 111.25195 C 168.13134 111.49505 167.83203 111.69499 167.47266 111.85352 C 167.1186 112.01208 166.70024 112.09375 166.22461 112.09375 C 165.83354 112.09375 165.49826 112.0488 165.21289 111.95898 C 164.9275 111.86918 164.68071 111.75403 164.47461 111.61133 C 164.27379 111.46863 164.1042 111.30973 163.9668 111.14062 C 163.83468 110.96622 163.72713 110.79665 163.64258 110.63281 C 163.55798 110.469 163.49091 110.32548 163.44336 110.19336 C 163.40116 110.05594 163.37026 109.95403 163.34375 109.89062 C 163.30155 109.78491 163.22991 109.72288 163.13477 109.70703 C 163.04497 109.69113 162.9576 109.70263 162.87305 109.74023 L 162.57422 109.86328 C 162.66932 110.20151 162.7901 110.54321 162.94336 110.88672 C 163.09661 111.22495 163.31113 111.53377 163.58594 111.80859 C 163.86076 112.0834 164.212 112.30606 164.63477 112.48047 C 165.06283 112.64958 165.59297 112.73438 166.23242 112.73438 C 166.74505 112.73438 167.22346 112.65456 167.66211 112.49609 C 168.10074 112.33227 168.48036 112.1096 168.80273 111.82422 C 169.12511 111.53883 169.37947 111.19966 169.56445 110.80859 C 169.74941 110.41222 169.83984 109.98323 169.83984 109.52344 C 169.83984 108.79944 169.63176 108.19772 169.20898 107.7168 C 168.7862 107.23061 168.1623 106.91107 167.33789 106.75781 C 167.65497 106.67851 167.94532 106.56595 168.21484 106.41797 C 168.48437 106.2647 168.71851 106.07548 168.91406 105.85352 C 169.11488 105.63156 169.26987 105.37465 169.38086 105.08398 C 169.49711 104.78804 169.55664 104.46034 169.55664 104.0957 C 169.55664 103.63064 169.47173 103.22127 169.30273 102.86719 C 169.13889 102.51311 168.9098 102.21634 168.61914 101.97852 C 168.33376 101.7407 168.0016 101.56353 167.62109 101.44727 C 167.2406 101.32572 166.83628 101.26564 166.4082 101.26562 z M 47.767578 101.90039 C 48.157679 101.90039 48.511909 101.9666 48.837891 102.10547 C 49.169202 102.23906 49.456795 102.42997 49.697266 102.67578 C 49.937737 102.91626 50.124225 103.20878 50.257812 103.55078 C 50.39141 103.8928 50.458984 104.27018 50.458984 104.68164 C 50.458984 105.00229 50.393865 105.31753 50.265625 105.63281 C 50.137361 105.94275 49.950897 106.2215 49.705078 106.47266 C 49.464606 106.72382 49.166627 106.93096 48.808594 107.08594 C 48.450553 107.2409 48.042121 107.31641 47.587891 107.31641 C 47.187103 107.31641 46.821555 107.25376 46.490234 107.13086 C 46.164261 107.00796 45.885522 106.83331 45.650391 106.60352 C 45.420607 106.36839 45.239583 106.08327 45.111328 105.75195 C 44.988425 105.41529 44.929688 105.03792 44.929688 104.62109 C 44.929688 104.2203 44.995785 103.85476 45.134766 103.52344 C 45.273717 103.18678 45.467073 102.90259 45.712891 102.66211 C 45.964049 102.42164 46.262029 102.23126 46.609375 102.09766 C 46.956729 101.96405 47.345408 101.90039 47.767578 101.90039 z M 55.470703 134.75 A 2 2 0 0 0 53.470703 136.75 A 2 2 0 0 0 55.470703 138.75 A 2 2 0 0 0 57.470703 136.75 A 2 2 0 0 0 55.470703 134.75 z M 158.5293 134.75 A 2 2 0 0 0 156.5293 136.75 A 2 2 0 0 0 158.5293 138.75 A 2 2 0 0 0 160.5293 136.75 A 2 2 0 0 0 158.5293 134.75 z M 77.25 156.5293 A 2 2 0 0 0 75.25 158.5293 A 2 2 0 0 0 77.25 160.5293 A 2 2 0 0 0 79.25 158.5293 A 2 2 0 0 0 77.25 156.5293 z M 136.75 156.5293 A 2 2 0 0 0 134.75 158.5293 A 2 2 0 0 0 136.75 160.5293 A 2 2 0 0 0 138.75 158.5293 A 2 2 0 0 0 136.75 156.5293 z M 108.23828 160.5293 C 108.05659 160.5293 107.91701 160.58994 107.82617 160.71289 L 104.73633 164.88281 C 104.22332 165.57751 103.85139 166.20452 103.62695 166.76562 C 103.40251 167.32139 103.29102 167.82207 103.29102 168.26562 C 103.29102 168.8481 103.37789 169.36906 103.54883 169.83398 C 103.71984 170.29355 103.95958 170.68522 104.26953 171.00586 C 104.58482 171.32649 104.96219 171.57118 105.40039 171.74219 C 105.83858 171.9132 106.32058 172 106.84961 172 C 107.40003 172 107.90567 171.91069 108.36523 171.73438 C 108.82481 171.55804 109.21895 171.31529 109.54492 171 C 109.87624 170.68471 110.13277 170.30785 110.31445 169.875 C 110.50149 169.44214 110.59375 168.97004 110.59375 168.45703 C 110.59375 167.94402 110.50688 167.48178 110.33594 167.07031 C 110.17029 166.65349 109.93794 166.30029 109.63867 166.01172 C 109.34477 165.7178 108.9935 165.49233 108.58203 165.33203 C 108.17054 165.1717 107.71871 165.0918 107.23242 165.0918 C 106.7194 165.0918 106.24731 165.1859 105.81445 165.37305 C 105.3816 165.55474 105.00864 165.8088 104.69336 166.13477 C 104.80559 165.94774 104.93333 165.75488 105.07227 165.5625 C 105.21121 165.37011 105.36168 165.16635 105.52734 164.94727 L 108.91016 160.5293 L 108.23828 160.5293 z M 107.02734 165.68164 C 107.44416 165.68164 107.82206 165.75123 108.16406 165.88477 C 108.50607 166.01303 108.80301 166.19755 109.04883 166.44336 C 109.29999 166.68384 109.48945 166.98324 109.62305 167.33594 C 109.76201 167.68329 109.83203 168.07301 109.83203 168.50586 C 109.83203 168.91733 109.76206 169.29965 109.62305 169.65234 C 109.48411 169.99969 109.28333 170.30208 109.02148 170.55859 C 108.76498 170.80973 108.45271 171.00416 108.08398 171.14844 C 107.71525 171.29272 107.30138 171.36523 106.8418 171.36523 C 106.40895 171.36523 106.01923 171.29272 105.67188 171.14844 C 105.32452 171.00417 105.03148 170.80337 104.79102 170.54688 C 104.55055 170.28503 104.36212 169.97523 104.22852 169.61719 C 104.10028 169.25915 104.03711 168.87139 104.03711 168.44922 C 104.03711 168.11256 104.1008 167.78054 104.23438 167.44922 C 104.36799 167.1179 104.56381 166.82292 104.82031 166.56641 C 105.07682 166.30456 105.3891 166.09195 105.75781 165.93164 C 106.13189 165.76598 106.55708 165.68164 107.02734 165.68164 z"/>
  <path id="rect3258" style="fill:#ffffff;fill-opacity:0;stroke:none;stroke-width:1.07000005;stroke-linejoin:round;stroke-miterlimit:4;stroke-dashoffset:0;stroke-opacity:0.49803922" d="M 0,4.419138e-6 H 214 V 214 H 0 Z"/>
  <path id="rect2480" style="fill:#ffffff;fill-opacity:0;stroke:none;stroke-width:1.04536402;stroke-linejoin:round;stroke-miterlimit:4;stroke-dashoffset:0;stroke-opacity:0.49803922" d="M 0,-2.2791381e-6 H 214 V 214 H 0 Z"/>
  <path id="path858" style="opacity:0.3;fill:#000000;fill-opacity:1;fill-rule:nonzero;stroke:none;stroke-width:0.32833689;stroke-linecap:round;stroke-linejoin:round;stroke-miterlimit:4;stroke-dasharray:none;stroke-dashoffset:0;stroke-opacity:1" d="M 107,10.5 A 96.5,96.5 0 0 0 10.5,107 96.5,96.5 0 0 0 107,203.5 96.5,96.5 0 0 0 203.5,107 96.5,96.5 0 0 0 107,10.5 Z m 0,1 A 95.5,95.5 0 0 1 202.5,107 95.5,95.5 0 0 1 107,202.5 95.5,95.5 0 0 1 11.5,107 95.5,95.5 0 0 1 107,11.5 Z"/>
 </g>
</svg>
