<svg xmlns="http://www.w3.org/2000/svg" id="svg44" width="30" height="105" version="1.1">
 <path id="base-center" style="fill:#353535;fill-opacity:1;fill-rule:evenodd;stroke-width:0.49999997" d="M 7.0000022,18 V 34 H 23.000002 V 18 Z"/>
 <g id="base-bottom" transform="matrix(0,-0.79999995,0.49230766,0,-17.000788,56.999999)">
  <path id="path1375" style="opacity:0.00100002;fill:#000000;fill-opacity:1;fill-rule:evenodd" d="m 28.75,81.2516 v -32.5 H 20 v 32.5 z"/>
  <path id="path673" style="fill:#353535;fill-opacity:1;fill-rule:evenodd" d="m 28.75,81.2516 v -32.5 h -7.5 v 32.5 z"/>
 </g>
 <g id="base-bottomright" transform="matrix(-0.79999995,0,0,-0.79999995,46.000002,73.001279)">
  <path id="path1377" style="opacity:0.00100002;fill:#000000;fill-opacity:1;fill-rule:evenodd" d="m 28.750008,40.0016 c -4.12501,0 -8.750004,4.62497 -8.750004,8.75 H 28.75 Z"/>
  <path id="path678" style="fill:#353535;fill-opacity:1;fill-rule:evenodd" d="m 28.75,41.2516 c -4.12501,0 -7.5,3.37497 -7.5,7.5 h 7.5 z"/>
 </g>
 <g id="base-top" transform="matrix(0.49230736,0,0,0.79999995,-187.46139,-46.000317)">
  <g id="g687" transform="rotate(90,212.50079,263.75079)">
   <path id="path1383" style="opacity:0.00100002;fill:#000000;fill-opacity:1;fill-rule:evenodd" d="m 28.7504,81.2516 v -32.5 h -8.750001 v 32.5 z"/>
   <path id="path683" style="fill:#353535;fill-opacity:1;fill-rule:evenodd" d="m 28.7504,81.2516 v -32.5 h -7.5 v 32.5 z"/>
  </g>
 </g>
 <g id="base-left" transform="matrix(0.8076674,0,0,0.49230755,-312.00362,-21.369199)">
  <g id="g696" transform="translate(366.29025,31.217107)">
   <path id="path1371" style="opacity:0.00100002;fill:#000000;fill-opacity:1;fill-rule:evenodd" d="m 28.6788,81.2516 v -32.5 h -8.666941 v 32.5 z"/>
   <path id="path692" style="fill:#353535;fill-opacity:1;fill-rule:evenodd" d="m 28.6788,81.2516 v -32.5 H 21.25 v 32.5 z"/>
  </g>
 </g>
 <g id="base-topleft" transform="matrix(0.79999995,0,0,0.79999995,-308.9072,-46.349997)">
  <g id="g705" transform="translate(366.29025,31.217107)">
   <path id="path1369" style="opacity:0.00100002;fill:#000000;fill-opacity:1;fill-rule:evenodd" d="m 28.593781,40.470392 c -4.12498,0 -8.750007,4.624971 -8.750007,8.750001 h 8.750007 z"/>
   <path id="path701" style="fill:#353535;fill-opacity:1;fill-rule:evenodd" d="m 28.593781,41.720393 c -4.12498,0 -7.5,3.37497 -7.5,7.5 h 7.5 z"/>
  </g>
 </g>
 <g id="base-bottomleft" transform="matrix(0.79999995,0,0,0.79999995,-308.99998,-55.999982)">
  <g id="g714" transform="matrix(1,0,0,-1,366.25,161.25158)">
   <path id="path1373" style="opacity:0.00100002;fill:#000000;fill-opacity:1;fill-rule:evenodd" d="m 28.75,40.001596 c -4.12499,0 -8.750001,4.624976 -8.750001,8.750006 L 28.75,48.7516 Z"/>
   <path id="path710" style="fill:#353535;fill-opacity:1;fill-rule:evenodd" d="m 28.75,41.2516 c -4.12499,0 -7.5,3.37497 -7.5,7.5 h 7.5 z"/>
  </g>
 </g>
 <g id="base-right" transform="matrix(-0.8076674,0,0,0.49230766,46.162932,-6.000785)">
  <path id="path1379" style="opacity:0.00100002;fill:#000000;fill-opacity:1;fill-rule:evenodd" d="m 28.6788,81.2516 v -32.5 h -8.666934 v 32.5 z"/>
  <path id="path719" style="fill:#353535;fill-opacity:1;fill-rule:evenodd" d="m 28.6788,81.2516 v -32.5 H 21.25 v 32.5 z"/>
 </g>
 <g id="base-topright" transform="matrix(0.79999995,0,0,0.79999995,-318.99998,-46.000032)">
  <g id="g728" transform="matrix(-1,0,0,1,456.25,31.248446)">
   <path id="path1381" style="opacity:0.00100002;fill:#000000;fill-opacity:1;fill-rule:evenodd" d="m 28.75,40.001597 c -4.12498,0 -8.750003,4.624973 -8.750003,8.750003 H 28.75 Z"/>
   <path id="path724" style="fill:#353535;fill-opacity:1;fill-rule:evenodd" d="m 28.75,41.2516 c -4.12498,0 -7.5,3.37497 -7.5,7.5 h 7.5 z"/>
  </g>
 </g>
 <g id="focus-left" transform="matrix(0.79999994,0,0,0.49230765,-15.999999,25.999213)">
  <path id="path1385" style="color:#000000;opacity:0.00100002;fill:#000000;fill-opacity:1;stroke-width:0.91299999" d="m 20,48.7516 v 32.5 h 3.75 v -32.5 z"/>
  <path id="path733" style="fill:#353535;fill-opacity:1;fill-rule:evenodd" d="M 28.75,81.2514 V 48.7516 h -7.5 v 32.5 z"/>
  <path id="path735" style="color:#000000;fill:#15539e;fill-opacity:1;stroke-width:0.91299999" d="m 21.25,48.7516 v 32.5 h 2.5 v -32.5 z"/>
 </g>
 <g id="focus-topleft" transform="matrix(0.79999994,0,0,0.79999994,-15.999999,10.998702)">
  <path id="path1387" style="color:#000000;opacity:0.00100002;fill:#000000;fill-opacity:1" d="m 28.75,40.001624 c -4.12502,0 -8.75,4.624966 -8.75,8.749976 h 3.75 c 0,-2.81257 2.1875,-5 5,-5 z"/>
  <path id="path738" style="fill:#353535;fill-opacity:1;fill-rule:evenodd" d="m 28.75,41.2516 c -4.12502,0 -7.5,3.37499 -7.5,7.5 h 7.5 z"/>
  <path id="path740" style="color:#000000;fill:#15539e;fill-opacity:1" d="m 28.75,41.2516 c -4.12502,0 -7.5,3.37499 -7.5,7.5 h 2.5 c 0,-2.81257 2.1875,-5 5,-5 z"/>
 </g>
 <path id="focus-center" style="fill:#353535;fill-opacity:1;fill-rule:evenodd;stroke-width:0.49999997" d="m 7.0000002,49.999939 v 16 H 22.999998 v -16 z"/>
 <g id="focus-right" transform="matrix(-0.79999994,0,0,0.49230765,45.999999,25.999153)">
  <path id="path1389" style="color:#000000;opacity:0.00100002;fill:#000000;fill-opacity:1;stroke-width:0.91299999" d="m 19.999997,48.75166 v 32.5 L 23.75,81.2516 v -32.5 z"/>
  <path id="path1259" style="fill:#353535;fill-opacity:1;fill-rule:evenodd" d="M 28.75,81.2514 V 48.7516 h -7.5 v 32.5 z"/>
  <path id="path1261" style="color:#000000;fill:#15539e;fill-opacity:1;stroke-width:0.91299999" d="m 21.25,48.7516 v 32.5 h 2.5 v -32.5 z"/>
 </g>
 <g id="focus-top" transform="matrix(0,0.79999994,-0.49230765,0,47.00078,26.999982)">
  <path id="path1391" style="color:#000000;opacity:0.00100002;fill:#000000;fill-opacity:1;stroke-width:0.91299999" d="m 20.000024,48.7516 v 32.5 H 23.75 v -32.5 z"/>
  <path id="path1265" style="fill:#353535;fill-opacity:1;fill-rule:evenodd" d="M 28.75,81.2514 V 48.7516 h -7.5 v 32.5 z"/>
  <path id="path1267" style="color:#000000;fill:#15539e;fill-opacity:1;stroke-width:0.91299999" d="m 21.25,48.7516 v 32.5 h 2.5 v -32.5 z"/>
 </g>
 <g id="focus-topright" transform="matrix(-0.79999994,0,0,0.79999994,45.999994,10.998702)">
  <path id="path1393" style="color:#000000;opacity:0.00100002;fill:#000000;fill-opacity:1" d="m 28.75,40.001623 c -4.12502,0 -8.750003,4.625004 -8.750003,8.750014 L 23.75,48.7516 c 0,-2.81257 2.1875,-5 5,-5 z"/>
  <path id="path1271" style="fill:#353535;fill-opacity:1;fill-rule:evenodd" d="m 28.75,41.2516 c -4.12502,0 -7.5,3.37499 -7.5,7.5 h 7.5 z"/>
  <path id="path1273" style="color:#000000;fill:#15539e;fill-opacity:1" d="m 28.75,41.2516 c -4.12502,0 -7.5,3.37499 -7.5,7.5 h 2.5 c 0,-2.81257 2.1875,-5 5,-5 z"/>
 </g>
 <g id="focus-bottomleft" transform="matrix(0.79999994,0,0,-0.79999994,-15.999999,105.00128)">
  <path id="path1395" style="color:#000000;opacity:0.00100002;fill:#000000;fill-opacity:1" d="m 28.75,40.0016 c -4.12502,0 -8.75,4.62499 -8.75,8.75 h 3.75 c 0,-2.81257 2.1875,-5 5,-5 z"/>
  <path id="path1277" style="fill:#353535;fill-opacity:1;fill-rule:evenodd" d="m 28.75,41.2516 c -4.12502,0 -7.5,3.37499 -7.5,7.5 h 7.5 z"/>
  <path id="path1279" style="color:#000000;fill:#15539e;fill-opacity:1" d="m 28.75,41.2516 c -4.12502,0 -7.5,3.37499 -7.5,7.5 h 2.5 c 0,-2.81257 2.1875,-5 5,-5 z"/>
 </g>
 <g id="focus-bottomright" transform="matrix(-0.79999994,0,0,-0.79999994,45.999994,105.00128)">
  <path id="path1397" style="color:#000000;opacity:0.00100002;fill:#000000;fill-opacity:1" d="m 28.75,40.0016 c -4.12502,0 -8.750003,4.624953 -8.750003,8.749963 L 23.75,48.7516 c 0,-2.81257 2.1875,-5 5,-5 z"/>
  <path id="path1283" style="fill:#353535;fill-opacity:1;fill-rule:evenodd" d="m 28.75,41.2516 c -4.12502,0 -7.5,3.37499 -7.5,7.5 h 7.5 z"/>
  <path id="path1285" style="color:#000000;fill:#15539e;fill-opacity:1" d="m 28.75,41.2516 c -4.12502,0 -7.5,3.37499 -7.5,7.5 h 2.5 c 0,-2.81257 2.1875,-5 5,-5 z"/>
 </g>
 <g id="focus-bottom" transform="matrix(0,-0.79999994,-0.49230765,0,47.00078,88.999999)">
  <path id="path1399" style="color:#000000;opacity:0.00100002;fill:#000000;fill-opacity:1;stroke-width:0.91299999" d="m 20,48.7516 v 32.5 h 3.75 v -32.5 z"/>
  <path id="path1289" style="fill:#353535;fill-opacity:1;fill-rule:evenodd" d="M 28.75,81.2514 V 48.7516 h -7.5 v 32.5 z"/>
  <path id="path1291" style="color:#000000;fill:#15539e;fill-opacity:1;stroke-width:0.91299999" d="m 21.25,48.7516 v 32.5 h 2.5 v -32.5 z"/>
 </g>
 <g id="hover-left" transform="matrix(0.79999994,0,0,0.49230765,-15.999999,57.999209)">
  <path id="path1409" style="color:#000000;opacity:0.00100002;fill:#000000;fill-opacity:1;stroke-width:0.91299999" d="m 20,48.7516 v 32.5 h 3.75 v -32.5 z"/>
  <path id="path1295" style="fill:#353535;fill-opacity:1;fill-rule:evenodd" d="M 28.75,81.2514 V 48.7516 h -7.5 v 32.5 z"/>
  <path id="path1297" style="color:#000000;fill:#15539e;fill-opacity:1;stroke-width:0.91299999" d="m 21.25,48.7516 v 32.5 h 2.5 v -32.5 z"/>
 </g>
 <g id="hover-topleft" transform="matrix(0.79999994,0,0,0.79999994,-15.999999,42.998703)">
  <path id="path1411" style="color:#000000;opacity:0.00100002;fill:#000000;fill-opacity:1" d="m 28.75,40.001622 c -4.12502,0 -8.75,4.624968 -8.75,8.749978 h 3.75 c 0,-2.81257 2.1875,-5 5,-5 z"/>
  <path id="path1301" style="fill:#353535;fill-opacity:1;fill-rule:evenodd" d="m 28.75,41.2516 c -4.12502,0 -7.5,3.37499 -7.5,7.5 h 7.5 z"/>
  <path id="path1303" style="color:#000000;fill:#15539e;fill-opacity:1" d="m 28.75,41.2516 c -4.12502,0 -7.5,3.37499 -7.5,7.5 h 2.5 c 0,-2.81257 2.1875,-5 5,-5 z"/>
 </g>
 <path id="hover-center" style="fill:#353535;fill-opacity:1;fill-rule:evenodd;stroke-width:0.49999997" d="m 7.0000002,81.999939 v 16 H 22.999998 v -16 z"/>
 <g id="hover-right" transform="matrix(-0.79999994,0,0,0.49230765,45.999999,57.999159)">
  <path id="path1413" style="color:#000000;opacity:0.00100002;fill:#000000;fill-opacity:1;stroke-width:0.91299999" d="m 19.999997,48.7516 v 32.5 H 23.75 v -32.5 z"/>
  <path id="path1309" style="fill:#353535;fill-opacity:1;fill-rule:evenodd" d="M 28.75,81.2514 V 48.7516 h -7.5 v 32.5 z"/>
  <path id="path1311" style="color:#000000;fill:#15539e;fill-opacity:1;stroke-width:0.91299999" d="m 21.25,48.7516 v 32.5 h 2.5 v -32.5 z"/>
 </g>
 <g id="hover-top" transform="matrix(0,0.79999994,-0.49230765,0,47.00078,58.999979)">
  <path id="path1415" style="color:#000000;opacity:0.00100002;fill:#000000;fill-opacity:1;stroke-width:0.91299999" d="m 20.000022,48.7516 v 32.5 H 23.75 v -32.5 z"/>
  <path id="path1315" style="fill:#353535;fill-opacity:1;fill-rule:evenodd" d="M 28.75,81.2514 V 48.7516 h -7.5 v 32.5 z"/>
  <path id="path1317" style="color:#000000;fill:#15539e;fill-opacity:1;stroke-width:0.91299999" d="m 21.25,48.7516 v 32.5 h 2.5 v -32.5 z"/>
 </g>
 <g id="hover-topright" transform="matrix(-0.79999994,0,0,0.79999994,45.999994,42.998703)">
  <path id="path1417" style="color:#000000;opacity:0.00100002;fill:#000000;fill-opacity:1" d="m 28.75,40.001622 c -4.12502,0 -8.750003,4.624968 -8.750003,8.749978 H 23.75 c 0,-2.81257 2.1875,-5 5,-5 z"/>
  <path id="path1321" style="fill:#353535;fill-opacity:1;fill-rule:evenodd" d="m 28.75,41.2516 c -4.12502,0 -7.5,3.37499 -7.5,7.5 h 7.5 z"/>
  <path id="path1323" style="color:#000000;fill:#15539e;fill-opacity:1" d="m 28.75,41.2516 c -4.12502,0 -7.5,3.37499 -7.5,7.5 h 2.5 c 0,-2.81257 2.1875,-5 5,-5 z"/>
 </g>
 <g id="hover-bottomleft" transform="matrix(0.79999994,0,0,-0.79999994,-15.999999,137.00128)">
  <path id="path1419" style="color:#000000;opacity:0.00100002;fill:#000000;fill-opacity:1" d="m 28.75,40.001602 c -4.12502,0 -8.75,4.624988 -8.75,8.749998 h 3.75 c 0,-2.81257 2.1875,-5 5,-5 z"/>
  <path id="path1327" style="fill:#353535;fill-opacity:1;fill-rule:evenodd" d="m 28.75,41.2516 c -4.12502,0 -7.5,3.37499 -7.5,7.5 h 7.5 z"/>
  <path id="path1329" style="color:#000000;fill:#15539e;fill-opacity:1" d="m 28.75,41.2516 c -4.12502,0 -7.5,3.37499 -7.5,7.5 h 2.5 c 0,-2.81257 2.1875,-5 5,-5 z"/>
 </g>
 <g id="hover-bottomright" transform="matrix(-0.79999994,0,0,-0.79999994,45.999994,137.00128)">
  <path id="path1421" style="color:#000000;opacity:0.00100002;fill:#000000;fill-opacity:1" d="m 28.75,40.001602 c -4.12502,0 -8.750003,4.624988 -8.750003,8.749998 H 23.75 c 0,-2.81257 2.1875,-5 5,-5 z"/>
  <path id="path1333" style="fill:#353535;fill-opacity:1;fill-rule:evenodd" d="m 28.75,41.2516 c -4.12502,0 -7.5,3.37499 -7.5,7.5 h 7.5 z"/>
  <path id="path1335" style="color:#000000;fill:#15539e;fill-opacity:1" d="m 28.75,41.2516 c -4.12502,0 -7.5,3.37499 -7.5,7.5 h 2.5 c 0,-2.81257 2.1875,-5 5,-5 z"/>
 </g>
 <g id="hover-bottom" transform="matrix(0,-0.79999994,-0.49230765,0,47.00078,121)">
  <path id="path1423" style="color:#000000;opacity:0.00100002;fill:#000000;fill-opacity:1;stroke-width:0.91299999" d="m 20.000002,48.7516 v 32.5 H 23.75 v -32.5 z"/>
  <path id="path1339" style="fill:#353535;fill-opacity:1;fill-rule:evenodd" d="M 28.75,81.2514 V 48.7516 h -7.5 v 32.5 z"/>
  <path id="path1341" style="color:#000000;fill:#15539e;fill-opacity:1;stroke-width:0.91299999" d="m 21.25,48.7516 v 32.5 h 2.5 v -32.5 z"/>
 </g>
 <rect id="base-hint-top-margin" style="opacity:1;fill:#ff0000;stroke:none;stroke-width:2.23606801" width="2" height="5" x="14" y="11"/>
 <rect id="base-hint-right-margin" style="opacity:1;fill:#ff0000;stroke:none;stroke-width:2.23606801" width="2" height="5" x="-27" y="25" transform="rotate(-90)"/>
 <rect id="base-hint-left-margin" style="opacity:1;fill:#ff0000;stroke:none;stroke-width:2.23606801" width="2" height="5" x="-27" y="0" transform="rotate(-90)"/>
 <rect id="base-hint-bottom-margin" style="opacity:1;fill:#ff0000;stroke:none;stroke-width:2.23606801" width="2" height="5" x="14" y="36"/>
 <rect id="focus-hint-top-margin" style="fill:#ff0000;fill-opacity:1;fill-rule:nonzero;stroke:none;stroke-width:3.16227698" width="2" height=".1" x="14" y="43.9"/>
 <rect id="focus-hint-bottom-margin" style="fill:#ff0000;fill-opacity:1;fill-rule:nonzero;stroke:none;stroke-width:3.16227722" width="2" height=".1" x="14" y="72"/>
 <rect id="focus-hint-left-margin" style="fill:#ff0000;fill-opacity:1;fill-rule:nonzero;stroke:none;stroke-width:3.16227698" width=".1" height="2" x=".9" y="57"/>
 <rect id="focus-hint-right-margin" style="fill:#ff0000;fill-opacity:1;fill-rule:nonzero;stroke:none;stroke-width:3.16227746" width=".1" height="2" x="29" y="57"/>
 <rect id="hover-hint-top-margin" style="fill:#ff0000;fill-opacity:1;fill-rule:nonzero;stroke:none;stroke-width:3.16227722" width="2" height=".1" x="14" y="75.9"/>
 <rect id="hover-hint-left-margin" style="fill:#ff0000;fill-opacity:1;fill-rule:nonzero;stroke:none;stroke-width:3.16227746" width=".1" height="2" x=".9" y="89"/>
 <rect id="hover-hint-right-margin" style="fill:#ff0000;fill-opacity:1;fill-rule:nonzero;stroke:none;stroke-width:3.16227746" width=".1" height="2" x="29" y="89"/>
 <rect id="hover-hint-bottom-margin" style="fill:#ff0000;fill-opacity:1;fill-rule:nonzero;stroke:none;stroke-width:3.16227722" width="2" height=".1" x="14" y="104"/>
 <rect id="hint-tile-center" style="opacity:1;fill:#ff0000;fill-opacity:1;fill-rule:nonzero;stroke:none;stroke-width:5.83967161;stroke-linecap:round;stroke-linejoin:round;stroke-miterlimit:4;stroke-dasharray:none;stroke-dashoffset:0;stroke-opacity:1" width="2" height="2" x="0" y="0" rx="0" ry="2"/>
 <rect id="hint-focus-over-base" style="opacity:0.98999999;fill:#ff0000;fill-opacity:1;fill-rule:nonzero;stroke:none;stroke-width:0.97327858" width="2" height="2" x="0" y="4" rx="0" ry="2"/>
</svg>
