<svg xmlns="http://www.w3.org/2000/svg" xmlns:xlink="http://www.w3.org/1999/xlink" width="86" height="30" version="1">
 <defs id="defs95">
  <linearGradient id="linearGradient2091">
   <stop style="stop-color:#494949;stop-opacity:1" offset="0"/>
   <stop style="stop-color:#595959;stop-opacity:1" offset="1"/>
  </linearGradient>
  <linearGradient id="linearGradient1117-3" x1="69" x2="17" y1="19.5" y2="19.5" gradientUnits="userSpaceOnUse" xlink:href="#linearGradient2091"/>
  <radialGradient id="radialGradient1111" cx="65" cy="25.371" r="5" fx="65" fy="25.371" gradientTransform="matrix(-1.9999798,-2.4516669e-5,1.9613334e-5,-1.5999837,279.99809,97.595292)" gradientUnits="userSpaceOnUse" xlink:href="#linearGradient2145"/>
  <linearGradient id="linearGradient2145">
   <stop style="stop-color:#000000;stop-opacity:1" offset="0"/>
   <stop style="stop-color:#000000;stop-opacity:0" offset="1"/>
  </linearGradient>
  <linearGradient id="linearGradient1113-6" x1="58" x2="58" y1="9.5" y2="61.5" gradientUnits="userSpaceOnUse" xlink:href="#linearGradient2091"/>
  <linearGradient id="linearGradient1115" x1="73" x2="73" y1="11" y2="20" gradientUnits="userSpaceOnUse" xlink:href="#linearGradient2234"/>
  <linearGradient id="linearGradient2234">
   <stop style="stop-color:#000000;stop-opacity:0.6" offset="0"/>
   <stop style="stop-color:#000000;stop-opacity:0.4" offset="1"/>
  </linearGradient>
  <linearGradient id="linearGradient1109-7" x1="27.001" x2="27.001" y1="61.5" y2="9.5" gradientUnits="userSpaceOnUse" xlink:href="#linearGradient2091"/>
  <linearGradient id="linearGradient1105" x1="29" x2="29" y1="14.5" y2="6.5" gradientTransform="matrix(1,0,0,-1,123.0001,71.5)" gradientUnits="userSpaceOnUse" xlink:href="#linearGradient2145"/>
  <linearGradient id="linearGradient1107-5" x1="53" x2="53" y1="9.5" y2="61.5" gradientUnits="userSpaceOnUse" xlink:href="#linearGradient2091"/>
  <radialGradient id="radialGradient1097" cx="65" cy="17.5" r="5" fx="65" fy="17.5" gradientTransform="matrix(2,2.5e-5,2e-5,-1.6,51.99975,84.998375)" gradientUnits="userSpaceOnUse" xlink:href="#linearGradient2145"/>
  <linearGradient id="linearGradient1101" x1="67" x2="67" y1="11" y2="20" gradientUnits="userSpaceOnUse" xlink:href="#linearGradient2234"/>
  <linearGradient id="linearGradient1093-2" x1="45" x2="45" y1="61.5" y2="9.5" gradientUnits="userSpaceOnUse" xlink:href="#linearGradient2091"/>
  <linearGradient id="linearGradient1091-9" x1="33.001" x2="33.001" y1="62" y2="10" gradientTransform="matrix(0.49999904,0,0,0.49999904,48.500069,-1.4999405)" gradientUnits="userSpaceOnUse" xlink:href="#linearGradient2091"/>
  <linearGradient id="linearGradient2277" x1="69" x2="17" y1="19.5" y2="19.5" gradientUnits="userSpaceOnUse" xlink:href="#linearGradient2091"/>
  <radialGradient id="radialGradient2270" cx="65" cy="25.371" r="5" fx="65" fy="25.371" gradientTransform="matrix(-1.9999798,-2.4516669e-5,1.9613334e-5,-1.5999837,223.99809,97.595292)" gradientUnits="userSpaceOnUse" xlink:href="#linearGradient2145"/>
  <linearGradient id="linearGradient2272" x1="58" x2="58" y1="9.5" y2="61.5" gradientUnits="userSpaceOnUse" xlink:href="#linearGradient2091"/>
  <linearGradient id="linearGradient1771" x1="72" x2="72" y1="11" y2="20" gradientUnits="userSpaceOnUse" xlink:href="#linearGradient2234"/>
  <linearGradient id="linearGradient2268" x1="27.001" x2="27.001" y1="61.5" y2="9.5" gradientUnits="userSpaceOnUse" xlink:href="#linearGradient2091"/>
  <linearGradient id="linearGradient1769" x1="29" x2="29" y1="14.5" y2="6.5" gradientTransform="matrix(1,0,0,-1,67.0001,71.5)" gradientUnits="userSpaceOnUse" xlink:href="#linearGradient2145"/>
  <linearGradient id="linearGradient2265" x1="53" x2="53" y1="9.5" y2="61.5" gradientUnits="userSpaceOnUse" xlink:href="#linearGradient2091"/>
  <radialGradient id="radialGradient2254" cx="65" cy="17.5" r="5" fx="65" fy="17.5" gradientTransform="matrix(2,2.5e-5,2e-5,-1.6,-4.00025,84.998375)" gradientUnits="userSpaceOnUse" xlink:href="#linearGradient2145"/>
  <linearGradient id="linearGradient1765" x1="69" x2="69" y1="11" y2="20" gradientUnits="userSpaceOnUse" xlink:href="#linearGradient2234"/>
  <linearGradient id="linearGradient2249" x1="45" x2="45" y1="61.5" y2="9.5" gradientUnits="userSpaceOnUse" xlink:href="#linearGradient2091"/>
  <linearGradient id="linearGradient2247" x1="33.001" x2="33.001" y1="62" y2="10" gradientTransform="matrix(0.49999904,0,0,0.49999904,18.500071,-1.4999405)" gradientUnits="userSpaceOnUse" xlink:href="#linearGradient2091"/>
  <linearGradient id="linearGradient1261" x1="27.001" x2="27.001" y1="61.5" y2="9.5" gradientUnits="userSpaceOnUse" xlink:href="#linearGradient2091"/>
  <linearGradient id="linearGradient1263" x1="58" x2="58" y1="9.5" y2="61.5" gradientUnits="userSpaceOnUse" xlink:href="#linearGradient2091"/>
  <linearGradient id="linearGradient1265" x1="69" x2="17" y1="19.5" y2="19.5" gradientUnits="userSpaceOnUse" xlink:href="#linearGradient2091"/>
  <linearGradient id="linearGradient1267" x1="27.001" x2="27.001" y1="61.5" y2="9.5" gradientUnits="userSpaceOnUse" xlink:href="#linearGradient2091"/>
  <linearGradient id="linearGradient1269" x1="58" x2="58" y1="9.5" y2="61.5" gradientUnits="userSpaceOnUse" xlink:href="#linearGradient2091"/>
  <linearGradient id="linearGradient1271" x1="69" x2="17" y1="19.5" y2="19.5" gradientUnits="userSpaceOnUse" xlink:href="#linearGradient2091"/>
 </defs>
 <path id="normal-center" style="fill:#676767;enable-background:new" d="M 5.0000391,8.5000413 V 24.500011 H 21.00001 V 8.5000413 Z"/>
 <g id="normal-top" style="enable-background:new" transform="matrix(0.49999904,0,0,0.49999904,-8.4999309,-1.24994)">
  <path style="fill:#676767" transform="matrix(2.0000038,0,0,2.0000038,16.999894,2.4998848)" d="M 5 3 L 5 3.5 L 5 8.5 L 21 8.5 L 21 3.5 L 21 3 L 5 3 z"/>
  <g style="color:#000000">
   <path style="opacity:0.5" d="M 59,9.5001 H 27 V 10.5 h 32 z"/>
  </g>
 </g>
 <g id="normal-topright" style="enable-background:new" transform="matrix(0.49999904,0,0,0.49999904,-42.499871,-1.499939)">
  <g transform="translate(68,0.5)">
   <path style="fill:#676767" transform="matrix(2.0000038,0,0,2.0000038,16.999905,2.4998838)" d="M 21 3 L 21 3.5 L 21 8.5 L 26 8.5 L 26 3 L 21 3 z"/>
   <path style="opacity:0.5;fill:#000000;fill-rule:evenodd" transform="translate(-6,-0.5)" d="m 65,10 v 1 c 5,0 9,4 9,9 h 1 C 75,14.25 70.75,10 65,10 Z"/>
  </g>
 </g>
 <g id="normal-bottomright" style="enable-background:new" transform="matrix(0.49999904,0,0,-0.49999904,-42.499871,34.499991)">
  <g transform="translate(68,0.5)">
   <path style="opacity:1;fill:#676767" transform="matrix(2.0000038,0,0,-2.0000038,16.999905,68.500114)" d="M 21 24.5 L 21 29.5 L 21 30 L 26 30 L 26 24.5 L 21 24.5 z"/>
   <path style="opacity:0.5;fill:#000000;fill-rule:evenodd" transform="translate(-6,-0.5)" d="m 65,10 v 1 c 5,0 9,4 9,9 h 1 C 75,14.25 70.75,10 65,10 Z"/>
  </g>
 </g>
 <g id="normal-right" style="enable-background:new" transform="matrix(0,0.49999904,-0.49999904,0,30.749989,-4.999933)">
  <path style="fill:#676767;fill-rule:evenodd" d="M 27,19.5 H 59 V 9.5 H 27 Z"/>
  <g style="color:#000000">
   <path style="opacity:0.5" d="M 59,9.5001 H 27 V 10.5 h 32 z"/>
  </g>
 </g>
 <g id="normal-bottom" style="enable-background:new" transform="matrix(0.49999904,0,0,-0.49999904,-8.4999309,34.249992)">
  <path style="fill:#676767" transform="matrix(2.0000038,0,0,-2.0000038,16.999894,68.500116)" d="M 5 24.5 L 5 29.5 L 5 30 L 21 30 L 21 29.5 L 21 24.5 L 5 24.5 z"/>
  <g style="color:#000000">
   <path style="opacity:0.5;fill:#000000" d="M 59,9.5001 H 27 V 10.5 h 32 z"/>
  </g>
 </g>
 <g id="normal-topleft" style="enable-background:new" transform="matrix(-0.49999904,0,0,0.49999904,68.499869,-1.499939)">
  <g transform="translate(68,0.5)">
   <path style="fill:#676767" transform="matrix(-2.0000038,0,0,2.0000038,69.000001,2.4998838)" d="M 0 3 L 0 8.5 L 5 8.5 L 5 3.5 L 5 3 L 0 3 z"/>
   <path style="opacity:0.5;fill:#000000;fill-rule:evenodd" transform="translate(-6,-0.5)" d="m 65,10 v 1 c 5,0 9,4 9,9 h 1 C 75,14.25 70.75,10 65,10 Z"/>
  </g>
 </g>
 <g id="normal-bottomleft" style="enable-background:new" transform="matrix(-0.49999904,0,0,-0.49999904,68.499869,34.499991)">
  <g transform="translate(68,0.5)">
   <path style="opacity:1;fill:#676767" transform="matrix(-2.0000038,0,0,-2.0000038,69.000001,68.500114)" d="M 0 24.5 C 4.9999904e-05 24.5 0 30 0 30 L 5 30 L 5 29.5 L 5 24.5 L 0 24.5 z"/>
   <path style="opacity:0.5;fill:#000000;fill-rule:evenodd" transform="translate(-6,-0.5)" d="m 65,10 v 1 c 5,0 9,4 9,9 h 1 C 75,14.25 70.75,10 65,10 Z"/>
  </g>
 </g>
 <g id="normal-left" style="enable-background:new" transform="matrix(0,0.49999904,0.49999904,0,-4.7499909,-4.999933)">
  <path style="fill:#676767;fill-rule:evenodd" d="M 27,19.5 H 59 V 9.5 H 27 Z"/>
  <g style="color:#000000">
   <path style="opacity:0.5" d="M 59,9.5001 H 27 V 10.5 h 32 z"/>
  </g>
 </g>
 <path id="hover-center" style="fill:url(#linearGradient2247).0;fill-rule:evenodd;stroke-width:0.49999905;enable-background:new" d="M 35.000041,8.5000405 V 24.500011 H 51.00001 V 8.5000405 Z"/>
 <g id="hover-top" style="enable-background:new" transform="matrix(0.49999904,0,0,0.49999904,21.500072,-1.2499405)">
  <path style="fill:#696969;fill-rule:evenodd;fill-opacity:1" d="M 27,19.5 H 59 V 8.4998983 H 27 Z"/>
  <path style="fill:url(#linearGradient2249).0;fill-rule:evenodd" d="M 27,19.5 H 59 V 9.5 H 27 Z"/>
  <g style="color:#000000">
   <path style="opacity:0.4" d="M 59,9.5001 H 27 V 10.5 h 32 z"/>
  </g>
 </g>
 <g id="hover-topright" style="enable-background:new" transform="matrix(0.49999904,0,0,0.49999904,-12.49987,-1.4999405)">
  <g transform="translate(68,0.5)">
   <path style="fill:#696969;fill-rule:evenodd" d="M 59,8.4999487 69.000003,8.4998479 69,19.5 H 59 Z"/>
   <path style="fill:url(#linearGradient1261).0;fill-rule:evenodd" d="m 59,9.5 c 5.75,0 10,4.25 10,10 H 59 Z"/>
   <path style="opacity:0.4;fill:#000000;fill-rule:evenodd" transform="translate(-6,-0.5)" d="m 65,10 v 1 c 5,0 9,4 9,9 h 1 C 75,14.25 70.75,10 65,10 Z"/>
  </g>
 </g>
 <g id="hover-bottomright" style="enable-background:new" transform="matrix(0.49999904,0,0,-0.49999904,-12.49987,34.499991)">
  <g transform="translate(68,0.5)">
   <path style="fill:#696969;fill-rule:evenodd" d="m 59,8.4999987 10.000003,1.2e-6 C 69.000003,8.4999999 68.9999,19.5 69,19.5 H 59 Z"/>
   <path style="opacity:1;fill:url(#radialGradient2254);fill-rule:evenodd" transform="matrix(1,0,0,-1,-67.0001,71.5)" d="m 136,52 c 0,5.75 -4.25,10 -10,10 v 1 h 10 z"/>
   <path style="fill:url(#linearGradient1263).0;fill-rule:evenodd" d="m 59,9.5 c 5.75,0 10,4.25 10,10 H 59 Z"/>
   <path style="opacity:1;fill:url(#linearGradient1765);fill-rule:evenodd" transform="translate(-6,-0.5)" d="m 65,10 v 1 c 5,0 9,4 9,9 h 1 C 75,14.25 70.75,10 65,10 Z"/>
  </g>
 </g>
 <g id="hover-right" style="enable-background:new" transform="matrix(0,0.49999904,-0.49999904,0,60.74999,-4.9999335)">
  <path style="fill:url(#linearGradient1265).0;fill-rule:evenodd" d="M 27,19.5 H 59 V 9.5 H 27 Z"/>
  <g style="color:#000000">
   <path style="opacity:0.4" d="M 59,9.5001 H 27 V 10.5 h 32 z"/>
  </g>
 </g>
 <g id="hover-bottom" style="enable-background:new" transform="matrix(0.49999904,0,0,-0.49999904,21.500072,34.249992)">
  <path style="fill:#696969;fill-rule:evenodd" transform="matrix(1,0,0,-1,-67.0001,71.5)" d="m 94,62 v 1 h 32 v -1 z"/>
  <path style="fill:url(#linearGradient1769);fill-rule:evenodd" transform="matrix(1,0,0,-1,-67.0001,71.5)" d="m 94,62 v 1 h 32 v -1 z"/>
  <path style="fill:url(#linearGradient2265).0;fill-rule:evenodd" d="M 27,19.5 H 59 V 9.5 H 27 Z"/>
  <g style="color:#000000">
   <path style="opacity:0.6;fill:#000000" d="M 59,9.5001 H 27 V 10.5 h 32 z"/>
  </g>
 </g>
 <g id="hover-topleft" style="enable-background:new" transform="matrix(-0.49999904,0,0,0.49999904,98.499868,-1.4999405)">
  <g transform="translate(68,0.5)">
   <path style="fill:#696969;fill-rule:evenodd" d="M 59,8.4999487 68.999999,8.4998479 69,19.5 H 59 Z"/>
   <path style="fill:url(#linearGradient2268).0;fill-rule:evenodd" d="m 59,9.5 c 5.75,0 10,4.25 10,10 H 59 Z"/>
   <path style="opacity:0.4;fill:#000000;fill-rule:evenodd" transform="translate(-6,-0.5)" d="m 65,10 v 1 c 5,0 9,4 9,9 h 1 C 75,14.25 70.75,10 65,10 Z"/>
  </g>
 </g>
 <g id="hover-bottomleft" style="enable-background:new" transform="matrix(-0.49999904,0,0,-0.49999904,98.499868,34.499991)">
  <g transform="translate(68,0.5)">
   <path style="fill:#696969;fill-rule:evenodd" d="m 59,8.4999987 9.999999,1.2e-6 L 69,19.5 H 59 Z"/>
   <path style="opacity:1;fill:url(#radialGradient2270);fill-rule:evenodd" transform="rotate(180,76.5,35.75)" d="m 84,52 c 1e-4,0 0,11 0,11 H 94 V 62 C 88.25,62 84,57.75 84,52 Z"/>
   <path style="fill:url(#linearGradient2272).0;fill-rule:evenodd" d="m 59,9.5 c 5.75,0 10,4.25 10,10 H 59 Z"/>
   <path style="opacity:1;fill:url(#linearGradient1771);fill-rule:evenodd" transform="translate(-6,-0.5)" d="m 65,10 v 1 c 5,0 9,4 9,9 h 1 C 75,14.25 70.75,10 65,10 Z"/>
  </g>
 </g>
 <g id="hover-left" style="enable-background:new" transform="matrix(0,0.49999904,0.49999904,0,25.250011,-4.9999335)">
  <path style="fill:url(#linearGradient2277).0;fill-rule:evenodd" d="M 27,19.5 H 59 V 9.5 H 27 Z"/>
  <g style="color:#000000">
   <path style="opacity:0.4" d="M 59,9.5001 H 27 V 10.5 h 32 z"/>
  </g>
 </g>
 <path id="active-center" style="fill:url(#linearGradient1091-9).0;fill-rule:evenodd;stroke-width:0.49999905;enable-background:new" d="M 65.000039,8.5000405 V 24.500011 h 15.99997 V 8.5000405 Z"/>
 <g id="active-top" style="enable-background:new" transform="matrix(0.49999904,0,0,0.49999904,51.500069,-1.2499415)">
  <path style="fill:#696969;fill-rule:evenodd;fill-opacity:1" d="M 27,19.5 H 59 V 8.4998983 H 27 Z"/>
  <path style="fill:url(#linearGradient1093-2).0;fill-rule:evenodd" d="M 27,19.5 H 59 V 9.5 H 27 Z"/>
  <g style="color:#000000">
   <path style="opacity:0.4" d="M 59,9.5001 H 27 V 10.5 h 32 z"/>
  </g>
 </g>
 <g id="active-topright" style="enable-background:new" transform="matrix(0.49999904,0,0,0.49999904,17.500125,-1.4999405)">
  <g transform="translate(68,0.5)">
   <path style="fill:#696969;fill-rule:evenodd" d="m 59,8.4999487 c 2.1e-5,9.9e-5 10.000015,-1.008e-4 10.000015,-1.008e-4 L 69,19.5 H 59 Z"/>
   <path style="fill:url(#linearGradient1267).0;fill-rule:evenodd" d="m 59,9.5 c 5.75,0 10,4.25 10,10 H 59 Z"/>
   <path style="opacity:0.4;fill:#000000;fill-rule:evenodd" transform="translate(-6,-0.5)" d="m 65,10 v 1 c 5,0 9,4 9,9 h 1 C 75,14.25 70.75,10 65,10 Z"/>
  </g>
 </g>
 <g id="active-bottomright" style="enable-background:new" transform="matrix(0.49999904,0,0,-0.49999904,17.500125,34.499991)">
  <g transform="translate(68,0.5)">
   <path id="path996-1" style="fill:#696969;fill-rule:evenodd" d="m 59,8.4999987 10.000015,1.2e-6 c 0,0 -2e-6,11.0000021 -1.5e-5,11.0000001 H 59 Z"/>
   <path style="opacity:1;fill:url(#radialGradient1097);fill-rule:evenodd" transform="matrix(1,0,0,-1,-123.0001,71.5)" d="m 192,52 c 0,5.75 -4.25,10 -10,10 v 1 h 10 z"/>
   <path style="fill:url(#linearGradient1269).0;fill-rule:evenodd" d="m 59,9.5 c 5.75,0 10,4.25 10,10 H 59 Z"/>
   <path style="opacity:1;fill:url(#linearGradient1101);fill-rule:evenodd" transform="translate(-6,-0.5)" d="m 65,10 v 1 c 5,0 9,4 9,9 h 1 C 75,14.25 70.75,10 65,10 Z"/>
  </g>
 </g>
 <g id="active-right" style="enable-background:new" transform="matrix(0,0.49999904,-0.49999904,0,90.74999,-4.9999345)">
  <path style="fill:url(#linearGradient1271).0;fill-rule:evenodd" d="M 27,19.5 H 59 V 9.5 H 27 Z"/>
  <g style="color:#000000">
   <path style="opacity:0.4" d="M 59,9.5001 H 27 V 10.5 h 32 z"/>
  </g>
 </g>
 <g id="active-bottom" style="enable-background:new" transform="matrix(0.49999904,0,0,-0.49999904,51.500069,34.249992)">
  <path style="fill:#696969;fill-rule:evenodd" transform="matrix(1,0,0,-1,-123.0001,71.5)" d="m 150,62 v 1 h 32 v -1 z"/>
  <path style="fill:url(#linearGradient1105);fill-rule:evenodd" transform="matrix(1,0,0,-1,-123.0001,71.5)" d="m 150,62 v 1 h 32 v -1 z"/>
  <path style="fill:url(#linearGradient1107-5).0;fill-rule:evenodd" d="M 27,19.5 H 59 V 9.5 H 27 Z"/>
  <g style="color:#000000">
   <path style="opacity:0.6;fill:#000000" d="M 59,9.5001 H 27 V 10.5 h 32 z"/>
  </g>
 </g>
 <g id="active-topleft" style="enable-background:new" transform="matrix(-0.49999904,0,0,0.49999904,128.49987,-1.4999405)">
  <g transform="translate(68,0.5)">
   <path id="path998-2" style="fill:#696969;fill-rule:evenodd" d="m 59,8.4999487 c -1.02e-4,-10e-7 10.000003,-1.008e-4 10.000003,-1.008e-4 L 69,19.5 H 59 Z"/>
   <path style="fill:url(#linearGradient1109-7).0;fill-rule:evenodd" d="m 59,9.5 c 5.75,0 10,4.25 10,10 H 59 Z"/>
   <path style="opacity:0.4;fill:#000000;fill-rule:evenodd" transform="translate(-6,-0.5)" d="m 65,10 v 1 c 5,0 9,4 9,9 h 1 C 75,14.25 70.75,10 65,10 Z"/>
  </g>
 </g>
 <g id="active-bottomleft" style="enable-background:new" transform="matrix(-0.49999904,0,0,-0.49999904,128.49987,34.499991)">
  <g transform="translate(68,0.5)">
   <path id="path1000-7" style="fill:#696969;fill-rule:evenodd" d="m 59,8.4999987 10.000003,1.2e-6 c 0,0 0,11.0000001 -3e-6,11.0000001 H 59 Z"/>
   <path style="opacity:1;fill:url(#radialGradient1111);fill-rule:evenodd" transform="rotate(180,104.5,35.75)" d="m 140,52 c 1e-4,0 0,11 0,11 h 10 v -1 c -5.75,0 -10,-4.25 -10,-10 z"/>
   <path style="fill:url(#linearGradient1113-6).0;fill-rule:evenodd" d="m 59,9.5 c 5.75,0 10,4.25 10,10 H 59 Z"/>
   <path style="opacity:1;fill:url(#linearGradient1115);fill-rule:evenodd" transform="translate(-6,-0.5)" d="m 65,10 v 1 c 5,0 9,4 9,9 h 1 C 75,14.25 70.75,10 65,10 Z"/>
  </g>
 </g>
 <g id="active-left" style="enable-background:new" transform="matrix(0,0.49999904,0.49999904,0,55.250009,-4.9999335)">
  <path style="fill:url(#linearGradient1117-3).0;fill-rule:evenodd" d="M 27,19.5 H 59 V 9.5 H 27 Z"/>
  <g style="color:#000000">
   <path style="opacity:0.4" d="M 59,9.5001 H 27 V 10.5 h 32 z"/>
  </g>
 </g>
</svg>
