<svg xmlns="http://www.w3.org/2000/svg" xmlns:xlink="http://www.w3.org/1999/xlink" width="220" height="85" version="1">
 <defs id="defs74">
  <linearGradient id="linearGradient904">
   <stop style="stop-color:#000000;stop-opacity:0.50980395" offset="0"/>
   <stop style="stop-color:#000000;stop-opacity:0" offset="1"/>
  </linearGradient>
  <radialGradient id="radialGradient910" cx="153" cy="68.06" r="8.5" fx="153" fy="68.06" gradientTransform="matrix(-1.411768,6.3162052e-7,-6.2846167e-7,-1.4047075,369.00057,163.66427)" gradientUnits="userSpaceOnUse" xlink:href="#linearGradient904"/>
  <radialGradient id="radialGradient912" cx="203" cy="68.06" r="8.5" fx="203" fy="68.06" gradientTransform="matrix(6.5508663e-8,1.4047076,-1.4117645,6.5837762e-8,299.08468,-217.09565)" gradientUnits="userSpaceOnUse" xlink:href="#linearGradient904"/>
  <radialGradient id="radialGradient914" cx="203" cy="18.06" r="8.5" fx="203" fy="18.06" gradientTransform="matrix(1.4117638,-3.043604e-7,3.0588235e-7,1.4188233,-83.588047,-7.5638885)" gradientUnits="userSpaceOnUse" xlink:href="#linearGradient904"/>
  <radialGradient id="radialGradient916" cx="153" cy="18.06" r="8.5" fx="153" fy="18.06" gradientTransform="matrix(-3.8696226e-7,-1.4188205,1.4117672,-3.8503858e-7,127.50357,235.13952)" gradientUnits="userSpaceOnUse" xlink:href="#linearGradient904"/>
  <linearGradient id="linearGradient938" x1="-258" x2="-258" y1="281.001" y2="293.001" gradientUnits="userSpaceOnUse" xlink:href="#linearGradient904"/>
  <linearGradient id="linearGradient940" x1="-306.001" x2="-306.001" y1="281" y2="293" gradientUnits="userSpaceOnUse" xlink:href="#linearGradient904"/>
  <linearGradient id="linearGradient942" x1="-276.001" x2="-276.001" y1="281" y2="293" gradientUnits="userSpaceOnUse" xlink:href="#linearGradient904"/>
  <linearGradient id="linearGradient944" x1="-305" x2="-305" y1="280.999" y2="292.999" gradientUnits="userSpaceOnUse" xlink:href="#linearGradient904"/>
 </defs>
 <path id="shadow-topleft" style="opacity:1;fill:url(#radialGradient916);fill-opacity:1" d="m 139,17.998995 h 7.00002 v -2 c 0,-2.77 2.23,-5 5,-5 h 2 V 4 H 139 Z"/>
 <g id="shadow-left" transform="matrix(-1,0,0,1,434.00002,-239.00101)">
  <path style="opacity:1;fill:url(#linearGradient940);fill-opacity:1" transform="rotate(-90)" d="m -307,288 h 50 v 7.00002 h -50 z"/>
  <rect style="opacity:0;fill:#000000" width="7" height="1" x="278" y="257" transform="translate(3,2)"/>
 </g>
 <path id="shadow-bottomright" style="opacity:1;fill:url(#radialGradient912);fill-opacity:1" d="m 217,67.998995 h -6.99998 v 2 c 0,2.77 -2.23,5 -5,5 h -2 v 7.001007 L 217,82 Z"/>
 <g id="shadow-bottom" transform="rotate(90,336.50052,123.49951)">
  <path style="opacity:1;fill:url(#linearGradient938);fill-opacity:1" transform="rotate(-90)" d="m -307,288 h 50 v 7.00101 h -50 z"/>
  <rect style="opacity:0;fill:#000000" width="7" height="1" x="278" y="257" transform="translate(3,2)"/>
 </g>
 <g id="shadow-right" transform="translate(-77.999982,-239.00101)">
  <path style="opacity:1;fill:url(#linearGradient942);fill-opacity:1" transform="rotate(-90)" d="m -307,288 h 50 v 6.99998 h -50 z"/>
  <rect style="opacity:0;fill:#000000" width="7" height="1" x="278" y="257" transform="translate(3,2)"/>
 </g>
 <g id="shadow-top" transform="matrix(0,-1,-1,0,460.00002,298.999)">
  <path style="opacity:1;fill:url(#linearGradient944);fill-opacity:1" transform="rotate(-90)" d="m -307,288 h 50 v 6.99899 h -50 z"/>
  <rect style="opacity:0;fill:#000000" width="7" height="1" x="278" y="257" transform="translate(3,2)"/>
 </g>
 <path id="shadow-topright" style="opacity:1;fill:url(#radialGradient914);fill-opacity:1" d="m 203.00002,4 v 6.998995 h 2 c 2.77,0 5,2.23 5,5 v 2 H 217 V 4 Z"/>
 <path id="shadow-bottomleft" style="opacity:1;fill:url(#radialGradient910);fill-opacity:1" d="m 153.00002,82.000002 v -7.001007 h -2 c -2.77,0 -5,-2.23 -5,-5 v -2 H 139 v 14.001007 z"/>
 <rect id="center" style="fill:#1e1e1e;opacity:0.94;fill-opacity:1" width="50" height="50" x="7" y="28"/>
 <g id="topleft" transform="translate(-183,-231.00083)">
  <path style="fill:#1e1e1e;opacity:0.94;fill-opacity:1" d="m 190.00001,251.99982 v 7 h -7 v -2 c 0,-2.77 2.23,-5 5,-5 z"/>
 </g>
 <g id="left" transform="translate(-183,-231.00083)">
  <path style="fill:#1e1e1e;opacity:0.94;fill-opacity:1" d="m 183.00002,258.99981 v 50 l 7,10e-6 v -50 z"/>
 </g>
 <g id="right" transform="translate(-183,-231.00084)">
  <path style="fill:#1e1e1e;opacity:0.94;fill-opacity:1" d="m 247,258.99982 v 50 l -7,10e-6 v -50 z"/>
 </g>
 <g id="bottomleft" transform="translate(-183,-231.00092)">
  <path style="fill:#1e1e1e;opacity:0.94;fill-opacity:1" d="m 190.00001,315.99991 v -7 h -7 v 2 c 0,2.77 2.23,5 5,5 z"/>
 </g>
 <g id="bottom" transform="translate(-183,-231.00096)">
  <path style="fill:#1e1e1e;opacity:0.94;fill-opacity:1" d="M 189.99998,315.99995 H 240 v -7 h -50.00001 z"/>
 </g>
 <g id="bottomright" transform="translate(-183,-231.00092)">
  <path style="fill:#1e1e1e;opacity:0.94;fill-opacity:1" d="m 240,315.99991 v -7 h 7 v 2 c 0,2.77 -2.23,5 -5,5 z"/>
 </g>
 <g id="topright" transform="translate(-183,-231.00083)">
  <path style="fill:#1e1e1e;opacity:0.94;fill-opacity:1" d="m 240,251.99982 v 7 h 7 v -2 c 0,-2.77 -2.23,-5 -5,-5 z"/>
 </g>
 <g id="top" transform="translate(-183,-231.00083)">
  <path style="fill:#1e1e1e;opacity:0.94;fill-opacity:1" d="M 189.99998,251.99982 H 240 v 7 h -50.00001 z"/>
 </g>
 <rect id="hint-top-margin" style="fill:#ff0000;stroke-width:2.23606801" width="4" height="10" x="29" y="28"/>
 <rect id="hint-bottom-margin" style="fill:#ff0000;stroke-width:2.23606801" width="4" height="10" x="29" y="68"/>
 <rect id="hint-left-margin" style="fill:#ff0000;stroke-width:2.23606801" width="10" height="4" x="7" y="49"/>
 <rect id="hint-right-margin" style="fill:#ff0000;stroke-width:2.23606801" width="10" height="4" x="47" y="49"/>
 <rect id="mask-center" style="fill:#000000" width="50" height="50" x="75" y="28"/>
 <path id="mask-topleft" style="fill:#000000" d="m 75,20.999865 v 7 h -7 v -2 c 0,-2.77 2.23,-5 5,-5 z"/>
 <path id="mask-left" style="fill:#000000" d="m 68.00001,27.999855 v 50.00001 l 7,1e-5 v -50.00001 z"/>
 <path id="mask-right" style="fill:#000000" d="m 131.99999,27.999865 v 50.00001 l -7,1e-5 v -50.00001 z"/>
 <path id="mask-bottomleft" style="fill:#000000" d="m 75,84.999965 v -7 h -7 v 2 c 0,2.77 2.23,5 5,5 z"/>
 <path id="mask-bottom" style="fill:#000000" d="m 74.99997,85.000005 h 50.00002 v -7 H 74.99998 Z"/>
 <path id="mask-bottomright" style="fill:#000000" d="m 124.99999,84.999965 v -7 h 7 v 2 c 0,2.77 -2.23,5 -5,5 z"/>
 <path id="mask-topright" style="fill:#000000" d="m 124.99999,20.999865 v 7 h 7 v -2 c 0,-2.77 -2.23,-5 -5,-5 z"/>
 <path id="mask-top" style="fill:#000000" d="m 74.99997,20.999865 h 50.00002 v 7 H 74.99998 Z"/>
 <rect id="hint-tile-center" style="fill:#ff0000" width="5" height="5" x="0" y="0"/>
 <rect id="shadow-center" style="fill:none" width="50" height="50" x="153" y="18.06"/>
 <rect id="shadow-hint-right-margin" style="fill:#ff0000;stroke-width:0.83666003" width="7" height="4" x="210" y="41"/>
 <rect id="shadow-hint-bottom-margin" style="fill:#ff0000;stroke-width:0.83666003" width="4" height="7" x="176" y="75"/>
 <rect id="shadow-hint-left-margin" style="fill:#ff0000;stroke-width:0.83666003" width="7" height="4" x="139" y="41"/>
 <rect id="shadow-hint-top-margin" style="fill:#ff0000;stroke-width:0.83666003" width="4" height="7" x="177" y="4"/>
</svg>
