<svg xmlns="http://www.w3.org/2000/svg" width="14" height="14" version="1.1">
 <g>
  <path style="fill:#aeaeae" d="M 7.000061,14 C 10.86599,14 14,10.866 14,7 14,3.1340001 10.86599,1.75e-7 7.000061,1.75e-7 3.134019,1.75e-7 0,3.1340001 0,7 c 0,3.866 3.134019,7 7.000061,7"/>
  <path style="fill:#c0c0c0" d="m 7.000061,13.5 c 3.589781,0 6.499933,-2.750936 6.499933,-6.1441649 0,-3.3933228 -2.910152,-6.1440704 -6.499933,-6.1440704 -3.589913,0 -6.500067,2.7507476 -6.500067,6.1440704 C 0.499994,10.749064 3.410148,13.5 7.000061,13.5"/>
  <path style="opacity:0.5" d="M 6.984375 3 A 0.99996796 0.99647555 0 0 0 6 4.0097656 L 6 4.5859375 L 5.59375 4.1796875 A 0.99647566 0.99996783 45.001862 1 0 4.1796875 5.59375 L 4.5859375 6 L 4.0097656 6 A 0.99647578 0.99996774 0 1 0 4.0097656 8 L 4.5859375 8 L 4.1796875 8.40625 A 0.99996783 0.99647566 44.998138 0 0 4.1601562 9.8164062 A 0.99996783 0.99647566 44.998138 0 0 5.59375 9.8203125 L 6 9.4140625 L 6 9.9902344 A 0.99996796 0.99647555 0 1 0 8 9.9902344 L 8 9.4140625 L 8.40625 9.8203125 A 0.99647566 0.99996783 45.001862 0 0 9.8398438 9.8164062 A 0.99647566 0.99996783 45.001862 0 0 9.8203125 8.40625 L 9.4140625 8 L 9.9902344 8 A 0.99647578 0.99996774 0 0 0 11 6.984375 A 0.99647578 0.99996774 0 0 0 9.9902344 6 L 9.4140625 6 L 9.8203125 5.59375 A 0.99996783 0.99647566 44.998138 1 0 8.40625 4.1796875 L 8 4.5859375 L 8 4.0097656 A 0.99996796 0.99647555 0 0 0 6.984375 3 z M 7 6 A 1 1 0 0 1 8 7 A 1 1 0 0 1 7 8 A 1 1 0 0 1 6 7 A 1 1 0 0 1 7 6 z"/>
 </g>
</svg>
