<svg xmlns="http://www.w3.org/2000/svg" width="14" height="14" version="1.1">
 <g>
  <path style="fill:#aeaeae" d="M 7.000061,14 C 10.86599,14 14,10.866 14,7 14,3.1340001 10.86599,1.75e-7 7.000061,1.75e-7 3.134019,1.75e-7 0,3.1340001 0,7 c 0,3.866 3.134019,7 7.000061,7"/>
  <path style="fill:#c0c0c0" d="m 7.000061,13.5 c 3.589781,0 6.499933,-2.750936 6.499933,-6.1441649 0,-3.3933228 -2.910152,-6.1440704 -6.499933,-6.1440704 -3.589913,0 -6.500067,2.7507476 -6.500067,6.1440704 C 0.499994,10.749064 3.410148,13.5 7.000061,13.5"/>
  <path style="opacity:0.5" d="M 7 3 A 4 4 0 0 0 3 7 A 4 4 0 0 0 7 11 A 4 4 0 0 0 11 7 A 4 4 0 0 0 7 3 z M 7 5 A 2 2 0 0 1 9 7 A 2 2 0 0 1 7 9 A 2 2 0 0 1 5 7 A 2 2 0 0 1 7 5 z"/>
 </g>
</svg>
