<?xml version="1.0" encoding="UTF-8" standalone="no"?>
<!-- Created with Inkscape (http://www.inkscape.org/) -->

<svg
   xmlns:dc="http://purl.org/dc/elements/1.1/"
   xmlns:cc="http://creativecommons.org/ns#"
   xmlns:rdf="http://www.w3.org/1999/02/22-rdf-syntax-ns#"
   xmlns:svg="http://www.w3.org/2000/svg"
   xmlns="http://www.w3.org/2000/svg"
   xmlns:xlink="http://www.w3.org/1999/xlink"
   xmlns:sodipodi="http://sodipodi.sourceforge.net/DTD/sodipodi-0.dtd"
   xmlns:inkscape="http://www.inkscape.org/namespaces/inkscape"
   version="1.1"
   id="svg2"
   width="1920"
   height="1080"
   viewBox="0 0 1920 1080"
   sodipodi:docname="logo.svg"
   inkscape:version="0.92.5 (2060ec1f9f, 2020-04-08)">
  <metadata
     id="metadata8">
    <rdf:RDF>
      <cc:Work
         rdf:about="">
        <dc:format>image/svg+xml</dc:format>
        <dc:type
           rdf:resource="http://purl.org/dc/dcmitype/StillImage" />
        <dc:title></dc:title>
      </cc:Work>
    </rdf:RDF>
  </metadata>
  <defs
     id="defs6">
    <linearGradient
       inkscape:collect="always"
       xlink:href="#linearGradient3460"
       id="linearGradient3462"
       x1="155"
       y1="1042.5197"
       x2="155"
       y2="1077.5197"
       gradientUnits="userSpaceOnUse"
       gradientTransform="matrix(0.46963845,0,0,0.39916343,1709.549,539.85294)" />
    <linearGradient
       inkscape:collect="always"
       id="linearGradient3460">
      <stop
         style="stop-color:#ffffff;stop-opacity:1;"
         offset="0"
         id="stop3456" />
      <stop
         style="stop-color:#ffffff;stop-opacity:0;"
         offset="1"
         id="stop3458" />
    </linearGradient>
    <linearGradient
       inkscape:collect="always"
       xlink:href="#linearGradient3460"
       id="linearGradient867"
       x1="1713.4471"
       y1="956.75153"
       x2="1713.4471"
       y2="996.67834"
       gradientUnits="userSpaceOnUse"
       gradientTransform="matrix(1,0,0,0.91203274,0,84.152243)" />
  </defs>
  <sodipodi:namedview
     pagecolor="#898989"
     bordercolor="#666666"
     borderopacity="1"
     objecttolerance="10"
     gridtolerance="10"
     guidetolerance="10"
     inkscape:pageopacity="0"
     inkscape:pageshadow="2"
     inkscape:window-width="1920"
     inkscape:window-height="1027"
     id="namedview4"
     showgrid="false"
     inkscape:snap-global="false"
     inkscape:zoom="0.36"
     inkscape:cx="822.5655"
     inkscape:cy="581.76359"
     inkscape:window-x="0"
     inkscape:window-y="30"
     inkscape:window-maximized="1"
     inkscape:current-layer="svg2" />
  <g
     id="g873"
     transform="matrix(3.3368949,0,0,3.3368949,-4432.7629,-2582.1016)">
    <path
       inkscape:connector-curvature="0"
       id="path3423"
       d="m 1741.1597,940.76867 a 0.52696065,0.53093456 0 0 0 -0.5274,0.53139 v 14.079 a 0.52696065,0.53093456 0 0 0 0.5274,0.53138 h 1.7611 a 0.52696065,0.53093456 0 0 0 0.5265,-0.53138 v -5.22074 l 0.8192,-0.72454 4.611,6.26131 a 0.52696065,0.53093456 0 0 0 0.4238,0.21535 h 2.0749 a 0.52696065,0.53093456 0 0 0 0.4256,-0.84378 l -5.5009,-7.59766 5.2495,-5.81221 a 0.52696065,0.53093456 0 0 0 -0.3898,-0.88812 h -2.0547 a 0.52696065,0.53093456 0 0 0 -0.3926,0.17745 l -3.7772,4.25767 -1.2117,1.33825 c -0.094,0.10396 -0.1838,0.20754 -0.2771,0.31145 v -5.55343 a 0.52696065,0.53093456 0 0 0 -0.5265,-0.53139 z m 12.1152,0 a 0.52696065,0.53093456 0 0 0 -0.5274,0.53139 v 14.079 a 0.52696065,0.53093456 0 0 0 0.5274,0.53138 h 3.8947 c 2.3873,0 4.3278,-0.63288 5.7219,-1.93711 1.418,-1.32769 2.1051,-3.29522 2.1051,-5.77147 0,-1.57777 -0.2937,-2.93466 -0.909,-4.04512 -0.6085,-1.11117 -1.4898,-1.97066 -2.6087,-2.5415 -1.1172,-0.56994 -2.4242,-0.84657 -3.8984,-0.84657 z m 14.2882,0 a 0.52696065,0.53093456 0 0 0 -0.5274,0.53139 v 14.079 a 0.52696065,0.53093456 0 0 0 0.5274,0.53138 h 7.8087 a 0.52696065,0.53093456 0 0 0 0.5265,-0.53138 v -1.55729 a 0.52696065,0.53093456 0 0 0 -0.5265,-0.53138 h -5.5211 v -3.96567 h 5.1688 a 0.52696065,0.53093456 0 0 0 0.5274,-0.53138 v -1.53879 a 0.52696065,0.53093456 0 0 0 -0.5274,-0.53048 h -5.1688 v -3.33535 h 5.5211 a 0.52696065,0.53093456 0 0 0 0.5265,-0.53138 v -1.55728 a 0.52696065,0.53093456 0 0 0 -0.5265,-0.53139 z m 25.5283,0 v 14.94767 h 1.7171 v -14.94767 z m -11.4254,0.1941 v 14.94672 h 1.8694 v -5.81955 h 1.7043 c 1.4821,0 2.6515,-0.22244 3.5103,-0.66907 0.8727,-0.44659 1.49,-1.02666 1.8501,-1.73842 0.374,-0.72572 0.5605,-1.49998 0.5605,-2.32336 0,-1.39565 -0.4426,-2.47734 -1.3291,-3.24483 -0.8865,-0.76764 -2.2995,-1.15149 -4.2387,-1.15149 z m 1.8694,1.61175 h 1.8905 c 1.3159,0 2.279,0.23806 2.8884,0.71256 0.6095,0.47446 0.9145,1.19312 0.9145,2.15609 0,1.10251 -0.3466,1.88406 -1.0392,2.34466 -0.6926,0.46054 -1.7453,0.69037 -3.1582,0.69037 h -1.496 z m -27.9729,0.77355 h 1.763 c 1.5919,0 2.7349,0.40732 3.5315,1.17552 a 0.52696065,0.53093456 0 0 0 0.01,0.005 c 0.7875,0.73754 1.2209,1.93961 1.2209,3.73183 0,1.7765 -0.4398,3.0116 -1.2604,3.82149 -0.8205,0.8099 -2.0823,1.24948 -3.8882,1.24948 h -1.3723 z m 56.2438,1.97402 c -1.134,0 -2.0535,0.23455 -2.7591,0.70423 -0.693,0.46973 -1.0392,1.13677 -1.0392,1.99994 0,0.55859 0.1259,1.01602 0.3779,1.37147 0.252,0.3554 0.6097,0.66013 1.0759,0.91404 0.4662,0.25386 1.028,0.50668 1.6832,0.76059 0.6678,0.25386 1.1772,0.48359 1.53,0.68668 0.3654,0.20313 0.6172,0.40589 0.7558,0.60903 0.1386,0.20309 0.2082,0.43182 0.2082,0.68573 0,0.457 -0.1888,0.82513 -0.5668,1.1044 -0.378,0.26655 -0.9885,0.39923 -1.8327,0.39923 -0.5922,0 -1.1779,-0.0827 -1.7575,-0.24767 -0.567,-0.17777 -1.0525,-0.36709 -1.4557,-0.57023 v 1.52308 c 0.3906,0.20308 0.838,0.36165 1.342,0.47592 0.5166,0.11423 1.127,0.17096 1.8326,0.17096 1.2348,0 2.2173,-0.25282 2.9481,-0.76059 0.7308,-0.50786 1.0971,-1.25738 1.0971,-2.2476 0,-0.54587 -0.1202,-0.99662 -0.3596,-1.35207 -0.2394,-0.36818 -0.5857,-0.67859 -1.0393,-0.9325 -0.4535,-0.2539 -1.002,-0.5018 -1.6446,-0.74303 -0.6426,-0.25391 -1.1587,-0.47015 -1.5493,-0.64788 -0.378,-0.19041 -0.6489,-0.38072 -0.8127,-0.57113 -0.1638,-0.20313 -0.2458,-0.44436 -0.2458,-0.72363 0,-0.38086 0.1765,-0.67878 0.5293,-0.8946 0.3654,-0.22849 0.8881,-0.34381 1.5685,-0.34381 0.4914,0 0.9702,0.0643 1.4364,0.19131 0.4662,0.12691 0.9136,0.2797 1.342,0.45747 l 0.5669,-1.33356 c -0.4662,-0.21577 -0.9699,-0.3802 -1.5117,-0.49448 -0.5292,-0.127 -1.1025,-0.1913 -1.7199,-0.1913 z m 10.5641,0 c -0.6047,0 -1.1771,0.13452 -1.7189,0.40111 -0.5292,0.25386 -0.9517,0.64703 -1.2667,1.18016 h -0.095 l -0.2458,-1.38997 h -1.342 v 10.20669 h 1.663 v -5.29465 c 0,-1.19331 0.1955,-2.10736 0.5861,-2.74203 0.3906,-0.63477 1.0965,-0.951 2.1171,-0.951 1.3859,0 2.0794,0.80535 2.0794,2.41767 v 6.57001 h 1.6437 v -5.63662 c 0,-1.09177 0.208,-1.92305 0.6238,-2.49432 0.4284,-0.57132 1.1342,-0.85674 2.117,-0.85674 1.3734,0 2.0602,0.80535 2.0602,2.41767 v 6.57001 h 1.6437 v -6.64672 c 0,-1.32022 -0.2833,-2.27079 -0.8503,-2.85479 -0.567,-0.59663 -1.4245,-0.89648 -2.5711,-0.89648 -0.6552,0 -1.2781,0.14034 -1.8703,0.41961 -0.5796,0.27927 -1.0393,0.71081 -1.3795,1.29476 h -0.095 c -0.4788,-1.14254 -1.5119,-1.71437 -3.0995,-1.71437 z m -20.487,0.0194 c -0.6552,0 -1.2848,0.0894 -1.8896,0.26706 -0.6048,0.16509 -1.1284,0.36785 -1.5694,0.60903 l 0.5109,1.25691 c 0.4158,-0.20314 0.8632,-0.38091 1.342,-0.53328 0.4788,-0.16504 0.9833,-0.24766 1.5125,-0.24766 0.6678,0 1.1839,0.16438 1.5493,0.49443 0.3654,0.33009 0.5476,0.92109 0.5476,1.77163 v 0.60908 l -1.719,0.0582 c -1.6505,0.0507 -2.8734,0.35455 -3.6672,0.91309 -0.7938,0.54591 -1.1915,1.32718 -1.1915,2.34281 0,1.04095 0.3033,1.80793 0.9081,2.30302 0.6048,0.48241 1.3669,0.72458 2.2867,0.72458 0.8568,0 1.5245,-0.13358 2.0033,-0.40017 0.4914,-0.26664 0.9579,-0.67887 1.3989,-1.23746 h 0.075 l 0.3219,1.44727 h 1.2099 v -6.95078 c 0,-1.19327 -0.2976,-2.06217 -0.8897,-2.60803 -0.5922,-0.5459 -1.5051,-0.81973 -2.7399,-0.81973 z m 37.3271,0 c -0.6552,0 -1.2857,0.0894 -1.8905,0.26706 -0.6048,0.16509 -1.1275,0.36785 -1.5685,0.60903 l 0.51,1.25691 c 0.4158,-0.20314 0.8631,-0.38091 1.3419,-0.53328 0.4788,-0.16504 0.9834,-0.24766 1.5126,-0.24766 0.6678,0 1.1848,0.16438 1.5502,0.49443 0.3654,0.33009 0.5476,0.92109 0.5476,1.77163 v 0.60908 l -1.719,0.0582 c -1.6506,0.0507 -2.8734,0.35455 -3.6672,0.91309 -0.7938,0.54591 -1.1915,1.32718 -1.1915,2.34281 0,1.04095 0.3033,1.80793 0.9081,2.30302 0.6048,0.48241 1.3669,0.72458 2.2867,0.72458 0.8568,0 1.5245,-0.13358 2.0033,-0.40017 0.4914,-0.26664 0.9578,-0.67887 1.3988,-1.23746 h 0.075 l 0.3219,1.44727 h 1.209 v -6.95078 c 0,-1.19327 -0.2967,-2.06217 -0.8889,-2.60803 -0.5922,-0.5459 -1.505,-0.81973 -2.7398,-0.81973 z m -35.3422,5.3898 v 0.914 c 0,0.99017 -0.2842,1.72644 -0.8512,2.2088 -0.567,0.46977 -1.2786,0.70423 -2.1354,0.70423 -0.5418,0 -0.9891,-0.13362 -1.3419,-0.40016 -0.3402,-0.26659 -0.51,-0.68559 -0.51,-1.25691 0,-0.64741 0.2394,-1.14813 0.7182,-1.50363 0.4914,-0.3555 1.3671,-0.5592 2.627,-0.60997 z m 37.3271,0 v 0.914 c 0,0.99017 -0.2842,1.72644 -0.8512,2.2088 -0.567,0.46977 -1.2786,0.70423 -2.1354,0.70423 -0.5418,0 -0.9891,-0.13362 -1.3419,-0.40016 -0.3402,-0.26659 -0.51,-0.68559 -0.51,-1.25691 0,-0.64741 0.2394,-1.14813 0.7182,-1.50363 0.4914,-0.3555 1.3661,-0.5592 2.6261,-0.60997 z"
       style="font-style:normal;font-variant:normal;font-weight:normal;font-stretch:normal;font-size:16px;line-height:1.25;font-family:'Noto Sans';-inkscape-font-specification:'Noto Sans';letter-spacing:0px;word-spacing:0px;fill:#ffffff;fill-opacity:1;stroke:none;stroke-width:1.30348408" />
    <path
       style="font-style:normal;font-variant:normal;font-weight:normal;font-stretch:normal;font-size:16px;line-height:1.25;font-family:'Noto Sans';-inkscape-font-specification:'Noto Sans';letter-spacing:0px;word-spacing:0px;opacity:0.2;fill:url(#linearGradient3462);fill-opacity:1;stroke:none;stroke-width:1.19720292"
       d="m 1741.1597,969.15948 a 0.52696065,0.44788376 0 0 1 -0.5274,-0.44848 v -11.8763 a 0.52696065,0.44788376 0 0 1 0.5274,-0.44829 h 1.7611 a 0.52696065,0.44788376 0 0 1 0.5265,0.44829 v 4.40379 l 0.8192,0.61088 4.611,-5.28117 a 0.52696065,0.44788376 0 0 1 0.4238,-0.18179 h 2.0749 a 0.52696065,0.44788376 0 0 1 0.4256,0.71119 l -5.5009,6.40918 5.2495,4.90389 a 0.52696065,0.44788376 0 0 1 -0.3898,0.74881 h -2.0547 a 0.52696065,0.44788376 0 0 1 -0.3926,-0.14943 l -3.7772,-3.59172 -1.2117,-1.12944 c -0.094,-0.0876 -0.1838,-0.17465 -0.2771,-0.26204 v 4.68415 a 0.52696065,0.44788376 0 0 1 -0.5265,0.44848 z m 12.1152,0 a 0.52696065,0.44788376 0 0 1 -0.5274,-0.44848 v -11.8763 a 0.52696065,0.44788376 0 0 1 0.5274,-0.44829 h 3.8947 c 2.3873,0 4.3278,0.53341 5.7219,1.63398 1.418,1.11974 2.1051,2.77932 2.1051,4.86889 0,1.331 -0.2937,2.4752 -0.909,3.41229 -0.6085,0.93685 -1.4898,1.66266 -2.6087,2.14398 -1.1172,0.48037 -2.4242,0.71393 -3.8984,0.71393 z m 14.2882,0 a 0.52696065,0.44788376 0 0 1 -0.5274,-0.44848 v -11.8763 a 0.52696065,0.44788376 0 0 1 0.5274,-0.44829 h 7.8087 a 0.52696065,0.44788376 0 0 1 0.5265,0.44829 v 1.31359 a 0.52696065,0.44788376 0 0 1 -0.5265,0.44834 h -5.5211 v 3.3451 h 5.1688 a 0.52696065,0.44788376 0 0 1 0.5274,0.44848 v 1.29765 a 0.52696065,0.44788376 0 0 1 -0.5274,0.44763 h -5.1688 v 2.81377 h 5.5211 a 0.52696065,0.44788376 0 0 1 0.5265,0.44838 v 1.31336 a 0.52696065,0.44788376 0 0 1 -0.5265,0.44848 z m 25.5283,0 v -12.60973 h 1.7171 v 12.60973 z m -11.4254,-0.16334 v -12.60888 h 1.8694 v 4.90934 h 1.7043 c 1.4821,0 2.6515,0.18761 3.5103,0.56379 0.8727,0.37727 1.49,0.86692 1.8501,1.46724 0.374,0.61211 0.5605,1.26495 0.5605,1.9592 0,1.1777 -0.4426,2.09056 -1.3291,2.73777 -0.8865,0.64698 -2.2995,0.97154 -4.2387,0.97154 z m 1.8694,-1.36016 h 1.8905 c 1.3159,0 2.279,-0.20063 2.8884,-0.60122 0.6095,-0.39965 0.9145,-1.00641 0.9145,-1.81834 0,-0.93041 -0.3466,-1.58984 -1.0392,-1.97794 -0.6926,-0.38857 -1.7453,-0.58281 -3.1582,-0.58281 h -1.496 z m -27.9729,-0.6527 h 1.763 c 1.5919,0 2.7349,-0.34372 3.5315,-0.99132 a 0.52696065,0.44788376 0 0 1 0.01,-0.005 c 0.7875,-0.62195 1.2209,-1.63635 1.2209,-3.14769 0,-1.49889 -0.4398,-2.54031 -1.2604,-3.22406 -0.8205,-0.68256 -2.0823,-1.05344 -3.8882,-1.05344 h -1.3723 z m 56.2438,-1.66475 c -1.134,0 -2.0535,-0.1984 -2.7591,-0.59464 -0.693,-0.39634 -1.0392,-0.95881 -1.0392,-1.68703 0,-0.47129 0.1259,-0.85717 0.3779,-1.15631 0.252,-0.30037 0.6097,-0.55774 1.0759,-0.77185 0.4662,-0.21359 1.028,-0.42672 1.6832,-0.64163 0.6678,-0.21402 1.1772,-0.40784 1.53,-0.57866 0.3654,-0.1719 0.6172,-0.34206 0.7558,-0.51387 0.1386,-0.17172 0.2082,-0.36421 0.2082,-0.57884 0,-0.38545 -0.1888,-0.69557 -0.5668,-0.93174 -0.378,-0.22429 -0.9885,-0.33591 -1.8327,-0.33591 -0.5922,0 -1.1779,0.0691 -1.7575,0.20806 -0.567,0.15033 -1.0525,0.31021 -1.4557,0.48179 v -1.28549 c 0.3906,-0.17077 0.838,-0.30477 1.342,-0.40078 0.5166,-0.097 1.127,-0.14437 1.8326,-0.14437 1.2348,0 2.2173,0.21269 2.9481,0.64177 0.7308,0.4279 1.0971,1.06073 1.0971,1.89523 0,0.4606 -0.1202,0.84075 -0.3596,1.14112 -0.2394,0.31084 -0.5857,0.57213 -1.0393,0.78624 -0.4535,0.21492 -1.002,0.42316 -1.6446,0.62677 -0.6426,0.2145 -1.1587,0.39648 -1.5493,0.54672 -0.378,0.16093 -0.6489,0.321 -0.8127,0.48212 -0.1638,0.17077 -0.2458,0.3741 -0.2458,0.61031 0,0.32157 0.1765,0.57217 0.5293,0.75481 0.3654,0.19287 0.8881,0.2894 1.5685,0.2894 0.4914,0 0.9702,-0.0544 1.4364,-0.16064 0.4662,-0.10784 0.9136,-0.23655 1.342,-0.38635 l 0.5669,1.12508 c -0.4662,0.18212 -0.9699,0.32095 -1.5117,0.41687 -0.5292,0.1075 -1.1025,0.16182 -1.7199,0.16182 z m 10.5641,0 c -0.6047,0 -1.1771,-0.11318 -1.7189,-0.33884 -0.5292,-0.21378 -0.9517,-0.54534 -1.2667,-0.99552 h -0.095 l -0.2458,1.17254 h -1.342 v -8.61027 h 1.663 v 4.46701 c 0,1.00664 0.1955,1.77778 0.5861,2.31333 0.3906,0.53531 1.0965,0.80218 2.1171,0.80218 1.3859,0 2.0794,-0.67972 2.0794,-2.03997 v -5.54255 h 1.6437 v 4.75508 c 0,0.92114 0.208,1.6222 0.6238,2.1039 0.4284,0.48274 1.1342,0.72354 2.117,0.72354 1.3734,0 2.0602,-0.67972 2.0602,-2.03997 v -5.54255 h 1.6437 v 5.60695 c 0,1.11377 -0.2833,1.91543 -0.8503,2.40891 -0.567,0.50294 -1.4245,0.75623 -2.5711,0.75623 -0.6552,0 -1.2781,-0.11853 -1.8703,-0.3546 -0.5796,-0.23488 -1.0393,-0.59952 -1.3795,-1.09158 h -0.095 c -0.4788,0.96307 -1.5119,1.44618 -3.0995,1.44618 z m -20.487,-0.0194 c -0.6552,0 -1.2848,-0.0752 -1.8896,-0.2249 -0.6048,-0.13907 -1.1284,-0.31055 -1.5694,-0.51382 l 0.5109,-1.06026 c 0.4158,0.17115 0.8632,0.32148 1.342,0.44985 0.4788,0.13945 0.9833,0.20839 1.5125,0.20839 0.6678,0 1.1839,-0.13845 1.5493,-0.41673 0.3654,-0.27804 0.5476,-0.77663 0.5476,-1.49454 v -0.51397 l -1.719,-0.0491 c -1.6505,-0.0431 -2.8734,-0.2992 -3.6672,-0.77048 -0.7938,-0.4606 -1.1915,-1.11922 -1.1915,-1.97615 0,-0.8776 0.3033,-1.52543 0.9081,-1.94292 0.6048,-0.40665 1.3669,-0.61092 2.2867,-0.61092 0.8568,0 1.5245,0.11228 2.0033,0.33808 0.4914,0.22448 0.9579,0.57232 1.3989,1.04365 h 0.075 l 0.3219,-1.2217 h 1.2099 v 5.8636 c 0,1.0074 -0.2976,1.73993 -0.8897,2.20038 -0.5922,0.4604 -1.5051,0.6915 -2.7399,0.6915 z m 37.3271,0 c -0.6552,0 -1.2857,-0.0752 -1.8905,-0.2249 -0.6048,-0.13907 -1.1275,-0.31055 -1.5685,-0.51382 l 0.51,-1.06026 c 0.4158,0.17115 0.8631,0.32148 1.3419,0.44985 0.4788,0.13945 0.9834,0.20839 1.5126,0.20839 0.6678,0 1.1848,-0.13845 1.5502,-0.41673 0.3654,-0.27804 0.5476,-0.77663 0.5476,-1.49454 v -0.51397 l -1.719,-0.0491 c -1.6506,-0.0431 -2.8734,-0.2992 -3.6672,-0.77048 -0.7938,-0.4606 -1.1915,-1.11922 -1.1915,-1.97615 0,-0.8776 0.3033,-1.52543 0.9081,-1.94292 0.6048,-0.40665 1.3669,-0.61092 2.2867,-0.61092 0.8568,0 1.5245,0.11228 2.0033,0.33808 0.4914,0.22448 0.9578,0.57232 1.3988,1.04365 h 0.075 l 0.3219,-1.2217 h 1.209 v 5.8636 c 0,1.0074 -0.2967,1.73993 -0.8889,2.20038 -0.5922,0.4604 -1.505,0.6915 -2.7398,0.6915 z m -35.3422,-4.5465 v -0.77138 c 0,-0.83483 -0.2842,-1.4564 -0.8512,-1.86333 -0.567,-0.3961 -1.2786,-0.59351 -2.1354,-0.59351 -0.5418,0 -0.9891,0.11271 -1.3419,0.33719 -0.3402,0.22528 -0.51,0.57846 -0.51,1.06025 0,0.5469 0.2394,0.96846 0.7182,1.26864 0.4914,0.30014 1.3671,0.47162 2.627,0.51468 z m 37.3271,0 v -0.77138 c 0,-0.83483 -0.2842,-1.4564 -0.8512,-1.86333 -0.567,-0.3961 -1.2786,-0.59351 -2.1354,-0.59351 -0.5418,0 -0.9891,0.11271 -1.3419,0.33719 -0.3402,0.22528 -0.51,0.57846 -0.51,1.06025 0,0.5469 0.2394,0.96846 0.7182,1.26864 0.4914,0.30014 1.3661,0.47162 2.6261,0.51468 z"
       id="path3454"
       inkscape:connector-curvature="0" />
    <path
       style="fill:#ffffff;stroke-width:1.47781456"
       d="m 1716.6344,914.51441 -7.3863,0.68454 v 28.8838 l 7.3863,-1.47834 v -11.82723 l 8.8633,13.30557 7.3862,-2.95668 -9.6022,-12.43974 9.6076,-12.69357 -7.7348,-1.47835 -8.5201,12.56666 z m -15.9407,6.82625 c -0.1818,-0.009 -0.3571,0.0458 -0.5019,0.19062 l -3.1363,3.13848 c -0.2894,0.28957 -0.2894,0.7556 0,1.04518 l 3.2401,5.0936 c -0.2593,0.52363 -0.4838,1.06381 -0.6722,1.61701 l -5.886,1.30831 c -0.4093,0 -0.7384,0.3294 -0.7384,0.73892 v 4.43552 c 0,0.40953 0.3389,0.6501 0.7384,0.73894 l 5.8889,1.31124 c 0.1824,0.54779 0.3998,1.08286 0.6518,1.60232 l -3.2457,5.10535 c -0.2197,0.34549 -0.2893,0.75561 0,1.04518 l 3.1335,3.13897 c 0.2893,0.2896 0.755,0.2896 1.0443,0 l 5.1008,-3.25167 c 0.5277,0.26307 1.0724,0.49087 1.6304,0.68159 l 1.3067,5.89038 c 0,0.4095 0.3297,0.7394 0.7388,0.7394 h 4.4314 c 0.4093,0 0.6501,-0.3396 0.7389,-0.7394 l 1.3097,-5.89331 c 0.5555,-0.18533 1.0982,-0.40703 1.6245,-0.66396 l 5.0777,3.23697 c 0.2894,0.2896 0.755,0.2896 1.0443,0 l 3.1365,-3.13897 c 0.2893,-0.28957 0.2196,-0.69969 0,-1.04518 l -1.3851,-2.17708 -1.0326,0.41257 -3.3092,-4.96619 c -1.6678,3.71138 -5.3539,6.09983 -9.4201,6.104 -5.7109,0 -10.3405,-4.63337 -10.3405,-10.3489 0.01,-3.99294 2.3038,-7.62676 5.9086,-9.33802 v -3.18209 c -0.4971,0.17026 -0.9836,0.36993 -1.4571,0.59781 l -5.0777,-3.23697 c -0.1726,-0.10994 -0.3607,-0.1819 -0.5425,-0.19062 z"
       id="path3513"
       inkscape:connector-curvature="0" />
    <path
       inkscape:connector-curvature="0"
       id="path859"
       d="m 1716.6344,994.38554 -7.3863,-0.62432 v -26.34297 l 7.3863,1.34829 v 10.78682 l 8.8633,-12.13511 7.3862,2.69659 -9.6022,11.34545 9.6076,11.57695 -7.7348,1.3483 -8.5201,-11.4612 z m -15.9407,-6.22576 c -0.1818,0.008 -0.3571,-0.0418 -0.5019,-0.17385 l -3.1363,-2.8624 c -0.2894,-0.2641 -0.2894,-0.68913 0,-0.95324 l 3.2401,-4.64553 c -0.2593,-0.47756 -0.4838,-0.97023 -0.6722,-1.47476 l -5.886,-1.19322 c -0.4093,0 -0.7384,-0.30043 -0.7384,-0.67392 v -4.04534 c 0,-0.37351 0.3389,-0.59292 0.7384,-0.67394 l 5.8889,-1.19589 c 0.1824,-0.49961 0.3998,-0.98761 0.6518,-1.46137 l -3.2457,-4.65625 c -0.2197,-0.3151 -0.2893,-0.68914 0,-0.95324 l 3.1335,-2.86284 c 0.2893,-0.26413 0.755,-0.26413 1.0443,0 l 5.1008,2.96563 c 0.5277,-0.23993 1.0724,-0.44769 1.6304,-0.62163 l 1.3067,-5.37222 c 0,-0.37348 0.3297,-0.67436 0.7388,-0.67436 h 4.4314 c 0.4093,0 0.6501,0.30973 0.7389,0.67436 l 1.3097,5.37489 c 0.5555,0.16903 1.0982,0.37122 1.6245,0.60555 l 5.0777,-2.95222 c 0.2894,-0.26413 0.755,-0.26413 1.0443,0 l 3.1365,2.86284 c 0.2893,0.2641 0.2196,0.63814 0,0.95324 l -1.3851,1.98557 -1.0326,-0.37628 -3.3092,4.52933 c -1.6678,-3.3849 -5.3539,-5.56324 -9.4201,-5.56705 -5.7109,0 -10.3405,4.22579 -10.3405,9.43854 0.01,3.64169 2.3038,6.95585 5.9086,8.51658 v 2.90217 c -0.4971,-0.15528 -0.9836,-0.33739 -1.4571,-0.54522 l -5.0777,2.95222 c -0.1726,0.10027 -0.3607,0.1659 -0.5425,0.17385 z"
       style="opacity:0.2;fill:url(#linearGradient867);fill-opacity:1;stroke-width:1.4113189" />
  </g>
</svg>
