<svg xmlns="http://www.w3.org/2000/svg" xmlns:xlink="http://www.w3.org/1999/xlink" id="svg109" width="238" height="68" version="1">
 <defs id="defs15">
  <linearGradient id="linearGradient2543" x1="534.276" x2="551.848" y1="273.576" y2="315.783" gradientTransform="translate(-515.79589,-260.20121)" gradientUnits="userSpaceOnUse" xlink:href="#linearGradient2428"/>
  <linearGradient id="linearGradient2428">
   <stop id="stop2424" style="stop-color:#ffffff;stop-opacity:0" offset="0"/>
   <stop id="stop2434" style="stop-color:#ffffff;stop-opacity:0.63529412" offset=".444"/>
   <stop id="stop2426" style="stop-color:#ffffff;stop-opacity:0" offset="1"/>
  </linearGradient>
  <linearGradient id="linearGradient2254" x1="555.467" x2="585.649" y1="346.256" y2="308.252" gradientTransform="translate(-515.79588,-260.20121)" gradientUnits="userSpaceOnUse" xlink:href="#linearGradient2446"/>
  <linearGradient id="linearGradient2446">
   <stop id="stop2440" style="stop-color:#ffffff;stop-opacity:0" offset="0"/>
   <stop id="stop2442" style="stop-color:#d6b294;stop-opacity:0.63529414" offset=".605"/>
   <stop id="stop2444" style="stop-color:#ffffff;stop-opacity:0" offset="1"/>
  </linearGradient>
  <linearGradient id="linearGradient2514" x1="534.276" x2="551.848" y1="273.576" y2="315.783" gradientTransform="translate(-515.79588,-260.20121)" gradientUnits="userSpaceOnUse" xlink:href="#linearGradient2428"/>
  <linearGradient id="linearGradient2524" x1="534.276" x2="551.848" y1="273.576" y2="315.783" gradientTransform="translate(-515.79589,-260.2012)" gradientUnits="userSpaceOnUse" xlink:href="#linearGradient2428"/>
  <linearGradient id="linearGradient1102" x1="534.276" x2="551.848" y1="273.576" y2="315.783" gradientTransform="translate(-515.79589,-260.20121)" gradientUnits="userSpaceOnUse" xlink:href="#linearGradient2428"/>
  <linearGradient id="linearGradient1104" x1="555.467" x2="585.649" y1="346.256" y2="308.252" gradientTransform="translate(-515.79588,-260.20121)" gradientUnits="userSpaceOnUse" xlink:href="#linearGradient2446"/>
  <linearGradient id="linearGradient1106" x1="534.276" x2="551.848" y1="273.576" y2="315.783" gradientTransform="translate(-515.79588,-260.20121)" gradientUnits="userSpaceOnUse" xlink:href="#linearGradient2428"/>
  <linearGradient id="linearGradient1108" x1="555.467" x2="585.649" y1="346.256" y2="308.252" gradientTransform="translate(-515.79588,-260.20121)" gradientUnits="userSpaceOnUse" xlink:href="#linearGradient2446"/>
  <linearGradient id="linearGradient1110" x1="534.276" x2="551.848" y1="273.576" y2="315.783" gradientTransform="translate(-515.79588,-260.20121)" gradientUnits="userSpaceOnUse" xlink:href="#linearGradient2428"/>
  <linearGradient id="linearGradient1112" x1="555.467" x2="585.649" y1="346.256" y2="308.252" gradientTransform="translate(-515.79588,-260.20121)" gradientUnits="userSpaceOnUse" xlink:href="#linearGradient2446"/>
  <linearGradient id="linearGradient1114" x1="534.276" x2="551.848" y1="273.576" y2="315.783" gradientTransform="translate(-515.79588,-260.20121)" gradientUnits="userSpaceOnUse" xlink:href="#linearGradient2428"/>
  <linearGradient id="linearGradient1116" x1="555.467" x2="585.649" y1="346.256" y2="308.252" gradientTransform="translate(-515.79588,-260.20121)" gradientUnits="userSpaceOnUse" xlink:href="#linearGradient2446"/>
  <linearGradient id="linearGradient1118" x1="555.467" x2="585.649" y1="346.256" y2="308.252" gradientTransform="translate(-515.79588,-260.20121)" gradientUnits="userSpaceOnUse" xlink:href="#linearGradient2446"/>
  <linearGradient id="linearGradient1120" x1="534.276" x2="551.848" y1="273.576" y2="315.783" gradientTransform="translate(-515.79589,-260.20121)" gradientUnits="userSpaceOnUse" xlink:href="#linearGradient2428"/>
  <linearGradient id="linearGradient1122" x1="555.467" x2="585.649" y1="346.256" y2="308.252" gradientTransform="translate(-515.79588,-260.20121)" gradientUnits="userSpaceOnUse" xlink:href="#linearGradient2446"/>
  <linearGradient id="linearGradient1124" x1="534.276" x2="551.848" y1="273.576" y2="315.783" gradientTransform="translate(-515.79589,-260.20121)" gradientUnits="userSpaceOnUse" xlink:href="#linearGradient2428"/>
  <linearGradient id="linearGradient1126" x1="555.467" x2="585.649" y1="346.256" y2="308.252" gradientTransform="translate(-515.79588,-260.20121)" gradientUnits="userSpaceOnUse" xlink:href="#linearGradient2446"/>
  <linearGradient id="linearGradient2380" x1="-73" x2="-73" y1="1134.393" y2="1144.75" gradientTransform="matrix(0,-1,0.96551724,0,-1010.2759,257)" gradientUnits="userSpaceOnUse" xlink:href="#linearGradient3837"/>
  <linearGradient id="linearGradient3837">
   <stop id="stop109" offset="0"/>
   <stop id="stop111" style="stop-opacity:0" offset="1"/>
  </linearGradient>
  <linearGradient id="linearGradient2376" x1="-73" x2="-73" y1="1134.393" y2="1144.75" gradientTransform="matrix(0,-1,-0.96551724,0,1132.2759,257)" gradientUnits="userSpaceOnUse" xlink:href="#linearGradient3837"/>
  <linearGradient id="linearGradient2372" x1="-73" x2="-73" y1="1134.393" y2="1144.75" gradientTransform="matrix(1,0,0,-0.96551724,110,1377.2759)" gradientUnits="userSpaceOnUse" xlink:href="#linearGradient3837"/>
  <linearGradient id="linearGradient2366" x1="-73" x2="-73" y1="1134.393" y2="1145.25" gradientTransform="matrix(1,0,0,0.96551724,110,-765.27586)" gradientUnits="userSpaceOnUse" xlink:href="#linearGradient3837"/>
  <radialGradient id="radialGradient2400" cx="-24.992" cy="1132.5" r="3.625" fx="-25.436" fy="1134.054" gradientTransform="matrix(3.0422062e-5,-2.7586201,2.7585922,3.0421754e-5,-3087.106,213.02233)" gradientUnits="userSpaceOnUse" xlink:href="#linearGradient3837"/>
  <radialGradient id="radialGradient2404" cx="-24.992" cy="1132.5" r="3.625" fx="-25.436" fy="1134.054" gradientTransform="matrix(-3.0422025e-5,-2.7586171,-2.7585922,3.042175e-5,3209.106,213.0224)" gradientUnits="userSpaceOnUse" xlink:href="#linearGradient3837"/>
  <radialGradient id="radialGradient2390" cx="-24.992" cy="1132.5" r="3.625" fx="-25.436" fy="1134.054" gradientTransform="matrix(-3.0422025e-5,2.7586171,-2.7585922,-3.042175e-5,3209.106,398.9776)" gradientUnits="userSpaceOnUse" xlink:href="#linearGradient3837"/>
  <radialGradient id="radialGradient2396" cx="-24.992" cy="1132.5" r="3.625" fx="-25.436" fy="1134.054" gradientTransform="matrix(3.5491732e-5,2.8712101,2.7585922,-3.4099634e-5,-3087.1059,401.79568)" gradientUnits="userSpaceOnUse" xlink:href="#linearGradient3837"/>
  <linearGradient id="linearGradient2309" x1="555.467" x2="585.649" y1="346.256" y2="308.252" gradientTransform="translate(-515.79588,-260.20121)" gradientUnits="userSpaceOnUse" xlink:href="#linearGradient2446"/>
 </defs>
 <rect id="shadow-center" style="opacity:0.00100002;stroke-width:0.95999998" width="48" height="48" x="180" y="10"/>
 <g id="bottom" style="opacity:0.8" transform="translate(72,-14)">
  <path id="path2279" style="opacity:1;fill:#343434;fill-opacity:1;fill-rule:evenodd" d="m 15,71 v 3 h 48 v -3 z"/>
  <path id="path2534" style="opacity:0.2;fill:url(#linearGradient1102);fill-opacity:1;fill-rule:evenodd" d="m 15,71 v 3 h 48 v -3 z"/>
  <path id="path2226" style="opacity:0.15;fill:url(#linearGradient1104);fill-opacity:1;fill-rule:evenodd" d="m 15,71 v 3 h 48 v -3 z"/>
 </g>
 <g id="bottomleft" style="opacity:0.8" transform="translate(72,-14)">
  <path id="path2283" style="opacity:1;fill:#343434;fill-opacity:1;fill-rule:evenodd" d="m 12,71 c 0,1.662 1.338,3 3,3 v -3 z"/>
  <path id="path2422" style="opacity:0.2;fill:url(#linearGradient1106);fill-opacity:1;fill-rule:evenodd" d="m 12,71 c 0,1.662 1.338,3 3,3 v -3 z"/>
  <path id="path2607" style="opacity:0.15;fill:url(#linearGradient1108);fill-opacity:1;fill-rule:evenodd" d="m 12,71 c 0,1.662 1.338,3 3,3 v -3 z"/>
 </g>
 <g id="bottomright" style="opacity:0.8" transform="translate(72,-14)">
  <path id="path2285" style="opacity:1;fill:#343434;fill-opacity:1;fill-rule:evenodd" d="m 63,71 v 3 c 1.662,0 3,-1.338 3,-3 z"/>
  <path id="path2506" style="opacity:0.2;fill:url(#linearGradient1110);fill-opacity:1;fill-rule:evenodd" d="m 63,71 v 3 c 1.662,0 3,-1.338 3,-3 z"/>
  <path id="path2602" style="opacity:0.15;fill:url(#linearGradient1112);fill-opacity:1;fill-rule:evenodd" d="m 63,71 v 3 c 1.662,0 3,-1.338 3,-3 z"/>
 </g>
 <g id="center" style="opacity:0.8" transform="translate(72,-14)">
  <path id="path2292" style="opacity:1;fill:#343434;fill-opacity:1;fill-rule:evenodd" d="M 15,23 V 71 H 63 V 23 Z"/>
  <path id="path2522" style="opacity:0.2;fill:url(#linearGradient2524);fill-opacity:1;fill-rule:evenodd" d="M 15,23 V 71 H 63 V 23 Z"/>
  <path id="path2436" style="opacity:0.15;fill:url(#linearGradient1116);fill-opacity:1;fill-rule:evenodd" d="M 15,23 V 71 H 63 V 23 Z"/>
 </g>
 <g id="topleft" style="opacity:0.8" transform="translate(72,-14)">
  <path id="path2295" style="opacity:1;fill:#343434;fill-opacity:1;fill-rule:evenodd" d="m 15,20 c -1.66199,0 -3,1.338 -3,3 h 3 z"/>
  <path id="path2512" style="opacity:0.2;fill:url(#linearGradient2514);fill-opacity:1;fill-rule:evenodd" d="m 15,20 c -1.66199,0 -3,1.338 -3,3 h 3 z"/>
  <path id="path2584" style="opacity:0.15;fill:url(#linearGradient1118);fill-opacity:1;fill-rule:evenodd" d="m 15,20 c -1.66199,0 -3,1.338 -3,3 h 3 z"/>
 </g>
 <g id="top" style="opacity:0.8" transform="translate(72,-14)">
  <path id="path2301" style="opacity:1;fill:#343434;fill-opacity:1;fill-rule:evenodd" d="m 15,20 v 3 h 48 v -3 z"/>
  <path id="path2530" style="opacity:0.2;fill:url(#linearGradient1120);fill-opacity:1;fill-rule:evenodd" d="m 15,20 v 3 h 48 v -3 z"/>
  <path id="path2218" style="opacity:0.15;fill:url(#linearGradient1122);fill-opacity:1;fill-rule:evenodd" d="m 15,20 v 3 h 48 v -3 z"/>
 </g>
 <g id="left" style="opacity:0.8" transform="translate(72,-14)">
  <path id="path2304" style="opacity:1;fill:#343434;fill-opacity:1;fill-rule:evenodd" d="m 12,23 v 48 h 3 V 23 Z"/>
  <path id="path2538" style="opacity:0.2;fill:url(#linearGradient1124);fill-opacity:1;fill-rule:evenodd" d="m 12,23 v 48 h 3 V 23 Z"/>
  <path id="path2232" style="opacity:0.15;fill:url(#linearGradient1126);fill-opacity:1;fill-rule:evenodd" d="m 12,23 v 48 h 3 V 23 Z"/>
 </g>
 <g id="right" style="opacity:0.8" transform="translate(72,-14)">
  <path id="path2306" style="opacity:1;fill:#343434;fill-opacity:1;fill-rule:evenodd" d="m 63,23 v 48 h 3 V 23 Z"/>
  <path id="path2536" style="opacity:0.2;fill:url(#linearGradient2543);fill-opacity:1;fill-rule:evenodd" d="m 63,23 v 48 h 3 V 23 Z"/>
  <path id="path2246" style="opacity:0.15;fill:url(#linearGradient2254);fill-opacity:1;fill-rule:evenodd" d="m 63,23 v 48 h 3 V 23 Z"/>
 </g>
 <g id="shadow-bottomleft" style="opacity:1" transform="translate(143,-272)">
  <path id="path2394" style="opacity:0.25;fill:url(#radialGradient2396);fill-opacity:1;fill-rule:evenodd;stroke-width:0.8163265" d="m 34,330 c 0,0.9899 1,2.9697 3,2.9697 V 340 H 27 v -10 z"/>
  <path id="path2220" style="opacity:0.00100002;fill:#000000;fill-opacity:1;fill-rule:evenodd" d="m 34,330 c 0,1.662 1.338,3 3,3 v -3 z"/>
 </g>
 <g id="shadow-bottomright" style="opacity:1" transform="translate(143,-272)">
  <path id="path2384" style="opacity:0.25;fill:url(#radialGradient2390);fill-opacity:1;fill-rule:evenodd;stroke-width:0.8163265" d="m 88,330 c 0,0.9899 -1,2.9697 -3,2.9697 V 340 h 10 v -10 z"/>
  <path id="path2229" style="opacity:0.00100002;fill:#000000;fill-opacity:1;fill-rule:evenodd" d="m 85,330 v 3 c 1.662,0 3,-1.338 3,-3 z"/>
 </g>
 <g id="shadow-topright" style="opacity:1" transform="translate(143,-272)">
  <path id="path2402" style="opacity:0.25;fill:url(#radialGradient2404);fill-opacity:1;fill-rule:evenodd;stroke-width:0.8163265" d="m 88,282 c 0,-0.9899 -1,-2.9697 -3,-2.9697 V 272 h 10 v 10 z"/>
  <path id="path2239" style="opacity:0.00100002;fill:#000000;fill-opacity:1;fill-rule:evenodd" d="m 85,279 v 3 h 3 c 0,-1.662 -1.33799,-3 -3,-3 z"/>
 </g>
 <g id="shadow-topleft" style="opacity:1" transform="translate(143,-272)">
  <path id="path2398" style="opacity:0.25;fill:url(#radialGradient2400);fill-opacity:1;fill-rule:evenodd;stroke-width:0.8163265" d="m 34,282 c 0,-0.9899 1,-2.9697 3,-2.9697 V 272 H 27 v 10 z"/>
  <path id="path2256" style="opacity:0.00100002;fill:#000000;fill-opacity:1;fill-rule:evenodd" d="m 37,279 c -1.66199,0 -3,1.338 -3,3 h 3 z"/>
 </g>
 <g id="shadow-bottom" style="opacity:1" transform="translate(143,-272)">
  <path id="path2212" style="opacity:0.00100002;fill:#000000;fill-opacity:1;fill-rule:evenodd" d="m 37,330 v 3 h 48 v -3 z"/>
  <path id="path2360" style="opacity:0.2;fill:url(#linearGradient2366);fill-rule:evenodd;stroke-width:0.98260736" d="m 37,333 v 7 h 48 v -7 z"/>
 </g>
 <g id="shadow-top" style="opacity:1" transform="translate(143,-272)">
  <path id="path2264" style="opacity:0.00100002;fill:#000000;fill-opacity:1;fill-rule:evenodd" d="m 37,279 v 3 h 48 v -3 z"/>
  <path id="path2370" style="opacity:0.2;fill:url(#linearGradient2372);fill-rule:evenodd;stroke-width:0.98260736" d="m 37,279 v -7 h 48 v 7 z"/>
 </g>
 <g id="shadow-left" style="opacity:1" transform="translate(143,-272)">
  <path id="path2272" style="opacity:0.00100002;fill:#000000;fill-opacity:1;fill-rule:evenodd" d="m 34,282 v 48 h 3 v -48 z"/>
  <path id="path2374" style="opacity:0.2;fill:url(#linearGradient2376);fill-rule:evenodd;stroke-width:0.98260736" d="m 34,330 h -7 v -48 h 7 z"/>
 </g>
 <g id="shadow-right" style="opacity:1" transform="translate(143,-272)">
  <path id="path2280" style="opacity:0.00100002;fill:#000000;fill-opacity:1;fill-rule:evenodd" d="m 85,282 v 48 h 3 v -48 z"/>
  <path id="path2378" style="opacity:0.2;fill:url(#linearGradient2380);fill-rule:evenodd;stroke-width:0.98260736" d="m 88,330 h 7 v -48 h -7 z"/>
 </g>
 <g id="topright" style="opacity:0.8" transform="translate(72,-14)">
  <path id="path2288" style="opacity:1;fill:#343434;fill-opacity:1;fill-rule:evenodd" d="m 63,20 v 3 h 3 c 0,-1.662 -1.33799,-3 -3,-3 z"/>
  <path id="path2510" style="opacity:0.2;fill:url(#linearGradient1114);fill-opacity:1;fill-rule:evenodd" d="m 63,20 v 3 h 3 c 0,-1.662 -1.33799,-3 -3,-3 z"/>
  <path id="path2244-1" style="opacity:0.15;fill:url(#linearGradient2309);fill-opacity:1;fill-rule:evenodd" d="m 63,20 v 3 h 3 c 0,-1.662 -1.33799,-3 -3,-3 z"/>
 </g>
 <rect id="shadow-hint-top-margin" style="fill:#ff0000;stroke-width:0.64168894" width="4" height="7" x="202" y="0"/>
 <rect id="shadow-hint-bottom-margin" style="fill:#ff0000;stroke-width:0.64168894" width="4" height="7" x="202" y="61"/>
 <rect id="shadow-hint-right-margin" style="fill:#ff0000;stroke-width:0.64168894" width="4" height="7" x="32" y="-238" transform="rotate(90)"/>
 <rect id="shadow-hint-left-margin" style="fill:#ff0000;stroke-width:0.64168894" width="4" height="7" x="32" y="-177" transform="rotate(90)"/>
 <rect id="hint-top-margin" style="fill:#ff0000;stroke-width:0.42008403" width="4" height="3" x="109" y="9"/>
 <rect id="hint-bottom-margin" style="fill:#ff0000;stroke-width:0.42008403" width="4" height="3" x="109" y="54"/>
 <rect id="hint-right-margin" style="fill:#ff0000;stroke-width:0.42008403" width="4" height="3" x="31" y="-135" transform="rotate(90)"/>
 <rect id="hint-left-margin" style="fill:#ff0000;stroke-width:0.42008403" width="4" height="3" x="31" y="-90" transform="rotate(90)"/>
 <rect id="hint-stretch-borders" style="opacity:1;fill:#ff0000;stroke-width:1.5" width="6" height="6" x="67" y="1"/>
 <path id="mask-bottom" style="opacity:1;fill:#000000;fill-opacity:1;fill-rule:evenodd" d="m 3,59 v 3 h 48 v -3 z"/>
 <path id="mask-bottomleft" style="opacity:1;fill:#000000;fill-opacity:1;fill-rule:evenodd" d="m 0,59 c 0,1.662 1.338,3 3,3 v -3 z"/>
 <path id="mask-bottomright" style="opacity:1;fill:#000000;fill-opacity:1;fill-rule:evenodd" d="m 51,59 v 3 c 1.662,0 3,-1.338 3,-3 z"/>
 <path id="mask-center" style="opacity:1;fill:#000000;fill-opacity:1;fill-rule:evenodd" d="M 3,11 V 59 H 51 V 11 Z"/>
 <path id="mask-topleft" style="opacity:1;fill:#000000;fill-opacity:1;fill-rule:evenodd" d="M 3,8 C 1.33801,8 0,9.338 0,11 h 3 z"/>
 <path id="mask-top" style="opacity:1;fill:#000000;fill-opacity:1;fill-rule:evenodd" d="m 3,8 v 3 H 51 V 8 Z"/>
 <path id="mask-left" style="opacity:1;fill:#000000;fill-opacity:1;fill-rule:evenodd" d="M 0,11 V 59 H 3 V 11 Z"/>
 <path id="mask-right" style="opacity:1;fill:#000000;fill-opacity:1;fill-rule:evenodd" d="m 51,11 v 48 h 3 V 11 Z"/>
 <path id="mask-topright" style="opacity:1;fill:#000000;fill-opacity:1;fill-rule:evenodd" d="m 51,8 v 3 h 3 C 54,9.338 52.66201,8 51,8 Z"/>
</svg>
