<svg xmlns="http://www.w3.org/2000/svg" width="16" height="13" version="1.1">
 <rect id="hint-tile-center" style="opacity:1;fill:#ff2a2a;stroke-width:0.25" width="1" height="1" x="6" y="4"/>
 <rect id="hint-bar-size" style="opacity:1;fill:#ff2a2a;stroke-width:0.83333331" width="5" height="5" x="0" y="0"/>
 <rect id="hint-stretch-borders" style="opacity:1;fill:#ff2a2a;stroke-width:0.66666669" width="2" height="2" x="10" y="3"/>
 <rect id="hint-bar-stretch" style="opacity:1;fill:#ff2a2a;stroke-width:0.57735026" width="1" height="3" x="3" y="-16" transform="rotate(90)"/>
 <g id="bar-inactive-topleft" style="fill:#6c6e70;fill-opacity:1;fill-rule:evenodd;stroke:none" transform="matrix(0.17777778,0,0,0.17777778,1.8888888,1.3330461)">
  <path style="color:#000000;font-style:normal;font-variant:normal;font-weight:normal;font-stretch:normal;font-size:medium;line-height:normal;font-family:sans-serif;font-variant-ligatures:normal;font-variant-position:normal;font-variant-caps:normal;font-variant-numeric:normal;font-variant-alternates:normal;font-feature-settings:normal;text-indent:0;text-align:start;text-decoration:none;text-decoration-line:none;text-decoration-style:solid;text-decoration-color:#000000;letter-spacing:normal;word-spacing:normal;text-transform:none;writing-mode:lr-tb;direction:ltr;text-orientation:mixed;dominant-baseline:auto;baseline-shift:baseline;text-anchor:start;white-space:normal;shape-padding:0;clip-rule:nonzero;display:inline;overflow:visible;visibility:visible;opacity:0.17;isolation:auto;mix-blend-mode:normal;color-interpolation:sRGB;color-interpolation-filters:linearRGB;solid-color:#000000;solid-opacity:1;vector-effect:none;fill:#000000;fill-opacity:1;fill-rule:evenodd;stroke:none;stroke-width:1.33333337;stroke-linecap:butt;stroke-linejoin:miter;stroke-miterlimit:4;stroke-dasharray:none;stroke-dashoffset:0;stroke-opacity:1;color-rendering:auto;image-rendering:auto;shape-rendering:auto;text-rendering:auto;enable-background:accumulate" transform="matrix(5.6249999,0,0,5.6249999,-10.624999,-7.4983842)" d="M 7 8 C 5.9030267 7.9999867 4.9999933 8.90302 5 10 L 6 10 L 7 10 L 7 9 L 7 8 z"/>
  <path id="path7079-6" style="color:#000000;line-height:normal;font-family:Sans;text-indent:0;text-align:start;text-transform:none;opacity:0;fill:#000000;fill-opacity:1" d="m 28.75,41.2516 c -4.125,-5.1e-5 -7.50003,3.37497 -7.5,7.5 h 2.5 c 0,-3.125 1.875,-5 5,-5 z"/>
 </g>
 <path id="bar-inactive-center" style="opacity:0.17;fill:#000000;fill-opacity:1;fill-rule:evenodd;stroke:none;stroke-width:0.03125" d="m 7.0000028,10 v 1 h 1 v -1 z"/>
 <path id="bar-active-left" style="fill:#3584e4;fill-opacity:1;fill-rule:evenodd;stroke:none;stroke-width:0.09058217" d="m 12.999998,10.000004 v 0.999995 h -2 V 9.9999992 Z"/>
 <path id="bar-active-bottomleft" style="fill:#3584e4;fill-opacity:1;fill-rule:evenodd;stroke:none;stroke-width:0.26666659" d="m 12.999998,12.999999 c -1.066669,0 -2,-0.93333 -2,-2 h 2 z"/>
 <path id="bar-active-topleft" style="fill:#3584e4;fill-opacity:1;fill-rule:evenodd;stroke:none;stroke-width:0.26666662" d="m 10.999998,9.9999992 c 0,-1.0666697 0.933331,-1.9999997 2,-1.9999997 v 1.9999997 z"/>
 <path id="bar-active-bottom" style="fill:#3584e4;fill-opacity:1;fill-rule:evenodd;stroke:none;stroke-width:0.09058215" d="m 13.000003,10.999999 h 0.999995 v 2 h -1 z"/>
 <path id="bar-active-top" style="fill:#3584e4;fill-opacity:1;fill-rule:evenodd;stroke:none;stroke-width:0.09058218" d="M 13.999993,9.9999992 H 12.999998 V 7.9999995 h 1 z"/>
 <path id="bar-active-center" style="fill:#3584e4;fill-opacity:1;fill-rule:evenodd;stroke:none;stroke-width:0.03076922" d="M 12.999998,10.999998 V 9.9999992 h 1 v 0.9999988 z"/>
 <path id="bar-active-right" style="fill:#3584e4;fill-opacity:1;fill-rule:evenodd;stroke:none;stroke-width:0.09058217" d="m 13.999998,9.9999992 v 0.9999948 h 2 V 9.9999942 Z"/>
 <path id="bar-active-bottomright" style="fill:#3584e4;fill-opacity:1;fill-rule:evenodd;stroke:none;stroke-width:0.26666659" d="m 13.999998,12.999999 c 1.06667,0 2,-0.93333 2,-2 h -2 z"/>
 <path id="bar-active-topright" style="fill:#3584e4;fill-opacity:1;fill-rule:evenodd;stroke:none;stroke-width:0.26666659" d="m 15.999998,9.9999992 c 0,-1.0666697 -0.93333,-1.9999997 -2,-1.9999997 v 1.9999997 z"/>
 <g id="bar-inactive-top" transform="matrix(0.5,0,0,0.66666667,-121,-182)">
  <path style="opacity:0.17;fill:#000000;fill-opacity:1;fill-rule:evenodd;stroke:none;stroke-width:0.05229772" transform="matrix(2,0,0,1.5,242,273)" d="M 7 8 L 7 9 L 7 10 L 8 10 L 8 9 L 8 8 L 7 8 z"/>
 </g>
 <g id="bar-inactive-topright" style="fill:#6c6e70;fill-opacity:1;fill-rule:evenodd;stroke:none" transform="matrix(0,0.17777778,-0.17777778,0,16.666949,4.8888891)">
  <path style="color:#000000;font-style:normal;font-variant:normal;font-weight:normal;font-stretch:normal;font-size:medium;line-height:normal;font-family:sans-serif;font-variant-ligatures:normal;font-variant-position:normal;font-variant-caps:normal;font-variant-numeric:normal;font-variant-alternates:normal;font-feature-settings:normal;text-indent:0;text-align:start;text-decoration:none;text-decoration-line:none;text-decoration-style:solid;text-decoration-color:#000000;letter-spacing:normal;word-spacing:normal;text-transform:none;writing-mode:lr-tb;direction:ltr;text-orientation:mixed;dominant-baseline:auto;baseline-shift:baseline;text-anchor:start;white-space:normal;shape-padding:0;clip-rule:nonzero;display:inline;overflow:visible;visibility:visible;opacity:0.17;isolation:auto;mix-blend-mode:normal;color-interpolation:sRGB;color-interpolation-filters:linearRGB;solid-color:#000000;solid-opacity:1;vector-effect:none;fill:#000000;fill-opacity:1;fill-rule:evenodd;stroke:none;stroke-width:1.33333337;stroke-linecap:butt;stroke-linejoin:miter;stroke-miterlimit:4;stroke-dasharray:none;stroke-dashoffset:0;stroke-opacity:1;color-rendering:auto;image-rendering:auto;shape-rendering:auto;text-rendering:auto;enable-background:accumulate" transform="matrix(0,-5.6249999,5.6249999,0,-27.500001,93.751587)" d="M 8 8 L 8 9 L 8 10 L 9 10 L 10 10 C 10.000013 8.9030267 9.09698 7.9999933 8 8 z"/>
  <path style="color:#000000;line-height:normal;font-family:Sans;text-indent:0;text-align:start;text-transform:none;opacity:0;fill:#000000;fill-opacity:1" d="m 28.75,41.2516 c -4.125,-5.1e-5 -7.50003,3.37497 -7.5,7.5 h 2.5 c 0,-3.125 1.875,-5 5,-5 z"/>
 </g>
 <g id="bar-inactive-bottomright" style="fill:#6c6e70;fill-opacity:1;fill-rule:evenodd;stroke:none" transform="matrix(-0.17777778,0,0,-0.17777778,13.111114,19.666951)">
  <path style="color:#000000;font-style:normal;font-variant:normal;font-weight:normal;font-stretch:normal;font-size:medium;line-height:normal;font-family:sans-serif;font-variant-ligatures:normal;font-variant-position:normal;font-variant-caps:normal;font-variant-numeric:normal;font-variant-alternates:normal;font-feature-settings:normal;text-indent:0;text-align:start;text-decoration:none;text-decoration-line:none;text-decoration-style:solid;text-decoration-color:#000000;letter-spacing:normal;word-spacing:normal;text-transform:none;writing-mode:lr-tb;direction:ltr;text-orientation:mixed;dominant-baseline:auto;baseline-shift:baseline;text-anchor:start;white-space:normal;shape-padding:0;clip-rule:nonzero;display:inline;overflow:visible;visibility:visible;opacity:0.17;isolation:auto;mix-blend-mode:normal;color-interpolation:sRGB;color-interpolation-filters:linearRGB;solid-color:#000000;solid-opacity:1;vector-effect:none;fill:#000000;fill-opacity:1;fill-rule:evenodd;stroke:none;stroke-width:1.33333337;stroke-linecap:butt;stroke-linejoin:miter;stroke-miterlimit:4;stroke-dasharray:none;stroke-dashoffset:0;stroke-opacity:1;color-rendering:auto;image-rendering:auto;shape-rendering:auto;text-rendering:auto;enable-background:accumulate" transform="matrix(-5.6249999,0,0,-5.6249999,73.750015,110.6266)" d="M 8 11 L 8 12 L 8 13 C 9.0969733 13.000013 10.000007 12.09698 10 11 L 9 11 L 8 11 z"/>
  <path style="color:#000000;line-height:normal;font-family:Sans;text-indent:0;text-align:start;text-transform:none;opacity:0;fill:#000000;fill-opacity:1" d="m 28.75,41.2516 c -4.125,-5.1e-5 -7.50003,3.37497 -7.5,7.5 h 2.5 c 0,-3.125 1.875,-5 5,-5 z"/>
 </g>
 <g id="bar-inactive-bottomleft" style="fill:#6c6e70;fill-opacity:1;fill-rule:evenodd;stroke:none" transform="matrix(0.17777778,0,0,-0.17777778,1.8888878,19.66695)">
  <path style="color:#000000;font-style:normal;font-variant:normal;font-weight:normal;font-stretch:normal;font-size:medium;line-height:normal;font-family:sans-serif;font-variant-ligatures:normal;font-variant-position:normal;font-variant-caps:normal;font-variant-numeric:normal;font-variant-alternates:normal;font-feature-settings:normal;text-indent:0;text-align:start;text-decoration:none;text-decoration-line:none;text-decoration-style:solid;text-decoration-color:#000000;letter-spacing:normal;word-spacing:normal;text-transform:none;writing-mode:lr-tb;direction:ltr;text-orientation:mixed;dominant-baseline:auto;baseline-shift:baseline;text-anchor:start;white-space:normal;shape-padding:0;clip-rule:nonzero;display:inline;overflow:visible;visibility:visible;opacity:0.17;isolation:auto;mix-blend-mode:normal;color-interpolation:sRGB;color-interpolation-filters:linearRGB;solid-color:#000000;solid-opacity:1;vector-effect:none;fill:#000000;fill-opacity:1;fill-rule:evenodd;stroke:none;stroke-width:1.33333337;stroke-linecap:butt;stroke-linejoin:miter;stroke-miterlimit:4;stroke-dasharray:none;stroke-dashoffset:0;stroke-opacity:1;color-rendering:auto;image-rendering:auto;shape-rendering:auto;text-rendering:auto;enable-background:accumulate" transform="matrix(5.6249999,0,0,-5.6249999,-10.624994,110.62659)" d="M 5 11 C 4.9999933 12.09698 5.9030267 13.000013 7 13 L 7 12 L 7 11 L 6 11 L 5 11 z"/>
  <path style="color:#000000;line-height:normal;font-family:Sans;text-indent:0;text-align:start;text-transform:none;opacity:0;fill:#000000;fill-opacity:1" d="m 28.75,41.2516 c -4.125,-5.1e-5 -7.50003,3.37497 -7.5,7.5 h 2.5 c 0,-3.125 1.875,-5 5,-5 z"/>
 </g>
 <g id="bar-inactive-right" transform="matrix(0,0.5,-0.66666667,0,200,-118)">
  <path style="opacity:0.17;fill:#000000;fill-opacity:1;fill-rule:evenodd;stroke:none;stroke-width:0.05229772" transform="matrix(0,-1.5,2,0,236,300)" d="M 8 10 L 8 11 L 9 11 L 10 11 L 10 10 L 9 10 L 8 10 z"/>
 </g>
 <g id="bar-inactive-left" transform="matrix(0,0.5,0.66666667,0,-185,-118)">
  <path style="opacity:0.17;fill:#000000;fill-opacity:1;fill-rule:evenodd;stroke:none;stroke-width:0.05229772" transform="matrix(0,1.5,2,0,236,277.5)" d="M 5 10 L 5 11 L 6 11 L 7 11 L 7 10 L 6 10 L 5 10 z"/>
 </g>
 <g id="bar-inactive-bottom" transform="matrix(0.5,0,0,-0.66666667,-121,203)">
  <path style="opacity:0.17;fill:#000000;fill-opacity:1;fill-rule:evenodd;stroke:none;stroke-width:0.05229772" transform="matrix(2,0,0,-1.5,242,304.5)" d="M 7 11 L 7 12 L 7 13 L 8 13 L 8 12 L 8 11 L 7 11 z"/>
 </g>
</svg>
