<svg xmlns="http://www.w3.org/2000/svg" xmlns:xlink="http://www.w3.org/1999/xlink" width="36" height="18" version="1">
 <defs id="defs16">
  <linearGradient id="linearGradient834">
   <stop style="stop-color:#6298dc;stop-opacity:1" offset="0"/>
   <stop style="stop-color:#2472d2;stop-opacity:1" offset="1"/>
  </linearGradient>
  <linearGradient id="linearGradient1802" x1="31.5" x2="31.5" y1="216" y2="199" gradientTransform="matrix(0.94117647,0,0,0.94117647,1.3529412,12.705882)" gradientUnits="userSpaceOnUse" xlink:href="#linearGradient834"/>
  <linearGradient id="linearGradient1774" x1="193.922" x2="193.923" y1="215.111" y2="200.889" gradientUnits="userSpaceOnUse" xlink:href="#linearGradient834"/>
 </defs>
 <g id="radiobutton" transform="translate(-66,-199)">
  <g transform="translate(44)">
   <path style="color:#000000;opacity:1;fill:#1f4c83;fill-opacity:1" d="m 40,208 a 9,9 0 0 1 -9,9 9,9 0 0 1 -9,-9 9,9 0 0 1 9,-9 9,9 0 0 1 9,9 z"/>
   <path style="color:#000000;fill:url(#linearGradient1802);fill-opacity:1;stroke-width:0.94117647" d="m 39,208 a 8,8 0 0 1 -8,8 8,8 0 0 1 -8,-8 8,8 0 0 1 8,-8 8,8 0 0 1 8,8 z"/>
  </g>
  <circle style="color:#000000;opacity:0.2;fill:#000000;stroke-width:1.20000005" cx="75" cy="209" r="3"/>
  <circle style="color:#000000;fill:#ffffff;stroke-width:1.20000005" cx="75" cy="208" r="3"/>
 </g>
 <g id="checkbox" transform="translate(-218,-198)">
  <g transform="matrix(1.125,0,0,1.125,22.25,-27)">
   <path style="color:#000000;opacity:1;isolation:auto;mix-blend-mode:normal;color-interpolation:sRGB;color-interpolation-filters:linearRGB;solid-color:#000000;solid-opacity:1;vector-effect:none;fill:#1f4c83;fill-opacity:1" d="M 194.03311,216 C 191.77778,216 190,214.22222 190,211.96689 v -7.93311 C 190,201.77778 191.77778,200 194.03378,200 h 7.93244 c 2.256,0 4.03378,1.77778 4.03378,4.03378 v 7.93311 C 206,214.22222 204.22222,216 201.96622,216 Z"/>
   <path style="color:#000000;fill:url(#linearGradient1774);fill-opacity:1.0" d="m 193.9224,215.1111 h 8.04378 c 1.81156,0 3.14489,-1.33333 3.14489,-3.03355 v -8.1549 c 0,-1.5 -1.33333,-3.03377 -3.14489,-3.03377 h -8.04355 c -1.92267,0 -3.03378,1.33333 -3.03378,3.03377 v 8.1549 c 0,1.70022 1.33333,3.03355 3.03355,3.03355 z"/>
  </g>
  <path style="color:#000000;font-style:normal;font-variant:normal;font-weight:normal;font-stretch:normal;font-size:medium;line-height:normal;font-family:sans-serif;font-variant-ligatures:normal;font-variant-position:normal;font-variant-caps:normal;font-variant-numeric:normal;font-variant-alternates:normal;font-feature-settings:normal;text-indent:0;text-align:start;text-decoration:none;text-decoration-line:none;text-decoration-style:solid;text-decoration-color:#000000;letter-spacing:normal;word-spacing:normal;text-transform:none;writing-mode:lr-tb;direction:ltr;text-orientation:mixed;dominant-baseline:auto;baseline-shift:baseline;text-anchor:start;white-space:normal;shape-padding:0;clip-rule:nonzero;display:inline;overflow:visible;visibility:visible;opacity:0.2;isolation:auto;mix-blend-mode:normal;color-interpolation:sRGB;color-interpolation-filters:linearRGB;solid-color:#000000;solid-opacity:1;vector-effect:none;fill:#000000;fill-opacity:1;fill-rule:nonzero;stroke:none;stroke-width:2;stroke-linecap:round;stroke-linejoin:round;stroke-miterlimit:4;stroke-dasharray:none;stroke-dashoffset:0;stroke-opacity:1;color-rendering:auto;image-rendering:auto;shape-rendering:auto;text-rendering:auto;enable-background:accumulate" d="m 248.97461,203.01848 a 1.0001,1.0001 0 0 0 -0.75195,0.38086 l -4.93164,6.08008 -1.5625,-1.66406 a 1.0001,1.0001 0 1 0 -1.45704,1.36914 l 2.34571,2.5 a 1.0001,1.0001 0 0 0 1.50586,-0.0547 l 5.65429,-6.9707 a 1.0001,1.0001 0 0 0 -0.80273,-1.64063 z"/>
  <path style="fill:none;stroke:#ffffff;stroke-width:2;stroke-linecap:round;stroke-linejoin:round" d="m 241,207.5003 2.3466,2.5 5.6534,-6.9697"/>
 </g>
</svg>
