<svg xmlns="http://www.w3.org/2000/svg" xmlns:xlink="http://www.w3.org/1999/xlink" width="86" height="30" version="1">
 <defs id="defs95">
  <linearGradient id="linearGradient982">
   <stop style="stop-color:#e6e6e6;stop-opacity:1" offset="0"/>
   <stop style="stop-color:#f9f9f9;stop-opacity:1" offset="1"/>
  </linearGradient>
  <linearGradient id="linearGradient1117" x1="69" x2="17" y1="19.5" y2="19.5" gradientUnits="userSpaceOnUse" xlink:href="#linearGradient982"/>
  <linearGradient id="linearGradient1113" x1="58" x2="58" y1="9.5" y2="61.5" gradientUnits="userSpaceOnUse" xlink:href="#linearGradient982"/>
  <linearGradient id="linearGradient1109" x1="27.001" x2="27.001" y1="61.5" y2="9.5" gradientUnits="userSpaceOnUse" xlink:href="#linearGradient982"/>
  <linearGradient id="linearGradient1107" x1="53" x2="53" y1="9.5" y2="61.5" gradientUnits="userSpaceOnUse" xlink:href="#linearGradient982"/>
  <linearGradient id="linearGradient1093" x1="45" x2="45" y1="61.5" y2="9.5" gradientUnits="userSpaceOnUse" xlink:href="#linearGradient982"/>
  <linearGradient id="linearGradient1091" x1="33.001" x2="33.001" y1="62" y2="10" gradientTransform="matrix(0.49999904,0,0,0.49999904,48.500069,-1.49994)" gradientUnits="userSpaceOnUse" xlink:href="#linearGradient982"/>
  <linearGradient id="linearGradient1576" x1="27.001" x2="27.001" y1="61.5" y2="9.5" gradientUnits="userSpaceOnUse" xlink:href="#linearGradient982"/>
  <linearGradient id="linearGradient1578" x1="58" x2="58" y1="9.5" y2="61.5" gradientUnits="userSpaceOnUse" xlink:href="#linearGradient982"/>
  <linearGradient id="linearGradient1580" x1="69" x2="17" y1="19.5" y2="19.5" gradientUnits="userSpaceOnUse" xlink:href="#linearGradient982"/>
  <linearGradient id="linearGradient1007" x1="33.001" x2="33.001" y1="62" y2="10" gradientTransform="matrix(0.49999904,0,0,0.49999904,18.500069,-1.49994)" gradientUnits="userSpaceOnUse" xlink:href="#linearGradient982"/>
  <linearGradient id="linearGradient1009" x1="45" x2="45" y1="61.5" y2="9.5" gradientUnits="userSpaceOnUse" xlink:href="#linearGradient982"/>
  <linearGradient id="linearGradient1011" x1="27.001" x2="27.001" y1="61.5" y2="9.5" gradientUnits="userSpaceOnUse" xlink:href="#linearGradient982"/>
  <linearGradient id="linearGradient1013" x1="58" x2="58" y1="9.5" y2="61.5" gradientUnits="userSpaceOnUse" xlink:href="#linearGradient982"/>
  <linearGradient id="linearGradient1015" x1="69" x2="17" y1="19.5" y2="19.5" gradientUnits="userSpaceOnUse" xlink:href="#linearGradient982"/>
  <linearGradient id="linearGradient1017" x1="53" x2="53" y1="9.5" y2="61.5" gradientUnits="userSpaceOnUse" xlink:href="#linearGradient982"/>
  <linearGradient id="linearGradient1019" x1="27.001" x2="27.001" y1="61.5" y2="9.5" gradientUnits="userSpaceOnUse" xlink:href="#linearGradient982"/>
  <linearGradient id="linearGradient1021" x1="58" x2="58" y1="9.5" y2="61.5" gradientUnits="userSpaceOnUse" xlink:href="#linearGradient982"/>
  <linearGradient id="linearGradient1023" x1="69" x2="17" y1="19.5" y2="19.5" gradientUnits="userSpaceOnUse" xlink:href="#linearGradient982"/>
 </defs>
 <path id="normal-center" style="fill:#cececf;fill-opacity:1;fill-rule:evenodd;stroke-width:0.49999905;enable-background:new" d="M 5.0000391,8.5000413 V 24.500011 H 21.00001 V 8.5000413 Z"/>
 <g id="normal-top" style="enable-background:new" transform="matrix(0.49999904,0,0,0.49999904,-8.4999309,-1.24994)">
  <path style="fill:#cececf;fill-opacity:1;fill-rule:evenodd;stroke-width:0.49999905" transform="matrix(2.0000038,0,0,2.0000038,16.999894,2.4998848)" d="M 5 3 L 5 3.5 L 5 8.5 L 21 8.5 L 21 3.5 L 21 3 L 5 3 z"/>
  <g style="color:#000000">
   <path style="opacity:0.5;fill:#000000;stroke-width:0.70700002" d="M 59,9.5001 H 27 V 10.5 h 32 z"/>
  </g>
 </g>
 <g id="normal-topright" style="enable-background:new" transform="matrix(0.49999904,0,0,0.49999904,-42.499871,-1.499939)">
  <g transform="translate(68,0.5)">
   <path style="fill:#cececf;fill-opacity:1;fill-rule:evenodd;stroke-width:0.49999905" transform="matrix(2.0000038,0,0,2.0000038,16.999905,2.4998838)" d="M 21 3 L 21 3.5 L 21 8.5 L 26 8.5 L 26 3 L 21 3 z"/>
   <path style="opacity:0.5;fill:#000000;fill-opacity:1;fill-rule:evenodd" transform="translate(-6,-0.5)" d="m 65,10 v 1 c 5,0 9,4 9,9 h 1 C 75,14.25 70.75,10 65,10 Z"/>
  </g>
 </g>
 <g id="normal-bottomright" style="enable-background:new" transform="matrix(0.49999904,0,0,-0.49999904,-42.499871,34.499991)">
  <g transform="translate(68,0.5)">
   <path style="opacity:1;fill:#cececf;fill-opacity:1;fill-rule:evenodd;stroke-width:0.49999905" transform="matrix(2.0000038,0,0,-2.0000038,16.999905,68.500114)" d="M 21 24.5 L 21 29.5 L 21 30 L 26 30 L 26 24.5 L 21 24.5 z"/>
   <path style="opacity:0.5;fill:#000000;fill-opacity:1;fill-rule:evenodd" transform="translate(-6,-0.5)" d="m 65,10 v 1 c 5,0 9,4 9,9 h 1 C 75,14.25 70.75,10 65,10 Z"/>
  </g>
 </g>
 <g id="normal-right" style="enable-background:new" transform="matrix(0,0.49999904,-0.49999904,0,30.749989,-4.999933)">
  <path style="fill:#cececf;fill-opacity:1;fill-rule:evenodd" d="M 27,19.5 H 59 V 9.5 H 27 Z"/>
  <g style="color:#000000">
   <path style="opacity:0.5;fill:#000000;stroke-width:0.70700002" d="M 59,9.5001 H 27 V 10.5 h 32 z"/>
  </g>
 </g>
 <g id="normal-bottom" style="enable-background:new" transform="matrix(0.49999904,0,0,-0.49999904,-8.4999309,34.249992)">
  <path style="fill:#cececf;fill-opacity:1;fill-rule:evenodd;stroke-width:0.49999905" transform="matrix(2.0000038,0,0,-2.0000038,16.999894,68.500116)" d="M 5 24.5 L 5 29.5 L 5 30 L 21 30 L 21 29.5 L 21 24.5 L 5 24.5 z"/>
  <g style="color:#000000">
   <path style="opacity:0.5;fill:#000000;fill-opacity:1;stroke-width:0.70700002" d="M 59,9.5001 H 27 V 10.5 h 32 z"/>
  </g>
 </g>
 <g id="normal-topleft" style="enable-background:new" transform="matrix(-0.49999904,0,0,0.49999904,68.499869,-1.499939)">
  <g transform="translate(68,0.5)">
   <path style="fill:#cececf;fill-opacity:1;fill-rule:evenodd;stroke-width:0.49999905" transform="matrix(-2.0000038,0,0,2.0000038,69.000001,2.4998838)" d="M 0 3 L 0 8.5 L 5 8.5 L 5 3.5 L 5 3 L 0 3 z"/>
   <path style="opacity:0.5;fill:#000000;fill-opacity:1;fill-rule:evenodd" transform="translate(-6,-0.5)" d="m 65,10 v 1 c 5,0 9,4 9,9 h 1 C 75,14.25 70.75,10 65,10 Z"/>
  </g>
 </g>
 <g id="normal-bottomleft" style="enable-background:new" transform="matrix(-0.49999904,0,0,-0.49999904,68.499869,34.499991)">
  <g transform="translate(68,0.5)">
   <path style="opacity:1;fill:#cececf;fill-opacity:1;fill-rule:evenodd;stroke-width:0.49999905" transform="matrix(-2.0000038,0,0,-2.0000038,69.000001,68.500114)" d="M 0 24.5 C 4.9999904e-05 24.5 0 30 0 30 L 5 30 L 5 29.5 L 5 24.5 L 0 24.5 z"/>
   <path style="opacity:0.5;fill:#000000;fill-opacity:1;fill-rule:evenodd" transform="translate(-6,-0.5)" d="m 65,10 v 1 c 5,0 9,4 9,9 h 1 C 75,14.25 70.75,10 65,10 Z"/>
  </g>
 </g>
 <g id="normal-left" style="enable-background:new" transform="matrix(0,0.49999904,0.49999904,0,-4.7499909,-4.999933)">
  <path style="fill:#cececf;fill-opacity:1;fill-rule:evenodd" d="M 27,19.5 H 59 V 9.5 H 27 Z"/>
  <g style="color:#000000">
   <path style="opacity:0.5;fill:#000000;stroke-width:0.70700002" d="M 59,9.5001 H 27 V 10.5 h 32 z"/>
  </g>
 </g>
 <path id="active-center" style="fill:url(#linearGradient1091);fill-opacity:1.0;fill-rule:evenodd;stroke-width:0.49999905;enable-background:new" d="M 65.000039,8.5000406 V 24.500011 h 15.99997 V 8.5000406 Z"/>
 <g id="active-top" style="enable-background:new" transform="matrix(0.49999904,0,0,0.49999904,51.500069,-1.249941)">
  <path style="fill:#cececf;fill-opacity:1;fill-rule:evenodd" d="M 27,19.5 H 59 L 58.999975,8.4998983 H 26.999914 Z"/>
  <path style="fill:url(#linearGradient1093);fill-opacity:1.0;fill-rule:evenodd" d="M 27,19.5 H 59 V 9.5 H 27 Z"/>
  <g style="color:#000000">
   <path style="opacity:0.5;fill:#000000;stroke-width:0.70700002" d="M 59,9.5001 H 27 V 10.5 h 32 z"/>
  </g>
 </g>
 <g id="active-topright" style="enable-background:new" transform="matrix(0.49999904,0,0,0.49999904,17.500124,-1.49994)">
  <g transform="translate(68,0.5)">
   <path style="fill:#cececf;fill-opacity:1;fill-rule:evenodd" d="m 69.000015,8.4998973 c 0,0 -2e-6,11.0001017 -1.5e-5,11.0001027 H 59 l -4e-6,-11.0001027 z"/>
   <path style="fill:url(#linearGradient1576);fill-opacity:1.0;fill-rule:evenodd" d="m 59,9.5 c 5.75,0 10,4.25 10,10 H 59 Z"/>
   <path style="opacity:0.5;fill:#000000;fill-opacity:1;fill-rule:evenodd" transform="translate(-6,-0.5)" d="m 65,10 v 1 c 5,0 9,4 9,9 h 1 C 75,14.25 70.75,10 65,10 Z"/>
  </g>
 </g>
 <g id="active-bottomright" style="enable-background:new" transform="matrix(0.49999904,0,0,-0.49999904,17.500124,34.499991)">
  <g transform="translate(68,0.5)">
   <path style="opacity:1;fill:#cececf;fill-opacity:1;fill-rule:evenodd" transform="matrix(1,0,0,-1,-123.0001,71.5)" d="m 192,52 c 0,5.75 -4.25,10 -10,10 v 1 h 10 z"/>
   <path style="fill:url(#linearGradient1578);fill-opacity:1.0;fill-rule:evenodd" d="m 59,9.5 c 5.75,0 10,4.25 10,10 H 59 Z"/>
   <path style="opacity:0.5;fill:#000000;fill-opacity:1;fill-rule:evenodd" transform="translate(-6,-0.5)" d="m 65,10 v 1 c 5,0 9,4 9,9 h 1 C 75,14.25 70.75,10 65,10 Z"/>
  </g>
 </g>
 <g id="active-right" style="enable-background:new" transform="matrix(0,0.49999904,-0.49999904,0,90.74999,-4.999934)">
  <path style="fill:url(#linearGradient1580);fill-opacity:1.0;fill-rule:evenodd" d="M 27,19.5 H 59 V 9.5 H 27 Z"/>
  <g style="color:#000000">
   <path style="opacity:0.5;fill:#000000;stroke-width:0.70700002" d="M 59,9.5001 H 27 V 10.5 h 32 z"/>
  </g>
 </g>
 <g id="active-bottom" style="enable-background:new" transform="matrix(0.49999904,0,0,-0.49999904,51.500069,34.249992)">
  <path style="fill:#cececf;fill-opacity:1;fill-rule:evenodd" transform="matrix(1,0,0,-1,-123.0001,71.5)" d="m 150,62 v 1 h 32 v -1 z"/>
  <path style="fill:url(#linearGradient1107);fill-opacity:1.0;fill-rule:evenodd" d="M 27,19.5 H 59 V 9.5 H 27 Z"/>
  <g style="color:#000000">
   <path style="opacity:0.5;fill:#000000;fill-opacity:1;stroke-width:0.70700002" d="M 59,9.5001 H 27 V 10.5 h 32 z"/>
  </g>
 </g>
 <g id="active-topleft" style="enable-background:new" transform="matrix(-0.49999904,0,0,0.49999904,128.49987,-1.49994)">
  <g transform="translate(68,0.5)">
   <path style="fill:#cececf;fill-opacity:1;fill-rule:evenodd" d="M 69.000003,8.4998973 C 69.000003,8.4998973 69,13.75 69,19.5 H 59 l -1.6e-5,-11.0001027 z"/>
   <path style="fill:url(#linearGradient1109);fill-opacity:1.0;fill-rule:evenodd" d="m 59,9.5 c 5.75,0 10,4.25 10,10 H 59 Z"/>
   <path style="opacity:0.5;fill:#000000;fill-opacity:1;fill-rule:evenodd" transform="translate(-6,-0.5)" d="m 65,10 v 1 c 5,0 9,4 9,9 h 1 C 75,14.25 70.75,10 65,10 Z"/>
  </g>
 </g>
 <g id="active-bottomleft" style="enable-background:new" transform="matrix(-0.49999904,0,0,-0.49999904,128.49987,34.499991)">
  <g transform="translate(68,0.5)">
   <path style="opacity:1;fill:#cececf;fill-opacity:1;fill-rule:evenodd" transform="rotate(180,104.5,35.75)" d="m 140,52 c 1e-4,0 0,11 0,11 h 10 v -1 c -5.75,0 -10,-4.25 -10,-10 z"/>
   <path style="fill:url(#linearGradient1113);fill-opacity:1.0;fill-rule:evenodd" d="m 59,9.5 c 5.75,0 10,4.25 10,10 H 59 Z"/>
   <path style="opacity:0.5;fill:#000000;fill-opacity:1;fill-rule:evenodd" transform="translate(-6,-0.5)" d="m 65,10 v 1 c 5,0 9,4 9,9 h 1 C 75,14.25 70.75,10 65,10 Z"/>
  </g>
 </g>
 <g id="active-left" style="enable-background:new" transform="matrix(0,0.49999904,0.49999904,0,55.250009,-4.999933)">
  <path style="fill:url(#linearGradient1117);fill-opacity:1.0;fill-rule:evenodd" d="M 27,19.5 H 59 V 9.5 H 27 Z"/>
  <g style="color:#000000">
   <path style="opacity:0.5;fill:#000000;stroke-width:0.70700002" d="M 59,9.5001 H 27 V 10.5 h 32 z"/>
  </g>
 </g>
 <path id="hover-center" style="fill:url(#linearGradient1007);fill-opacity:1;fill-rule:evenodd;stroke-width:0.49999905;enable-background:new" d="M 35.000039,8.5000406 V 24.500011 H 51.000012 V 8.5000406 Z"/>
 <g id="hover-top" style="enable-background:new" transform="matrix(0.49999904,0,0,0.49999904,21.500069,-1.249941)">
  <path style="fill:#cececf;fill-opacity:1;fill-rule:evenodd" d="M 27,19.5 H 59 L 58.999975,8.4998983 H 26.999914 Z"/>
  <path style="fill:url(#linearGradient1009);fill-opacity:1;fill-rule:evenodd" d="M 27,19.5 H 59 V 9.5 H 27 Z"/>
  <g style="color:#000000">
   <path style="opacity:0.5;fill:#000000;stroke-width:0.70700002" d="M 59,9.5001 H 27 V 10.5 h 32 z"/>
  </g>
 </g>
 <g id="hover-topright" style="enable-background:new" transform="matrix(0.49999904,0,0,0.49999904,-12.499876,-1.49994)">
  <g transform="translate(68,0.5)">
   <path style="fill:#cececf;fill-opacity:1;fill-rule:evenodd" d="m 69.000015,8.4998973 c 0,0 -2e-6,11.0001017 -1.5e-5,11.0001027 H 59 l -4e-6,-11.0001027 z"/>
   <path style="fill:url(#linearGradient1011);fill-opacity:1;fill-rule:evenodd" d="m 59,9.5 c 5.75,0 10,4.25 10,10 H 59 Z"/>
   <path style="opacity:0.5;fill:#000000;fill-opacity:1;fill-rule:evenodd" transform="translate(-6,-0.5)" d="m 65,10 v 1 c 5,0 9,4 9,9 h 1 C 75,14.25 70.75,10 65,10 Z"/>
  </g>
 </g>
 <g id="hover-bottomright" style="enable-background:new" transform="matrix(0.49999904,0,0,-0.49999904,-12.499876,34.499991)">
  <g transform="translate(68,0.5)">
   <path style="opacity:1;fill:#cececf;fill-opacity:1;fill-rule:evenodd" transform="matrix(1,0,0,-1,-123.0001,71.5)" d="m 192,52 c 0,5.75 -4.25,10 -10,10 v 1 h 10 z"/>
   <path style="fill:url(#linearGradient1013);fill-opacity:1;fill-rule:evenodd" d="m 59,9.5 c 5.75,0 10,4.25 10,10 H 59 Z"/>
   <path style="opacity:0.5;fill:#000000;fill-opacity:1;fill-rule:evenodd" transform="translate(-6,-0.5)" d="m 65,10 v 1 c 5,0 9,4 9,9 h 1 C 75,14.25 70.75,10 65,10 Z"/>
  </g>
 </g>
 <g id="hover-right" style="enable-background:new" transform="matrix(0,0.49999904,-0.49999904,0,60.749992,-4.999934)">
  <path style="fill:url(#linearGradient1015);fill-opacity:1;fill-rule:evenodd" d="M 27,19.5 H 59 V 9.5 H 27 Z"/>
  <g style="color:#000000">
   <path style="opacity:0.5;fill:#000000;stroke-width:0.70700002" d="M 59,9.5001 H 27 V 10.5 h 32 z"/>
  </g>
 </g>
 <g id="hover-bottom" style="enable-background:new" transform="matrix(0.49999904,0,0,-0.49999904,21.500069,34.249992)">
  <path style="fill:#cececf;fill-opacity:1;fill-rule:evenodd" transform="matrix(1,0,0,-1,-123.0001,71.5)" d="m 150,62 v 1 h 32 v -1 z"/>
  <path style="fill:url(#linearGradient1017);fill-opacity:1;fill-rule:evenodd" d="M 27,19.5 H 59 V 9.5 H 27 Z"/>
  <g style="color:#000000">
   <path style="opacity:0.5;fill:#000000;fill-opacity:1;stroke-width:0.70700002" d="M 59,9.5001 H 27 V 10.5 h 32 z"/>
  </g>
 </g>
 <g id="hover-topleft" style="enable-background:new" transform="matrix(-0.49999904,0,0,0.49999904,98.499872,-1.49994)">
  <g transform="translate(68,0.5)">
   <path style="fill:#cececf;fill-opacity:1;fill-rule:evenodd" d="M 69.000003,8.4998973 C 69.000003,8.4998973 69,13.75 69,19.5 H 59 l -1.6e-5,-11.0001027 z"/>
   <path style="fill:url(#linearGradient1019);fill-opacity:1;fill-rule:evenodd" d="m 59,9.5 c 5.75,0 10,4.25 10,10 H 59 Z"/>
   <path style="opacity:0.5;fill:#000000;fill-opacity:1;fill-rule:evenodd" transform="translate(-6,-0.5)" d="m 65,10 v 1 c 5,0 9,4 9,9 h 1 C 75,14.25 70.75,10 65,10 Z"/>
  </g>
 </g>
 <g id="hover-bottomleft" style="enable-background:new" transform="matrix(-0.49999904,0,0,-0.49999904,98.499872,34.499991)">
  <g transform="translate(68,0.5)">
   <path style="opacity:1;fill:#cececf;fill-opacity:1;fill-rule:evenodd" transform="rotate(180,104.5,35.75)" d="m 140,52 c 1e-4,0 0,11 0,11 h 10 v -1 c -5.75,0 -10,-4.25 -10,-10 z"/>
   <path style="fill:url(#linearGradient1021);fill-opacity:1;fill-rule:evenodd" d="m 59,9.5 c 5.75,0 10,4.25 10,10 H 59 Z"/>
   <path style="opacity:0.5;fill:#000000;fill-opacity:1;fill-rule:evenodd" transform="translate(-6,-0.5)" d="m 65,10 v 1 c 5,0 9,4 9,9 h 1 C 75,14.25 70.75,10 65,10 Z"/>
  </g>
 </g>
 <g id="hover-left" style="enable-background:new" transform="matrix(0,0.49999904,0.49999904,0,25.250009,-4.999933)">
  <path style="fill:url(#linearGradient1023);fill-opacity:1;fill-rule:evenodd" d="M 27,19.5 H 59 V 9.5 H 27 Z"/>
  <g style="color:#000000">
   <path style="opacity:0.5;fill:#000000;stroke-width:0.70700002" d="M 59,9.5001 H 27 V 10.5 h 32 z"/>
  </g>
 </g>
</svg>
