<svg xmlns="http://www.w3.org/2000/svg" width="110" height="34" version="1.1">
 <rect id="hint-tile-center" style="fill:#ff0000" width="6" height="6" x="0" y="0"/>
 <rect id="south-focus-hint-right-margin" style="fill:#ff0000" width="5" height="2" x="-78" y="-25" transform="scale(-1)"/>
 <rect id="south-focus-hint-left-margin" style="fill:#ff0000" width="5" height="2" x="-67" y="-25" transform="scale(-1)"/>
 <rect id="south-focus-hint-bottom-margin" style="fill:#ff0000" width="2" height="5" x="-71" y="-32" transform="scale(-1)"/>
 <rect id="south-focus-hint-top-margin" style="fill:#ff0000" width="2" height="5" x="-71" y="-20.5" transform="scale(-1)"/>
 <g id="west-active-tab-top" transform="translate(-218,-114.99999)">
  <g style="opacity:0.00100002" transform="matrix(0.18748184,0,0,0.83332808,221.43785,-627.62854)">
   <path style="opacity:0.12;fill:#000000" transform="matrix(0,-1,-1,0,0,0)" d="m -916.35999,-51 8.40004,-0.0031 v 32 L -916.35999,-19 Z"/>
  </g>
  <path style="opacity:0.12;fill:#000000" transform="matrix(0,-1,-1,0,0,0)" d="M -135.99997,-231 H -131 v 6 h -4.99997 z"/>
 </g>
 <g id="west-active-tab-topleft" transform="matrix(0.41666667,0,0,0.41666667,-3.4166685,-363.31669)">
  <path style="opacity:0.00100002" d="M 8.2000073,905.55996 V 922.36 H 25 l 8e-6,-16.80004 z"/>
  <path style="opacity:0.12;fill:#000000" d="m 25,910.36 c -6.648,0 -12,5.352 -12,12 h 12 c 8e-6,0 0,-12 0,-12 z"/>
 </g>
 <rect id="west-focus-hint-right-margin" style="fill:#ff0000" width="5" height="2" x="-18" y="-25" transform="scale(-1)"/>
 <rect id="west-focus-hint-left-margin" style="fill:#ff0000" width="5" height="2" x="-7" y="-25" transform="scale(-1)"/>
 <rect id="west-focus-hint-bottom-margin" style="fill:#ff0000" width="2" height="5" x="-11" y="-32" transform="scale(-1)"/>
 <rect id="west-focus-hint-top-margin" style="fill:#ff0000" width="2" height="5" x="-11" y="-20.5" transform="scale(-1)"/>
 <g id="west-active-tab-left" transform="rotate(-90,61.49999,190.49999)">
  <g style="opacity:0.00100002" transform="matrix(0.18748184,0,0,0.83332808,221.43785,-627.62854)">
   <path style="opacity:0.12;fill:#000000" transform="matrix(0,-1,-1,0,0,0)" d="m -916.35999,-51 8.40002,-0.0031 v 32 L -916.35999,-19 Z"/>
  </g>
  <path style="opacity:0.12;fill:#000000" transform="matrix(0,-1,-1,0,0,0)" d="M -135.99997,-231 H -131 v 6 h -4.99997 z"/>
 </g>
 <g id="west-active-tab-topright" transform="matrix(-0.41666667,0,0,0.41666667,23.416671,-363.31669)">
  <path style="opacity:0.00100002" d="M 8.2000073,905.55996 V 922.36 H 25 l 8e-6,-16.80004 z"/>
  <path style="opacity:0.12;fill:#000000" d="m 25,910.36 c -6.648,0 -12,5.352 -12,12 h 12 c 8e-6,0 0,-12 0,-12 z"/>
 </g>
 <g id="west-active-tab-right" transform="matrix(0,-1,-1,0,149,251.99998)">
  <g style="opacity:0.00100002" transform="matrix(0.18748184,0,0,0.83332808,221.43785,-627.62854)">
   <path style="opacity:0.12;fill:#000000" transform="matrix(0,-1,-1,0,0,0)" d="m -916.35999,-51 8.40002,-0.0031 v 32 L -916.35999,-19 Z"/>
  </g>
  <path style="opacity:0.12;fill:#000000" transform="matrix(0,-1,-1,0,0,0)" d="M -135.99997,-231 H -131 v 6 h -4.99997 z"/>
 </g>
 <g id="west-active-tab-bottom" transform="matrix(1,0,0,-1,-218,162.99995)">
  <g style="opacity:0.00100002" transform="matrix(0.18748184,0,0,0.83332808,221.43785,-627.62854)">
   <path style="opacity:0.12;fill:#000000" transform="matrix(0,-1,-1,0,0,0)" d="m -916.35999,-51 8.40004,-0.0031 v 32 L -916.35999,-19 Z"/>
  </g>
  <path style="opacity:0.12;fill:#000000" transform="matrix(0,-1,-1,0,0,0)" d="M -135.99997,-231 H -131 v 6 h -4.99997 z"/>
 </g>
 <g id="west-active-tab-bottomleft" transform="matrix(0.41666667,0,0,-0.41666667,-3.4166685,411.31665)">
  <path style="opacity:0.00100002" d="M 8.2000073,905.55996 V 922.36 H 25 l 8e-6,-16.80004 z"/>
  <path style="opacity:0.12;fill:#000000" d="m 25,910.36 c -6.648,0 -12,5.352 -12,12 h 12 c 8e-6,0 0,-12 0,-12 z"/>
 </g>
 <g id="west-active-tab-bottomright" transform="matrix(-0.41666667,0,0,-0.41666667,23.416671,411.31665)">
  <path style="opacity:0.00100002" d="M 8.2000073,905.55996 V 922.36 H 25 l 8e-6,-16.80004 z"/>
  <path style="opacity:0.12;fill:#000000" d="m 25,910.36 c -6.648,0 -12,5.352 -12,12 h 12 c 8e-6,0 0,-12 0,-12 z"/>
 </g>
 <path id="west-active-tab-center" style="opacity:0.12;fill:#000000" d="m 13.000001,26.99998 v -6 H 7.0000015 v 6 z"/>
 <g id="north-active-tab-top" transform="translate(-188,-114.99999)">
  <g style="opacity:0.00100002" transform="matrix(0.18748184,0,0,0.83332808,221.43785,-627.62854)">
   <path style="opacity:0.12;fill:#000000" transform="matrix(0,-1,-1,0,0,0)" d="m -916.35999,-51 8.40004,-0.0031 v 32 L -916.35999,-19 Z"/>
  </g>
  <path style="opacity:0.12;fill:#000000" transform="matrix(0,-1,-1,0,0,0)" d="M -135.99997,-231 H -131 v 6 h -4.99997 z"/>
 </g>
 <g id="north-active-tab-topleft" transform="matrix(0.41666667,0,0,0.41666667,26.583331,-363.31669)">
  <path style="opacity:0.00100002" d="M 8.2000073,905.55996 V 922.36 H 25 l 8e-6,-16.80004 z"/>
  <path style="opacity:0.12;fill:#000000" d="m 25,910.36 c -6.648,0 -12,5.352 -12,12 h 12 c 8e-6,0 0,-12 0,-12 z"/>
 </g>
 <g id="north-active-tab-left" transform="rotate(-90,76.49999,175.49999)">
  <g style="opacity:0.00100002" transform="matrix(0.18748184,0,0,0.83332808,221.43785,-627.62854)">
   <path style="opacity:0.12;fill:#000000" transform="matrix(0,-1,-1,0,0,0)" d="m -916.35999,-51 8.40002,-0.0031 v 32 L -916.35999,-19 Z"/>
  </g>
  <path style="opacity:0.12;fill:#000000" transform="matrix(0,-1,-1,0,0,0)" d="M -135.99997,-231 H -131 v 6 h -4.99997 z"/>
 </g>
 <g id="north-active-tab-topright" transform="matrix(-0.41666667,0,0,0.41666667,53.416671,-363.31669)">
  <path style="opacity:0.00100002" d="M 8.2000073,905.55996 V 922.36 H 25 l 8e-6,-16.80004 z"/>
  <path style="opacity:0.12;fill:#000000" d="m 25,910.36 c -6.648,0 -12,5.352 -12,12 h 12 c 8e-6,0 0,-12 0,-12 z"/>
 </g>
 <g id="north-active-tab-right" transform="matrix(0,-1,-1,0,179,251.99998)">
  <g style="opacity:0.00100002" transform="matrix(0.18748184,0,0,0.83332808,221.43785,-627.62854)">
   <path style="opacity:0.12;fill:#000000" transform="matrix(0,-1,-1,0,0,0)" d="m -916.35999,-51 8.40002,-0.0031 v 32 L -916.35999,-19 Z"/>
  </g>
  <path style="opacity:0.12;fill:#000000" transform="matrix(0,-1,-1,0,0,0)" d="M -135.99997,-231 H -131 v 6 h -4.99997 z"/>
 </g>
 <g id="north-active-tab-bottom" transform="matrix(1,0,0,-1,-188,162.99995)">
  <g style="opacity:0.00100002" transform="matrix(0.18748184,0,0,0.83332808,221.43785,-627.62854)">
   <path style="opacity:0.12;fill:#000000" transform="matrix(0,-1,-1,0,0,0)" d="m -916.35999,-51 8.40004,-0.0031 v 32 L -916.35999,-19 Z"/>
  </g>
  <path style="opacity:0.12;fill:#000000" transform="matrix(0,-1,-1,0,0,0)" d="M -135.99997,-231 H -131 v 6 h -4.99997 z"/>
 </g>
 <g id="north-active-tab-bottomleft" transform="matrix(0.41666667,0,0,-0.41666667,26.583331,411.31665)">
  <path style="opacity:0.00100002" d="M 8.2000073,905.55996 V 922.36 H 25 l 8e-6,-16.80004 z"/>
  <path style="opacity:0.12;fill:#000000" d="m 25,910.36 c -6.648,0 -12,5.352 -12,12 h 12 c 8e-6,0 0,-12 0,-12 z"/>
 </g>
 <g id="north-active-tab-bottomright" transform="matrix(-0.41666667,0,0,-0.41666667,53.416671,411.31665)">
  <path style="opacity:0.00100002" d="M 8.2000073,905.55996 V 922.36 H 25 l 8e-6,-16.80004 z"/>
  <path style="opacity:0.12;fill:#000000" d="m 25,910.36 c -6.648,0 -12,5.352 -12,12 h 12 c 8e-6,0 0,-12 0,-12 z"/>
 </g>
 <path id="north-active-tab-center" style="opacity:0.12;fill:#000000" d="m 43.000001,26.99998 v -6 h -6 v 6 z"/>
 <rect id="north-focus-hint-right-margin" style="fill:#ff0000" width="5" height="2" x="-48" y="-25" transform="scale(-1)"/>
 <rect id="north-focus-hint-left-margin" style="fill:#ff0000" width="5" height="2" x="-37" y="-25" transform="scale(-1)"/>
 <rect id="north-focus-hint-bottom-margin" style="fill:#ff0000" width="2" height="5" x="-41" y="-32" transform="scale(-1)"/>
 <rect id="north-focus-hint-top-margin" style="fill:#ff0000" width="2" height="5" x="-41" y="-21" transform="scale(-1)"/>
 <g id="south-active-tab-top" transform="translate(-158,-114.99999)">
  <g style="opacity:0.00100002" transform="matrix(0.18748184,0,0,0.83332808,221.43785,-627.62854)">
   <path style="opacity:0.12;fill:#000000" transform="matrix(0,-1,-1,0,0,0)" d="m -916.35999,-51 8.40004,-0.0031 v 32 L -916.35999,-19 Z"/>
  </g>
  <path style="opacity:0.12;fill:#000000" transform="matrix(0,-1,-1,0,0,0)" d="M -135.99997,-231 H -131 v 6 h -4.99997 z"/>
 </g>
 <g id="south-active-tab-topleft" transform="matrix(0.41666667,0,0,0.41666667,56.583332,-363.31669)">
  <path style="opacity:0.00100002" d="M 8.2000061,905.55996 V 922.36 H 25 l 8e-6,-16.80004 z"/>
  <path style="opacity:0.12;fill:#000000" d="m 25,910.36 c -6.648,0 -12,5.352 -12,12 h 12 c 8e-6,0 0,-12 0,-12 z"/>
 </g>
 <g id="south-active-tab-left" transform="rotate(-90,91.49999,160.49999)">
  <g style="opacity:0.00100002" transform="matrix(0.18748184,0,0,0.83332808,221.43785,-627.62854)">
   <path style="opacity:0.12;fill:#000000" transform="matrix(0,-1,-1,0,0,0)" d="m -916.35999,-51 8.40002,-0.0031 v 32 L -916.35999,-19 Z"/>
  </g>
  <path style="opacity:0.12;fill:#000000" transform="matrix(0,-1,-1,0,0,0)" d="M -135.99997,-231 H -131 v 6 h -4.99997 z"/>
 </g>
 <g id="south-active-tab-topright" transform="matrix(-0.41666667,0,0,0.41666667,83.416672,-363.31669)">
  <path style="opacity:0.00100002" d="M 8.2000073,905.55996 V 922.36 H 25 l 8e-6,-16.80004 z"/>
  <path style="opacity:0.12;fill:#000000" d="m 25,910.36 c -6.648,0 -12,5.352 -12,12 h 12 c 8e-6,0 0,-12 0,-12 z"/>
 </g>
 <g id="south-active-tab-right" transform="matrix(0,-1,-1,0,209,251.99998)">
  <g style="opacity:0.00100002" transform="matrix(0.18748184,0,0,0.83332808,221.43785,-627.62854)">
   <path style="opacity:0.12;fill:#000000" transform="matrix(0,-1,-1,0,0,0)" d="m -916.35999,-51 8.40002,-0.0031 v 32 L -916.35999,-19 Z"/>
  </g>
  <path style="opacity:0.12;fill:#000000" transform="matrix(0,-1,-1,0,0,0)" d="M -135.99997,-231 H -131 v 6 h -4.99997 z"/>
 </g>
 <g id="south-active-tab-bottom" transform="matrix(1,0,0,-1,-158,162.99995)">
  <g style="opacity:0.00100002" transform="matrix(0.18748184,0,0,0.83332808,221.43785,-627.62854)">
   <path style="opacity:0.12;fill:#000000" transform="matrix(0,-1,-1,0,0,0)" d="m -916.35999,-51 8.40004,-0.0031 v 32 L -916.35999,-19 Z"/>
  </g>
  <path style="opacity:0.12;fill:#000000" transform="matrix(0,-1,-1,0,0,0)" d="M -135.99997,-231 H -131 v 6 h -4.99997 z"/>
 </g>
 <g id="south-active-tab-bottomleft" transform="matrix(0.41666667,0,0,-0.41666667,56.583332,411.31665)">
  <path style="opacity:0.00100002" d="M 8.2000061,905.55996 V 922.36 H 25 l 8e-6,-16.80004 z"/>
  <path style="opacity:0.12;fill:#000000" d="m 25,910.36 c -6.648,0 -12,5.352 -12,12 h 12 c 8e-6,0 0,-12 0,-12 z"/>
 </g>
 <g id="south-active-tab-bottomright" transform="matrix(-0.41666667,0,0,-0.41666667,83.416672,411.31665)">
  <path style="opacity:0.00100002" d="M 8.2000073,905.55996 V 922.36 H 25 l 8e-6,-16.80004 z"/>
  <path style="opacity:0.12;fill:#000000" d="m 25,910.36 c -6.648,0 -12,5.352 -12,12 h 12 c 8e-6,0 0,-12 0,-12 z"/>
 </g>
 <path id="south-active-tab-center" style="opacity:0.12;fill:#000000" d="m 73.000002,26.99998 v -6 h -6 v 6 z"/>
 <g id="east-active-tab-top" transform="translate(-128,-114.99999)">
  <g style="opacity:0.00100002" transform="matrix(0.18748184,0,0,0.83332808,221.43785,-627.62854)">
   <path style="opacity:0.12;fill:#000000" transform="matrix(0,-1,-1,0,0,0)" d="m -916.35999,-51 8.40004,-0.0031 v 32 L -916.35999,-19 Z"/>
  </g>
  <path style="opacity:0.12;fill:#000000" transform="matrix(0,-1,-1,0,0,0)" d="M -135.99997,-231 H -131 v 6 h -4.99997 z"/>
 </g>
 <g id="east-active-tab-topleft" transform="matrix(0.41666667,0,0,0.41666667,86.583333,-363.31669)">
  <path style="opacity:0.00100002" d="M 8.2000061,905.55996 V 922.36 H 25 l 8e-6,-16.80004 z"/>
  <path style="opacity:0.12;fill:#000000" d="m 25,910.36 c -6.648,0 -12,5.352 -12,12 h 12 c 8e-6,0 0,-12 0,-12 z"/>
 </g>
 <g id="east-active-tab-left" transform="rotate(-90,106.49999,145.49999)">
  <g style="opacity:0.00100002" transform="matrix(0.18748184,0,0,0.83332808,221.43785,-627.62854)">
   <path style="opacity:0.12;fill:#000000" transform="matrix(0,-1,-1,0,0,0)" d="m -916.35999,-51 8.40002,-0.0031 v 32 L -916.35999,-19 Z"/>
  </g>
  <path style="opacity:0.12;fill:#000000" transform="matrix(0,-1,-1,0,0,0)" d="M -135.99997,-231 H -131 v 6 h -4.99997 z"/>
 </g>
 <g id="east-active-tab-topright" transform="matrix(-0.41666667,0,0,0.41666667,113.41667,-363.31669)">
  <path style="opacity:0.00100002" d="M 8.2000073,905.55996 V 922.36 H 25 l 8e-6,-16.80004 z"/>
  <path style="opacity:0.12;fill:#000000" d="m 25,910.36 c -6.648,0 -12,5.352 -12,12 h 12 c 8e-6,0 0,-12 0,-12 z"/>
 </g>
 <g id="east-active-tab-right" transform="matrix(0,-1,-1,0,239,251.99998)">
  <g style="opacity:0.00100002" transform="matrix(0.18748184,0,0,0.83332808,221.43785,-627.62854)">
   <path style="opacity:0.12;fill:#000000" transform="matrix(0,-1,-1,0,0,0)" d="m -916.35999,-51 8.40002,-0.0031 v 32 L -916.35999,-19 Z"/>
  </g>
  <path style="opacity:0.12;fill:#000000" transform="matrix(0,-1,-1,0,0,0)" d="M -135.99997,-231 H -131 v 6 h -4.99997 z"/>
 </g>
 <g id="east-active-tab-bottom" transform="matrix(1,0,0,-1,-128,162.99995)">
  <g style="opacity:0.00100002" transform="matrix(0.18748184,0,0,0.83332808,221.43785,-627.62854)">
   <path style="opacity:0.12;fill:#000000" transform="matrix(0,-1,-1,0,0,0)" d="m -916.35999,-51 8.40004,-0.0031 v 32 L -916.35999,-19 Z"/>
  </g>
  <path style="opacity:0.12;fill:#000000" transform="matrix(0,-1,-1,0,0,0)" d="M -135.99997,-231 H -131 v 6 h -4.99997 z"/>
 </g>
 <g id="east-active-tab-bottomleft" transform="matrix(0.41666667,0,0,-0.41666667,86.583333,411.31665)">
  <path style="opacity:0.00100002" d="M 8.2000061,905.55996 V 922.36 H 25 l 8e-6,-16.80004 z"/>
  <path style="opacity:0.12;fill:#000000" d="m 25,910.36 c -6.648,0 -12,5.352 -12,12 h 12 c 8e-6,0 0,-12 0,-12 z"/>
 </g>
 <g id="east-active-tab-bottomright" transform="matrix(-0.41666667,0,0,-0.41666667,113.41667,411.31665)">
  <path style="opacity:0.00100002" d="M 8.2000073,905.55996 V 922.36 H 25 l 8e-6,-16.80004 z"/>
  <path style="opacity:0.12;fill:#000000" d="m 25,910.36 c -6.648,0 -12,5.352 -12,12 h 12 c 8e-6,0 0,-12 0,-12 z"/>
 </g>
 <path id="east-active-tab-center" style="opacity:0.12;fill:#000000" d="m 103,26.99998 v -6 h -5.999998 v 6 z"/>
 <rect id="east-focus-hint-right-margin" style="fill:#ff0000" width="5" height="2" x="-108" y="-25" transform="scale(-1)"/>
 <rect id="east-focus-hint-left-margin" style="fill:#ff0000" width="5" height="2" x="-97" y="-25" transform="scale(-1)"/>
 <rect id="east-focus-hint-bottom-margin" style="fill:#ff0000" width="2" height="5" x="-101" y="-32" transform="scale(-1)"/>
 <rect id="east-focus-hint-top-margin" style="fill:#ff0000" width="2" height="5" x="-101" y="-21" transform="scale(-1)"/>
</svg>
