<svg xmlns="http://www.w3.org/2000/svg"  width="14" height="14" version="1.1">
 <g id="active-center" style="enable-background:new">
  <g >
   <g  transform="scale(0.875)">
    <path style="fill:#aeaeae" d="M 8.0000702,16 C 12.418274,16 16,12.418286 16,8 16,3.5817144 12.418274,2e-7 8.0000702,2e-7 3.5817358,2e-7 0,3.5817144 0,8 c 0,4.418286 3.5817358,8 8.0000702,8"/>
    <path style="fill:#c0c0c0" d="m 8.0000702,15.428571 c 4.1026068,0 7.4284938,-3.143927 7.4284938,-7.0219023 0,-3.8780832 -3.325887,-7.0217948 -7.4284938,-7.0217948 -4.1027583,0 -7.42864855,3.1437116 -7.42864855,7.0217948 0,3.8779753 3.32589025,7.0219023 7.42864855,7.0219023"/>
   </g>
  </g>
 </g>
 <g id="inactive-center" style="enable-background:new" transform="translate(42)">
  <g>
   <g transform="scale(0.875)">
    <path style="fill:#aeaeae" d="M 8.0000702,16 C 12.418274,16 16,12.418286 16,8 16,3.5817144 12.418274,2e-7 8.0000702,2e-7 3.5817358,2e-7 0,3.5817144 0,8 c 0,4.418286 3.5817358,8 8.0000702,8"/>
    <path style="fill:#c0c0c0" d="m 8.0000702,15.428571 c 4.1026068,0 7.4284938,-3.143927 7.4284938,-7.0219023 0,-3.8780832 -3.325887,-7.0217948 -7.4284938,-7.0217948 -4.1027583,0 -7.42864855,3.1437116 -7.42864855,7.0217948 0,3.8779753 3.32589025,7.0219023 7.42864855,7.0219023"/>
   </g>
  </g>
 </g>
 <g id="deactivated-center" style="enable-background:new" transform="translate(56)">
  <g >
   <g  transform="scale(0.875)">
    <path  style="fill:#aeaeae" d="M 8.0000702,16 C 12.418274,16 16,12.418286 16,8 16,3.5817144 12.418274,2e-7 8.0000702,2e-7 3.5817358,2e-7 0,3.5817144 0,8 c 0,4.418286 3.5817358,8 8.0000702,8"/>
    <path  style="fill:#c0c0c0" d="m 8.0000702,15.428571 c 4.1026068,0 7.4284938,-3.143927 7.4284938,-7.0219023 0,-3.8780832 -3.325887,-7.0217948 -7.4284938,-7.0217948 -4.1027583,0 -7.42864855,3.1437116 -7.42864855,7.0217948 0,3.8779753 3.32589025,7.0219023 7.42864855,7.0219023"/>
   </g>
  </g>
 </g>
 <g id="hover-center">
  <path style="fill:#aeaeae" d="M 21.000061,14 C 24.86599,14 28,10.866 28,7 28,3.1340001 24.86599,1.75e-7 21.000061,1.75e-7 17.134019,1.75e-7 14,3.1340001 14,7 c 0,3.866 3.134019,7 7.000061,7"/>
  <path style="fill:#c0c0c0" d="m 21.000061,13.5 c 3.589781,0 6.499933,-2.750936 6.499933,-6.1441649 0,-3.3933228 -2.910152,-6.1440704 -6.499933,-6.1440704 -3.589913,0 -6.500067,2.7507476 -6.500067,6.1440704 0,3.3932289 2.910154,6.1441649 6.500067,6.1441649"/>
  <circle  style="opacity:0.5" cx="21" cy="7" r="3"/>
 </g>
 <g id="pressed-center">
  <path style="fill:#aeaeae" d="M 35.000061,14 C 38.86599,14 42,10.866 42,7 42,3.1340001 38.86599,1.75e-7 35.000061,1.75e-7 31.134019,1.75e-7 28,3.1340001 28,7 c 0,3.866 3.134019,7 7.000061,7"/>
  <path style="fill:#c0c0c0" d="m 35.000061,13.5 c 3.589781,0 6.499933,-2.750936 6.499933,-6.1441649 0,-3.3933228 -2.910152,-6.1440704 -6.499933,-6.1440704 -3.589913,0 -6.500067,2.7507476 -6.500067,6.1440704 0,3.3932289 2.910154,6.1441649 6.500067,6.1441649"/>
  <circle style="opacity:0.5" cx="35" cy="7" r="3"/>
 </g>
</svg>
