<svg xmlns="http://www.w3.org/2000/svg" xmlns:xlink="http://www.w3.org/1999/xlink" width="300" height="300" version="1.1">
 <defs id="defs25">
  <linearGradient id="linearGradient885">
   <stop style="stop-color:#cfcfcf;stop-opacity:1" offset="0"/>
   <stop style="stop-color:#dadadb;stop-opacity:1" offset="1"/>
  </linearGradient>
  <linearGradient id="linearGradient988">
   <stop style="stop-color:#000000;stop-opacity:1" offset="0"/>
   <stop style="stop-color:#000000;stop-opacity:0" offset="1"/>
  </linearGradient>
  <linearGradient id="linearGradient1054" x1="155" x2="155" y1="956.362" y2="968.362" gradientUnits="userSpaceOnUse" xlink:href="#linearGradient988"/>
  <radialGradient id="radialGradient1070" cx="105.5" cy="945.736" r="12.5" fx="105.5" fy="945.736" gradientTransform="matrix(-1.0400001,-1.120317e-7,1.034135e-7,-0.95999651,201.71997,1111.9034)" gradientUnits="userSpaceOnUse" xlink:href="#linearGradient988"/>
  <linearGradient id="linearGradient1078" x1="92" x2="79" y1="892.362" y2="892.362" gradientUnits="userSpaceOnUse" xlink:href="#linearGradient988"/>
  <radialGradient id="radialGradient1094" cx="108.639" cy="851.362" r="12.5" fx="108.639" fy="851.362" gradientTransform="matrix(0,-0.56000049,1.0399944,0,-793.41201,150.83784)" gradientUnits="userSpaceOnUse" xlink:href="#linearGradient988"/>
  <linearGradient id="linearGradient938" x1="92" x2="79" y1="892.362" y2="892.362" gradientUnits="userSpaceOnUse" xlink:href="#linearGradient988"/>
  <radialGradient id="radialGradient942" cx="105.5" cy="945.736" r="12.5" fx="105.5" fy="945.736" gradientTransform="matrix(-1.0399999,-1.6553279e-6,1.5279896e-6,-0.95999651,201.71861,1111.9036)" gradientUnits="userSpaceOnUse" xlink:href="#linearGradient988"/>
  <radialGradient id="radialGradient946" cx="108.639" cy="851.362" r="12.5" fx="108.639" fy="851.362" gradientTransform="matrix(4.2816027e-7,-0.56000049,1.0399944,7.9514998e-7,-793.41205,150.83717)" gradientUnits="userSpaceOnUse" xlink:href="#linearGradient988"/>
  <linearGradient id="linearGradient872" x1="190" x2="190" y1="843.362" y2="835.362" gradientUnits="userSpaceOnUse" xlink:href="#linearGradient885"/>
  <linearGradient id="linearGradient874" x1="101" x2="101" y1="843.362" y2="835.362" gradientUnits="userSpaceOnUse" xlink:href="#linearGradient885"/>
  <linearGradient id="linearGradient876" x1="92" x2="92" y1="843.362" y2="835.362" gradientUnits="userSpaceOnUse" xlink:href="#linearGradient885"/>
  <linearGradient id="linearGradient912" x1="92" x2="92" y1="854.362" y2="846.362" gradientUnits="userSpaceOnUse" xlink:href="#linearGradient885"/>
  <linearGradient id="linearGradient914" x1="190" x2="190" y1="854.362" y2="846.362" gradientUnits="userSpaceOnUse" xlink:href="#linearGradient885"/>
  <linearGradient id="linearGradient934" x1="92" x2="92" y1="91" y2="83" gradientUnits="userSpaceOnUse" xlink:href="#linearGradient885"/>
 </defs>
 <g id="decoration-left" style="opacity:1" transform="translate(0,-763.36216)">
  <path style="opacity:0.3;fill:url(#linearGradient1078)" d="m 79,853.36216 v 98 h 7 v -98 z"/>
  <path style="fill:url(#linearGradient912)" d="m 92,951.36156 v -97.9994 h -6 v 98 z"/>
  <path style="opacity:0.3" d="m 86,951.36156 v -97.9994 h -1 v 98 z"/>
 </g>
 <g id="decoration-top" transform="translate(-8.999999,-752.36216)">
  <path style="fill:url(#linearGradient874)" d="M 101.00061,842.36216 H 199 v -7 h -98 z"/>
  <path style="opacity:0.001" d="m 199,833.36216 h -98 v 2 h 98 z"/>
  <path style="opacity:0.5;fill:#ffffff" transform="translate(0,752.36216)" d="m 101,83 v 1 h 98 v -1 z"/>
  <path style="opacity:0.3" d="m 101,834.36216 v 1 h 98 v -1 z"/>
 </g>
 <g id="decoration-bottom" transform="translate(-9,-768.36216)">
  <path style="opacity:0.3;fill:url(#linearGradient1054)" d="m 101,968.36216 h 98 v -11 h -98 z"/>
  <path style="fill:#cfcfcf" d="M 198.9994,956.36216 H 101 v 1 h 98 z"/>
  <path style="opacity:0.3" d="M 198.9994,957.36216 H 101 v 1 h 98 z"/>
 </g>
 <g id="decoration-bottomleft" transform="translate(0,-768.36216)">
  <path style="opacity:0.3;fill:url(#radialGradient1070)" transform="translate(0,752.36216)" d="m 79,204 v 12 h 13 v -11 h -6 v -1 z"/>
  <path style="fill:#cfcfcf" d="m 92,957.36216 h -6 v -1 h 6 z"/>
  <path style="opacity:0.3" transform="translate(0,752.36216)" d="m 85,204 v 1 1 h 7 v -1 h -6 v -1 z"/>
 </g>
 <g id="decoration-topleft" transform="translate(0,-752.36216)">
  <path style="opacity:0.3;fill:url(#radialGradient1094)" transform="translate(0,752.36216)" d="m 79,81 v 9 h 7 v 0 c 0,-7 6,-7 6,-7 v -2 z"/>
  <path style="opacity:0.3" transform="translate(0,752.36216)" d="m 92,82 c 0,0 -1.753276,-0.009 -3.503906,1.011719 C 86.745463,84.032919 85,86.21428 85,90 v 0 h 2 v 0 c 0,-3.21429 1.254536,-4.530966 2.503906,-5.259766 C 90.753276,84.011434 92,84 92,84 h 0 v -2 z"/>
  <path style="fill:url(#linearGradient876)" d="m 92,835.36216 h 10e-7 c 0,0 -6.000001,0 -6.000001,7 v 0 h 6 z"/>
  <path style="opacity:0.5;fill:#ffffff" transform="translate(0,752.36216)" d="M 92 83 C 92 83 86 83 86 90 L 86.035156 90 C 86.403609 84.018748 92 84 92 84 L 92 83 z"/>
 </g>
 <g id="decoration-right" transform="matrix(-1,0,0,1,282,-763.36216)">
  <path style="opacity:0.3;fill:url(#linearGradient938)" d="m 79,853.36216 v 98 h 7 v -98 z"/>
  <path style="fill:url(#linearGradient914)" d="m 92,951.36156 v -97.9994 h -6 v 98 z"/>
  <path style="opacity:0.3" d="m 86,951.36156 v -97.9994 h -1 v 98 z"/>
 </g>
 <g id="decoration-bottomright" transform="matrix(-1,0,0,1,282,-768.36216)">
  <path style="opacity:0.3;fill:url(#radialGradient942)" transform="translate(0,752.36216)" d="m 79,204 v 12 h 13 v -11 h -6 v -1 z"/>
  <path style="fill:#cfcfcf" d="m 92,957.36216 h -6 v -1 h 6 z"/>
  <path style="opacity:0.3" transform="translate(0,752.36216)" d="m 85,204 v 1 1 h 7 v -1 h -6 v -1 z"/>
 </g>
 <g id="decoration-topright" transform="matrix(-1,0,0,1,282,-752.36216)">
  <path style="opacity:0.3;fill:url(#radialGradient946)" transform="translate(0,752.36216)" d="m 79,81 v 9 h 7 v 0 c 0,-7 6,-7 6,-7 v -2 z"/>
  <path style="opacity:0.3" transform="translate(0,752.36216)" d="m 92,82 c 0,0 -1.753276,-0.009 -3.503906,1.011719 C 86.745463,84.032919 85,86.21428 85,90 v 0 h 2 v 0 c 0,-3.21429 1.254536,-4.530966 2.503906,-5.259766 C 90.753276,84.011434 92,84 92,84 v 0 z"/>
  <path style="fill:url(#linearGradient872)" d="m 92,835.36216 h 10e-7 c 0,0 -6.000001,0 -6.000001,7 v 0 h 6 z"/>
  <path style="opacity:0.5;fill:#ffffff" transform="translate(0,752.36216)" d="m 92,83 c 0,0 -6,0 -6,7 h 0.03516 C 86.403609,84.018748 92,84 92,84 Z"/>
 </g>
 <g id="decoration-center">
  <path style="fill:url(#linearGradient934)" d="m 92,90 h 98 v 98 H 92 Z"/>
 </g>
 <rect id="hint-stretch-borders" style="fill:#ff0000" width="4" height="4" x="0" y="-4"/>
 <rect id="shadow-hint-top-margin" style="fill:#ff00ff" width="4" height="2" x="139" y="81"/>
 <rect id="hint-top-margin" style="fill:#00ff29" width="4" height="9" x="139" y="81"/>
 <rect id="shadow-hint-bottom-margin" style="fill:#ff00ff" width="4" height="11" x="139" y="189"/>
 <rect id="shadow-hint-right-margin" style="fill:#ff00ff" width="7" height="4" x="196" y="137"/>
 <rect id="shadow-hint-left-margin" style="fill:#ff00ff" width="7" height="4" x="79" y="137"/>
 <rect id="hint-bottom-margin" style="fill:#00ff29" width="4" height="12" x="139" y="188"/>
 <rect id="hint-right-margin" style="fill:#00ff29" width="4" height="13" x="137" y="-203" transform="rotate(90)"/>
 <rect id="hint-left-margin" style="fill:#00ff29" width="4" height="13" x="137" y="-92" transform="rotate(90)"/>
</svg>
