<svg xmlns="http://www.w3.org/2000/svg" width="14" height="14" version="1.1">
 <g id="active-center">
  <g>
   <g transform="scale(0.875)">
    <path style="fill:#aeaeae" d="M 8.0000702,16 C 12.418274,16 16,12.418286 16,8 16,3.5817144 12.418274,2e-7 8.0000702,2e-7 3.5817358,2e-7 0,3.5817144 0,8 c 0,4.418286 3.5817358,8 8.0000702,8"/>
    <path style="fill:#c0c0c0" d="m 8.0000702,15.428571 c 4.1026068,0 7.4284938,-3.143927 7.4284938,-7.0219023 0,-3.8780832 -3.325887,-7.0217948 -7.4284938,-7.0217948 -4.1027583,0 -7.42864855,3.1437116 -7.42864855,7.0217948 0,3.8779753 3.32589025,7.0219023 7.42864855,7.0219023"/>
   </g>
  </g>
 </g>
 <g id="hover-center" transform="translate(14)">
  <g transform="scale(0.875)">
   <path style="fill:#aeaeae" d="M 8.0000702,16 C 12.418274,16 16,12.418286 16,8 16,3.5817144 12.418274,2e-7 8.0000702,2e-7 3.5817358,2e-7 0,3.5817144 0,8 c 0,4.418286 3.5817358,8 8.0000702,8"/>
   <path style="fill:#c0c0c0" d="m 8.0000702,15.428571 c 4.1026068,0 7.4284938,-3.143927 7.4284938,-7.0219023 0,-3.8780832 -3.325887,-7.0217948 -7.4284938,-7.0217948 -4.1027583,0 -7.42864855,3.1437116 -7.42864855,7.0217948 0,3.8779753 3.32589025,7.0219023 7.42864855,7.0219023"/>
   <path style="opacity:0.5" d="M 6.16474,4.488 11.515,9.8382163 V 5.6546667 C 11.515,5.1699167 10.833083,4.488 10.348333,4.488 Z M 4.5150004,6.1377833 v 4.1835487 c 0,0.48475 0.6819163,1.166668 1.1666663,1.166668 h 4.1835941 z"/>
  </g>
 </g>
 <g id="pressed-center" transform="translate(28)">
  <g transform="scale(0.875)">
   <path style="fill:#aeaeae" d="M 8.0000702,16 C 12.418274,16 16,12.418286 16,8 16,3.5817144 12.418274,2e-7 8.0000702,2e-7 3.5817358,2e-7 0,3.5817144 0,8 c 0,4.418286 3.5817358,8 8.0000702,8"/>
   <path style="fill:#c0c0c0" d="m 8.0000702,15.428571 c 4.1026068,0 7.4284938,-3.143927 7.4284938,-7.0219023 0,-3.8780832 -3.325887,-7.0217948 -7.4284938,-7.0217948 -4.1027583,0 -7.42864855,3.1437116 -7.42864855,7.0217948 0,3.8779753 3.32589025,7.0219023 7.42864855,7.0219023"/>
   <path style="opacity:0.5" d="M 6.16474,4.488 11.515,9.8382163 V 5.6546667 C 11.515,5.1699167 10.833083,4.488 10.348333,4.488 Z M 4.5150004,6.1377833 v 4.1835487 c 0,0.48475 0.6819163,1.166668 1.1666663,1.166668 h 4.1835941 z"/>
  </g>
 </g>
 <g id="inactive-center" transform="translate(42)">
  <g>
   <g transform="scale(0.875)">
    <path style="fill:#aeaeae" d="M 8.0000702,16 C 12.418274,16 16,12.418286 16,8 16,3.5817144 12.418274,2e-7 8.0000702,2e-7 3.5817358,2e-7 0,3.5817144 0,8 c 0,4.418286 3.5817358,8 8.0000702,8"/>
    <path style="fill:#c0c0c0" d="m 8.0000702,15.428571 c 4.1026068,0 7.4284938,-3.143927 7.4284938,-7.0219023 0,-3.8780832 -3.325887,-7.0217948 -7.4284938,-7.0217948 -4.1027583,0 -7.42864855,3.1437116 -7.42864855,7.0217948 0,3.8779753 3.32589025,7.0219023 7.42864855,7.0219023"/>
   </g>
  </g>
 </g>
 <g id="deactivated-center" transform="translate(56)">
  <g>
   <g transform="scale(0.875)">
    <path style="fill:#aeaeae" d="M 8.0000702,16 C 12.418274,16 16,12.418286 16,8 16,3.5817144 12.418274,2e-7 8.0000702,2e-7 3.5817358,2e-7 0,3.5817144 0,8 c 0,4.418286 3.5817358,8 8.0000702,8"/>
    <path style="fill:#c0c0c0" d="m 8.0000702,15.428571 c 4.1026068,0 7.4284938,-3.143927 7.4284938,-7.0219023 0,-3.8780832 -3.325887,-7.0217948 -7.4284938,-7.0217948 -4.1027583,0 -7.42864855,3.1437116 -7.42864855,7.0217948 0,3.8779753 3.32589025,7.0219023 7.42864855,7.0219023"/>
   </g>
  </g>
 </g>
</svg>
