<svg xmlns="http://www.w3.org/2000/svg" xmlns:xlink="http://www.w3.org/1999/xlink" width="8" height="37" version="1.1">
 <defs id="defs2">
  <linearGradient id="linearGradient831">
   <stop style="stop-color:#000000;stop-opacity:1" offset="0"/>
   <stop style="stop-color:#000000;stop-opacity:0" offset="1"/>
  </linearGradient>
  <radialGradient id="radialGradient843" cx="6" cy="305.444" r="3" fx="6" fy="305.444" gradientTransform="matrix(-2.3333334,8.2688579e-6,-1.2862565e-5,-2.6666453,22.003929,840.5138)" gradientUnits="userSpaceOnUse" xlink:href="#linearGradient831"/>
  <linearGradient id="linearGradient897" x1="165" x2="165" y1="205" y2="83" gradientTransform="translate(-202.29661,-140.05932)" gradientUnits="userSpaceOnUse" xlink:href="#linearGradient895"/>
  <linearGradient id="linearGradient895">
   <stop style="stop-color:#636363;stop-opacity:1" offset="0"/>
   <stop style="stop-color:#6b6b6b;stop-opacity:1" offset="1"/>
  </linearGradient>
  <linearGradient id="linearGradient844" x1="7" x2="7" y1="-3" y2="29" gradientTransform="translate(1)" gradientUnits="userSpaceOnUse" xlink:href="#linearGradient895"/>
 </defs>
 <g transform="matrix(-1,0,0,1,8,3)">
  <rect style="opacity:0.4;fill:url(#radialGradient843)" width="7" height="8" x="1" y="26"/>
  <path style="opacity:0.3" d="m 0,-3 v 29 c 0,2.198703 1.8012972,4 4,4 H 8 V -3 Z"/>
  <path style="opacity:1;fill:url(#linearGradient844);fill-opacity:1" d="m 1,-3 v 29 c 0,1.662 1.338,3 3,3 H 8 V -3 Z"/>
  <path style="opacity:0.1;fill:#ffffff" d="m 1,25 v 1 c 0,1.662 1.338,3 3,3 H 8 V 28 H 4 C 2.338,28 1,26.662 1,25 Z"/>
 </g>
</svg>
