<svg xmlns="http://www.w3.org/2000/svg" width="14" height="14" version="1.1">
 <g>
  <path style="fill:#aa4400" d="M 7.0000614,14 C 10.86599,14 14,10.866 14,7 14,3.1340001 10.86599,1.75e-7 7.0000614,1.75e-7 3.1340188,1.75e-7 0,3.1340001 0,7 c 0,3.866 3.1340188,7 7.0000614,7"/>
  <path style="fill:#d45500" d="m 7.0000614,13.5 c 3.5897806,0 6.4999326,-2.790778 6.4999326,-6.2331485 0,-3.4424671 -2.910152,-6.2330528 -6.4999326,-6.2330528 -3.5899137,0 -6.50006766,2.7905857 -6.50006766,6.2330528 C 0.49999374,10.709222 3.4101477,13.5 7.0000614,13.5"/>
  <path style="opacity:0.5" d="m 4.2571769,4.2021021 c -0.3842406,0.3842045 -0.3842406,1.0028351 0,1.3871373 l 1.3871497,1.3871372 -1.3871497,1.387136 c -0.3842406,0.3843019 -0.3842406,1.0029319 0,1.3871365 0.3842404,0.3843019 1.0029092,0.3843019 1.3871497,0 L 7.0314771,8.3635126 8.4186276,9.7506491 c 0.3842408,0.3843019 1.0029095,0.3843019 1.38715,0 0.3842404,-0.3842046 0.3842404,-1.0028346 0,-1.3871365 l -1.38715,-1.3871359 1.38715,-1.3871373 c 0.3842404,-0.3843022 0.3842404,-1.0029328 0,-1.3871373 -0.3842405,-0.3843017 -1.0029092,-0.3843017 -1.38715,0 L 7.0314771,5.5892394 5.6443266,4.2021021 c -0.3842405,-0.3843017 -1.0029093,-0.3843017 -1.3871497,0 z"/>
 </g>
</svg>
